SplineFontDB: 3.0
FontName: Bevan
FullName: Bevan
FamilyName: Bevan
Weight: Book
Copyright: Copyright (c) 2011 by vernon adams. All rights reserved.
Version: 1.000
ItalicAngle: 0
UnderlinePosition: -205
UnderlineWidth: 102
Ascent: 1638
Descent: 410
LayerCount: 2
Layer: 0 1 "Back"  1
Layer: 1 1 "Fore"  0
XUID: [1021 823 301787212 14470943]
FSType: 0
OS2Version: 3
OS2_WeightWidthSlopeOnly: 0
OS2_UseTypoMetrics: 1
CreationTime: 1297990544
ModificationTime: 1297991336
PfmFamily: 17
TTFWeight: 400
TTFWidth: 5
LineGap: 0
VLineGap: 0
Panose: 2 0 0 0 0 0 0 0 0 0
OS2TypoAscent: 727
OS2TypoAOffset: 1
OS2TypoDescent: -515
OS2TypoDOffset: 1
OS2TypoLinegap: 0
OS2WinAscent: -20
OS2WinAOffset: 1
OS2WinDescent: 2
OS2WinDOffset: 1
HheadAscent: -20
HheadAOffset: 1
HheadDescent: -2
HheadDOffset: 1
OS2SubXSize: 1434
OS2SubYSize: 1331
OS2SubXOff: 0
OS2SubYOff: 287
OS2SupXSize: 1434
OS2SupYSize: 1331
OS2SupXOff: 0
OS2SupYOff: 977
OS2StrikeYSize: 102
OS2StrikeYPos: 512
OS2Vendor: 'newt'
OS2CodePages: 20000093.00000000
OS2UnicodeRanges: a00000af.5000204b.00000000.00000000
Lookup: 258 0 0 "'kern' Horizontal Kerning in Latin lookup 0"  {"'kern' Horizontal Kerning in Latin lookup 0 per glyph data 0"  "'kern' Horizontal Kerning in Latin lookup 0 per glyph data 1"  "'kern' Horizontal Kerning in Latin lookup 0 kerning class 2"  } ['kern' ('latn' <'dflt' > ) ]
MarkAttachClasses: 1
DEI: 91125
KernClass2: 32+ 34 "'kern' Horizontal Kerning in Latin lookup 0 kerning class 2" 
 50 A Agrave Aacute Acircumflex Atilde Adieresis Aring
 10 C Ccedilla
 59 D O Q Eth Ograve Oacute Ocircumflex Otilde Odieresis Oslash
 43 E AE Egrave Eacute Ecircumflex Edieresis OE
 41 H I M Igrave Iacute Icircumflex Idieresis
 8 L Lslash
 8 N Ntilde
 21 S Scaron Scommaaccent
 22 T Tcommaaccent uni021A
 37 U Ugrave Uacute Ucircumflex Udieresis
 18 Y Yacute Ydieresis
 8 Z Zcaron
 50 a agrave aacute acircumflex atilde adieresis aring
 9 b p thorn
 10 c ccedilla
 18 d l lslash uniFB02

StartChar: exclam
Encoding: 33 33 4
Width: 802
GlyphClass: 2
Flags: W
LayerCount: 2
Fore
SplineSet
610 558 m 1,0,-1
 189 556 l 1,1,-1
 107 1331 l 1,2,-1
 107 1630 l 1,3,-1
 694 1630 l 1,4,-1
 694 1331 l 1,5,-1
 610 558 l 1,0,-1
399 463 m 0,6,7
 280 463 280 463 201 395.5 c 128,-1,8
 122 328 122 328 122 213 c 0,9,10
 122 100 122 100 199.5 34 c 128,-1,11
 277 -32 277 -32 399 -32 c 0,12,13
 526 -32 526 -32 606 34 c 128,-1,14
 686 100 686 100 686 213 c 0,15,16
 686 328 686 328 603.5 395.5 c 128,-1,17
 521 463 521 463 399 463 c 0,6,7
EndSplineSet
EndChar

StartChar: quotedbl
Encoding: 34 34 5
Width: 1147
GlyphClass: 2
Flags: W
LayerCount: 2
Fore
SplineSet
44 1624 m 1,0,-1
 524 1624 l 1,1,-1
 424 945 l 1,2,-1
 124 945 l 1,3,-1
 44 1624 l 1,0,-1
631 1624 m 1,4,-1
 1111 1624 l 1,5,-1
 1011 945 l 1,6,-1
 711 945 l 1,7,-1
 631 1624 l 1,4,-1
EndSplineSet
EndChar

StartChar: numbersign
Encoding: 35 35 6
Width: 1413
GlyphClass: 2
Flags: W
LayerCount: 2
Fore
SplineSet
409 1246 m 1,0,-1
 493 1623 l 1,1,-1
 817 1623 l 1,2,-1
 730 1246 l 1,3,-1
 888 1246 l 1,4,-1
 972 1623 l 1,5,-1
 1296 1623 l 1,6,-1
 1209 1246 l 1,7,-1
 1349 1246 l 1,8,-1
 1286 947 l 1,9,-1
 1141 947 l 1,10,-1
 1058 585 l 1,11,-1
 1202 585 l 1,12,-1
 1139 286 l 1,13,-1
 989 286 l 1,14,-1
 924 0 l 1,15,-1
 611 0 l 1,16,-1
 674 286 l 1,17,-1
 510 286 l 1,18,-1
 445 0 l 1,19,-1
 132 0 l 1,20,-1
 195 286 l 1,21,-1
 59 286 l 1,22,-1
 122 585 l 1,23,-1
 262 585 l 1,24,-1
 342 947 l 1,25,-1
 206 947 l 1,26,-1
 269 1246 l 1,27,-1
 409 1246 l 1,0,-1
579 585 m 1,28,-1
 741 585 l 1,29,-1
 821 947 l 1,30,-1
 662 947 l 1,31,-1
 579 585 l 1,28,-1
EndSplineSet
EndChar

StartChar: dollar
Encoding: 36 36 7
Width: 1358
GlyphClass: 2
Flags: W
LayerCount: 2
Fore
SplineSet
95 545 m 1,0,-1
 342 545 l 1,1,2
 349 460 349 460 430.5 379 c 128,-1,3
 512 298 512 298 585 298 c 1,4,-1
 585 586 l 1,5,6
 519 604 519 604 472 619 c 128,-1,7
 425 634 425 634 369.5 657 c 128,-1,8
 314 680 314 680 276 704.5 c 128,-1,9
 238 729 238 729 200 764 c 128,-1,10
 162 799 162 799 139.5 839.5 c 128,-1,11
 117 880 117 880 103 934.5 c 128,-1,12
 89 989 89 989 89 1053 c 0,13,14
 89 1260 89 1260 226.5 1380.5 c 128,-1,15
 364 1501 364 1501 591 1513 c 1,16,-1
 591 1704 l 1,17,-1
 818 1704 l 1,18,-1
 818 1494 l 1,19,20
 870 1476 870 1476 962 1434 c 1,21,-1
 978 1450 l 1,22,-1
 1005 1477 l 1,23,-1
 1162 1477 l 2,24,25
 1164 1477 1164 1477 1171 1475 c 128,-1,26
 1178 1473 1178 1473 1179 1473 c 0,27,28
 1180 1472 1180 1472 1181.5 1470.5 c 128,-1,29
 1183 1469 1183 1469 1184 1468 c 128,-1,30
 1185 1467 1185 1467 1185 1466 c 2,31,-1
 1185 1040 l 1,32,-1
 1179 1034 l 1,33,-1
 1058 1030 l 2,34,35
 1057 1030 1057 1030 1032.5 1029 c 128,-1,36
 1008 1028 1008 1028 1001 1028 c 0,37,38
 990 1028 990 1028 964 1030 c 1,39,-1
 954 1040 l 1,40,41
 931 1136 931 1136 847 1214 c 1,42,43
 837 1225 837 1225 827 1225 c 0,44,45
 816 1225 816 1225 816 1219 c 2,46,-1
 816 991 l 1,47,48
 898 969 898 969 962.5 944 c 128,-1,49
 1027 919 1027 919 1090 879.5 c 128,-1,50
 1153 840 1153 840 1195.5 791 c 128,-1,51
 1238 742 1238 742 1265 672.5 c 128,-1,52
 1292 603 1292 603 1294 518 c 0,53,54
 1297 391 1297 391 1233 281.5 c 128,-1,55
 1169 172 1169 172 1058 106.5 c 128,-1,56
 947 41 947 41 816 35 c 1,57,-1
 816 -166 l 1,58,-1
 585 -166 l 1,59,-1
 585 48 l 1,60,61
 446 76 446 76 334 128 c 1,62,-1
 290 66 l 1,63,-1
 95 66 l 1,64,-1
 95 545 l 1,0,-1
916 399 m 1,65,66
 921 441 921 441 896 480 c 128,-1,67
 871 519 871 519 816 527 c 1,68,-1
 816 307 l 1,69,70
 853 307 853 307 884.5 336 c 128,-1,71
 916 365 916 365 916 399 c 1,65,66
475 1180 m 0,72,73
 475 1136 475 1136 506.5 1103 c 128,-1,74
 538 1070 538 1070 589 1059 c 1,75,-1
 589 1270 l 1,76,77
 546 1272 546 1272 510.5 1244.5 c 128,-1,78
 475 1217 475 1217 475 1180 c 0,72,73
EndSplineSet
EndChar

StartChar: percent
Encoding: 37 37 8
Width: 2728
GlyphClass: 2
Flags: W
LayerCount: 2
Fore
SplineSet
1675 521 m 0,0,1
 1675 679 1675 679 1734 809 c 128,-1,2
 1793 939 1793 939 1907 1017.5 c 128,-1,3
 2021 1096 2021 1096 2169 1096 c 0,4,5
 2412 1096 2412 1096 2541 948 c 128,-1,6
 2670 800 2670 800 2670 555 c 0,7,8
 2670 442 2670 442 2640 341 c 128,-1,9
 2610 240 2610 240 2553 159 c 128,-1,10
 2496 78 2496 78 2403 30 c 128,-1,11
 2310 -18 2310 -18 2193 -18 c 0,12,13
 1947 -18 1947 -18 1811 127.5 c 128,-1,14
 1675 273 1675 273 1675 521 c 0,0,1
2175 755 m 1,15,16
 2119 752 2119 752 2095 693 c 1,17,18
 2079 651 2079 651 2079 540 c 0,19,20
 2079 332 2079 332 2172 332 c 0,21,22
 2194 332 2194 332 2211 340 c 128,-1,23
 2228 348 2228 348 2238 363 c 128,-1,24
 2248 378 2248 378 2255 394.5 c 128,-1,25
 2262 411 2262 411 2264.5 434 c 128,-1,26
 2267 457 2267 457 2268 474 c 128,-1,27
 2269 491 2269 491 2269 513 c 2,28,-1
 2269 540 l 1,29,30
 2270 566 2270 566 2269.5 580.5 c 128,-1,31
 2269 595 2269 595 2267 624 c 128,-1,32
 2265 653 2265 653 2258.5 671.5 c 128,-1,33
 2252 690 2252 690 2242 710.5 c 128,-1,34
 2232 731 2232 731 2215 742 c 128,-1,35
 2198 753 2198 753 2175 755 c 1,15,16
938 0 m 1,36,-1
 1279 1623 l 1,37,-1
 1783 1623 l 1,38,-1
 1441 0 l 1,39,-1
 938 0 l 1,36,-1
56 1078 m 0,40,41
 56 1236 56 1236 115 1366 c 128,-1,42
 174 1496 174 1496 288 1574.5 c 128,-1,43
 402 1653 402 1653 550 1653 c 0,44,45
 793 1653 793 1653 922 1505 c 128,-1,46
 1051 1357 1051 1357 1051 1112 c 0,47,48
 1051 999 1051 999 1021 898 c 128,-1,49
 991 797 991 797 934 716 c 128,-1,50
 877 635 877 635 784 587 c 128,-1,51
 691 539 691 539 574 539 c 0,52,53
 328 539 328 539 192 684.5 c 128,-1,54
 56 830 56 830 56 1078 c 0,40,41
556 1312 m 1,55,56
 499 1310 499 1310 476 1250 c 0,57,58
 460 1208 460 1208 460 1097 c 0,59,60
 460 889 460 889 553 889 c 0,61,62
 575 889 575 889 592 897 c 128,-1,63
 609 905 609 905 619 920 c 128,-1,64
 629 935 629 935 636 951.5 c 128,-1,65
 643 968 643 968 645.5 991 c 128,-1,66
 648 1014 648 1014 649 1031 c 128,-1,67
 650 1048 650 1048 650 1070 c 2,68,-1
 651 1096 l 1,69,70
 651 1123 651 1123 650.5 1137.5 c 128,-1,71
 650 1152 650 1152 648 1181 c 128,-1,72
 646 1210 646 1210 639.5 1228.5 c 128,-1,73
 633 1247 633 1247 623 1267.5 c 128,-1,74
 613 1288 613 1288 596 1299 c 128,-1,75
 579 1310 579 1310 556 1312 c 1,55,56
EndSplineSet
EndChar

StartChar: ampersand
Encoding: 38 38 9
Width: 1728
GlyphClass: 2
Flags: W
LayerCount: 2
Fore
SplineSet
1117 0 m 1,0,1
 1068 49 1068 49 944 183 c 1,2,3
 759 -21 759 -21 483 -27 c 1,4,5
 289 -25 289 -25 161.5 82 c 128,-1,6
 34 189 34 189 30 380 c 1,7,8
 33 534 33 534 110.5 638 c 128,-1,9
 188 742 188 742 344 809 c 1,10,11
 228 936 228 936 225 1111 c 1,12,13
 225 1207 225 1207 263.5 1284.5 c 128,-1,14
 302 1362 302 1362 368 1412 c 128,-1,15
 434 1462 434 1462 521 1488.5 c 128,-1,16
 608 1515 608 1515 706 1515 c 0,17,18
 783 1515 783 1515 858 1492 c 128,-1,19
 933 1469 933 1469 994 1426.5 c 128,-1,20
 1055 1384 1055 1384 1092.5 1316.5 c 128,-1,21
 1130 1249 1130 1249 1130 1169 c 0,22,23
 1130 1108 1130 1108 1122 1065.5 c 128,-1,24
 1114 1023 1114 1023 1091 985 c 128,-1,25
 1068 947 1068 947 1041 919 c 128,-1,26
 1014 891 1014 891 961 844 c 1,27,-1
 1140 669 l 1,28,-1
 1167 693 l 2,29,30
 1193 717 1193 717 1220 748.5 c 128,-1,31
 1247 780 1247 780 1247 796 c 0,32,33
 1247 831 1247 831 1220 831 c 2,34,-1
 1173 831 l 1,35,-1
 1173 1126 l 1,36,-1
 1656 1126 l 1,37,-1
 1656 837 l 1,38,39
 1586 813 1586 813 1549 786.5 c 128,-1,40
 1512 760 1512 760 1448 694 c 2,41,-1
 1278 518 l 1,42,43
 1283 516 1283 516 1426 368 c 1,44,-1
 1656 368 l 1,45,-1
 1656 0 l 1,46,-1
 1117 0 l 1,0,1
487 487 m 0,47,48
 487 421 487 421 531 378 c 128,-1,49
 575 335 575 335 641 335 c 0,50,51
 703 335 703 335 755 375 c 1,52,-1
 548 589 l 1,53,-1
 541 584 l 2,54,55
 535 580 535 580 526 570.5 c 128,-1,56
 517 561 517 561 508.5 549 c 128,-1,57
 500 537 500 537 493.5 520.5 c 128,-1,58
 487 504 487 504 487 487 c 0,47,48
678 1175 m 0,59,60
 678 1145 678 1145 696 1115.5 c 128,-1,61
 714 1086 714 1086 733 1068 c 128,-1,62
 752 1050 752 1050 784 1025 c 1,63,64
 832 1058 832 1058 854 1084.5 c 128,-1,65
 876 1111 876 1111 876 1152 c 0,66,67
 876 1203 876 1203 849.5 1238 c 128,-1,68
 823 1273 823 1273 772 1273 c 0,69,70
 733 1273 733 1273 705.5 1243.5 c 128,-1,71
 678 1214 678 1214 678 1175 c 0,59,60
EndSplineSet
EndChar

StartChar: quotesingle
Encoding: 39 39 10
Width: 559
GlyphClass: 2
Flags: W
LayerCount: 2
Fore
SplineSet
44 1624 m 1,0,-1
 524 1624 l 1,1,-1
 424 945 l 1,2,-1
 124 945 l 1,3,-1
 44 1624 l 1,0,-1
EndSplineSet
EndChar

StartChar: parenleft
Encoding: 40 40 11
Width: 966
GlyphClass: 2
Flags: W
LayerCount: 2
Fore
SplineSet
912 1321 m 1,0,1
 835 1319 835 1319 775 1298.5 c 128,-1,2
 715 1278 715 1278 677 1239.5 c 128,-1,3
 639 1201 639 1201 613.5 1156.5 c 128,-1,4
 588 1112 588 1112 575.5 1051.5 c 128,-1,5
 563 991 563 991 558.5 938.5 c 128,-1,6
 554 886 554 886 554 820 c 0,7,8
 554 742 554 742 562.5 675 c 128,-1,9
 571 608 571 608 594.5 539.5 c 128,-1,10
 618 471 618 471 656 423 c 128,-1,11
 694 375 694 375 758 344.5 c 128,-1,12
 822 314 822 314 906 314 c 1,13,-1
 906 -17 l 1,14,15
 733 -17 733 -17 590.5 28 c 128,-1,16
 448 73 448 73 349 151 c 128,-1,17
 250 229 250 229 181.5 335.5 c 128,-1,18
 113 442 113 442 81.5 563.5 c 128,-1,19
 50 685 50 685 50 819 c 0,20,21
 50 1026 50 1026 98 1178.5 c 128,-1,22
 146 1331 146 1331 248.5 1438.5 c 128,-1,23
 351 1546 351 1546 516.5 1599.5 c 128,-1,24
 682 1653 682 1653 912 1653 c 1,25,-1
 912 1321 l 1,0,1
EndSplineSet
EndChar

StartChar: parenright
Encoding: 41 41 12
Width: 966
GlyphClass: 2
Flags: W
LayerCount: 2
Fore
SplineSet
54 1653 m 1,0,1
 284 1653 284 1653 449.5 1599.5 c 128,-1,2
 615 1546 615 1546 717.5 1438.5 c 128,-1,3
 820 1331 820 1331 868 1178.5 c 128,-1,4
 916 1026 916 1026 916 819 c 0,5,6
 916 685 916 685 884.5 563.5 c 128,-1,7
 853 442 853 442 784.5 335.5 c 128,-1,8
 716 229 716 229 617 151 c 128,-1,9
 518 73 518 73 375.5 28 c 128,-1,10
 233 -17 233 -17 60 -17 c 1,11,-1
 60 314 l 1,12,13
 144 314 144 314 208 344.5 c 128,-1,14
 272 375 272 375 310 423 c 128,-1,15
 348 471 348 471 371.5 539.5 c 128,-1,16
 395 608 395 608 403.5 675 c 128,-1,17
 412 742 412 742 412 820 c 0,18,19
 412 886 412 886 407.5 938.5 c 128,-1,20
 403 991 403 991 390.5 1051.5 c 128,-1,21
 378 1112 378 1112 352.5 1156.5 c 128,-1,22
 327 1201 327 1201 289 1239.5 c 128,-1,23
 251 1278 251 1278 191 1298.5 c 128,-1,24
 131 1319 131 1319 54 1321 c 1,25,-1
 54 1653 l 1,0,1
EndSplineSet
EndChar

StartChar: asterisk
Encoding: 42 42 13
Width: 1347
GlyphClass: 2
Flags: W
LayerCount: 2
Fore
SplineSet
98 1328 m 1,0,1
 133 1383 133 1383 196.5 1396 c 128,-1,2
 260 1409 260 1409 337 1364 c 1,3,4
 370 1342 370 1342 410 1303.5 c 128,-1,5
 450 1265 450 1265 473 1239.5 c 128,-1,6
 496 1214 496 1214 544.5 1156 c 128,-1,7
 593 1098 593 1098 603 1086 c 1,8,9
 598 1102 598 1102 577 1173.5 c 128,-1,10
 556 1245 556 1245 547 1279 c 128,-1,11
 538 1313 538 1313 528 1367 c 128,-1,12
 518 1421 518 1421 518 1461 c 0,13,14
 518 1545 518 1545 566 1593 c 128,-1,15
 614 1641 614 1641 679 1641 c 128,-1,16
 744 1641 744 1641 792 1593 c 128,-1,17
 840 1545 840 1545 840 1461 c 0,18,19
 840 1429 840 1429 835 1392 c 128,-1,20
 830 1355 830 1355 819 1311.5 c 128,-1,21
 808 1268 808 1268 799.5 1238 c 128,-1,22
 791 1208 791 1208 775.5 1156.5 c 128,-1,23
 760 1105 760 1105 754 1086 c 1,24,25
 769 1103 769 1103 814 1156.5 c 128,-1,26
 859 1210 859 1210 884 1238.5 c 128,-1,27
 909 1267 909 1267 948.5 1304.5 c 128,-1,28
 988 1342 988 1342 1021 1364 c 1,29,30
 1098 1409 1098 1409 1161.5 1396 c 128,-1,31
 1225 1383 1225 1383 1260 1328 c 1,32,33
 1283 1294 1283 1294 1286.5 1253 c 128,-1,34
 1290 1212 1290 1212 1268 1169 c 128,-1,35
 1246 1126 1246 1126 1199 1095 c 0,36,37
 1151 1063 1151 1063 1082.5 1037 c 128,-1,38
 1014 1011 1014 1011 919 983 c 128,-1,39
 824 955 824 955 795 945 c 1,40,41
 828 933 828 933 920.5 906 c 128,-1,42
 1013 879 1013 879 1082 852.5 c 128,-1,43
 1151 826 1151 826 1199 795 c 0,44,45
 1246 764 1246 764 1268 721 c 128,-1,46
 1290 678 1290 678 1286.5 637 c 128,-1,47
 1283 596 1283 596 1260 562 c 1,48,49
 1225 507 1225 507 1161.5 494 c 128,-1,50
 1098 481 1098 481 1021 526 c 1,51,52
 988 548 988 548 948 586 c 128,-1,53
 908 624 908 624 884.5 650.5 c 128,-1,54
 861 677 861 677 813.5 733.5 c 128,-1,55
 766 790 766 790 754 804 c 1,56,57
 758 791 758 791 780.5 716.5 c 128,-1,58
 803 642 803 642 811.5 610 c 128,-1,59
 820 578 820 578 830 523.5 c 128,-1,60
 840 469 840 469 840 429 c 0,61,62
 840 345 840 345 792 297 c 128,-1,63
 744 249 744 249 679 249 c 128,-1,64
 614 249 614 249 566 297 c 128,-1,65
 518 345 518 345 518 429 c 0,66,67
 518 469 518 469 528 522.5 c 128,-1,68
 538 576 538 576 547 611.5 c 128,-1,69
 556 647 556 647 576.5 715.5 c 128,-1,70
 597 784 597 784 603 804 c 1,71,72
 598 798 598 798 545 734.5 c 128,-1,73
 492 671 492 671 472 648.5 c 128,-1,74
 452 626 452 626 411 587 c 128,-1,75
 370 548 370 548 337 526 c 1,76,77
 260 481 260 481 196.5 494 c 128,-1,78
 133 507 133 507 98 562 c 1,79,80
 75 596 75 596 71.5 637 c 128,-1,81
 68 678 68 678 90 721 c 128,-1,82
 112 764 112 764 159 795 c 0,83,84
 207 826 207 826 276 852.5 c 128,-1,85
 345 879 345 879 437.5 906.5 c 128,-1,86
 530 934 530 934 562 945 c 1,87,88
 533 955 533 955 438 983 c 128,-1,89
 343 1011 343 1011 275 1037 c 128,-1,90
 207 1063 207 1063 159 1095 c 0,91,92
 112 1126 112 1126 90 1169 c 128,-1,93
 68 1212 68 1212 71.5 1253 c 128,-1,94
 75 1294 75 1294 98 1328 c 1,0,1
EndSplineSet
EndChar

StartChar: plus
Encoding: 43 43 14
Width: 910
GlyphClass: 2
Flags: W
LayerCount: 2
Fore
SplineSet
59 762 m 1,0,-1
 331 762 l 1,1,-1
 331 1051 l 1,2,-1
 586 1051 l 1,3,-1
 586 762 l 1,4,-1
 851 762 l 1,5,-1
 851 517 l 1,6,-1
 586 517 l 1,7,-1
 586 238 l 1,8,-1
 331 238 l 1,9,-1
 331 517 l 1,10,-1
 59 517 l 1,11,-1
 59 762 l 1,0,-1
EndSplineSet
EndChar

StartChar: comma
Encoding: 44 44 15
Width: 716
GlyphClass: 2
Flags: W
LayerCount: 2
Fore
SplineSet
95 -223 m 1,0,1
 140 -223 140 -223 173 -216.5 c 128,-1,2
 206 -210 206 -210 226.5 -194.5 c 128,-1,3
 247 -179 247 -179 259 -163 c 128,-1,4
 271 -147 271 -147 276.5 -117 c 128,-1,5
 282 -87 282 -87 283 -64.5 c 128,-1,6
 284 -42 284 -42 284 0 c 1,7,-1
 95 0 l 1,8,-1
 95 366 l 1,9,-1
 605 366 l 1,10,11
 629 212 629 212 629 89 c 0,12,13
 629 -189 629 -189 499 -318.5 c 128,-1,14
 369 -448 369 -448 95 -448 c 1,15,-1
 95 -223 l 1,0,1
EndSplineSet
EndChar

StartChar: hyphen
Encoding: 45 45 16
Width: 838
GlyphClass: 2
Flags: W
LayerCount: 2
Fore
SplineSet
742 836 m 1,0,-1
 742 537 l 1,1,-1
 95 537 l 1,2,-1
 95 836 l 1,3,-1
 742 836 l 1,0,-1
EndSplineSet
EndChar

StartChar: period
Encoding: 46 46 17
Width: 678
GlyphClass: 2
Flags: W
LayerCount: 2
Fore
SplineSet
335 -27 m 0,0,1
 216 -27 216 -27 137 40.5 c 128,-1,2
 58 108 58 108 58 223 c 0,3,4
 58 336 58 336 135.5 402 c 128,-1,5
 213 468 213 468 335 468 c 0,6,7
 462 468 462 468 542 402 c 128,-1,8
 622 336 622 336 622 223 c 0,9,10
 622 108 622 108 539.5 40.5 c 128,-1,11
 457 -27 457 -27 335 -27 c 0,0,1
EndSplineSet
EndChar

StartChar: slash
Encoding: 47 47 18
Width: 954
GlyphClass: 2
Flags: W
LayerCount: 2
Fore
SplineSet
52 0 m 1,0,-1
 543 1623 l 1,1,-1
 907 1623 l 1,2,-1
 405 0 l 1,3,-1
 52 0 l 1,0,-1
EndSplineSet
EndChar

StartChar: zero
Encoding: 48 48 19
Width: 1370
GlyphClass: 2
Flags: W
LayerCount: 2
Fore
SplineSet
68 695 m 0,0,1
 68 837 68 837 111.5 959.5 c 128,-1,2
 155 1082 155 1082 234 1171.5 c 128,-1,3
 313 1261 313 1261 429.5 1312.5 c 128,-1,4
 546 1364 546 1364 686 1365 c 1,5,6
 824 1364 824 1364 940.5 1312.5 c 128,-1,7
 1057 1261 1057 1261 1136 1171.5 c 128,-1,8
 1215 1082 1215 1082 1258.5 959.5 c 128,-1,9
 1302 837 1302 837 1302 695 c 0,10,11
 1302 479 1302 479 1235.5 319 c 128,-1,12
 1169 159 1169 159 1028.5 66 c 128,-1,13
 888 -27 888 -27 686 -26 c 1,14,15
 482 -27 482 -27 341.5 66 c 128,-1,16
 201 159 201 159 134.5 319 c 128,-1,17
 68 479 68 479 68 695 c 0,0,1
685 349 m 0,18,19
 729 349 729 349 757.5 380 c 128,-1,20
 786 411 786 411 798 466 c 128,-1,21
 810 521 810 521 813.5 565.5 c 128,-1,22
 817 610 817 610 817 669 c 0,23,24
 817 678 817 678 817 697 c 0,25,26
 817 724 817 724 817.5 752.5 c 128,-1,27
 818 781 818 781 815 810.5 c 128,-1,28
 812 840 812 840 808 867 c 128,-1,29
 804 894 804 894 794 918 c 128,-1,30
 784 942 784 942 770 960 c 128,-1,31
 756 978 756 978 734.5 988 c 128,-1,32
 713 998 713 998 685 998 c 0,33,34
 653 998 653 998 628.5 984.5 c 128,-1,35
 604 971 604 971 590.5 947.5 c 128,-1,36
 577 924 577 924 568 893.5 c 128,-1,37
 559 863 559 863 557 829.5 c 128,-1,38
 555 796 555 796 553 762 c 128,-1,39
 551 728 551 728 553 697 c 1,40,41
 553 678 553 678 553 669 c 0,42,43
 553 623 553 623 554.5 588 c 128,-1,44
 556 553 556 553 564 505 c 128,-1,45
 572 457 572 457 585 425.5 c 128,-1,46
 598 394 598 394 624 371.5 c 128,-1,47
 650 349 650 349 685 349 c 0,18,19
EndSplineSet
EndChar

StartChar: one
Encoding: 49 49 20
Width: 924
GlyphClass: 2
Flags: W
LayerCount: 2
Fore
SplineSet
137 0 m 1,0,-1
 136 325 l 1,1,-1
 226 324 l 1,2,-1
 226 951 l 1,3,-1
 62 950 l 1,4,-1
 62 1208 l 1,5,-1
 724 1375 l 1,6,-1
 730 324 l 1,7,-1
 826 324 l 1,8,-1
 826 0 l 1,9,-1
 137 0 l 1,0,-1
EndSplineSet
EndChar

StartChar: two
Encoding: 50 50 21
Width: 1330
GlyphClass: 2
Flags: W
LayerCount: 2
Fore
SplineSet
1260 0 m 1,0,-1
 1260 471 l 1,1,-1
 1087 471 l 1,2,3
 1087 426 1087 426 1070 396.5 c 128,-1,4
 1053 367 1053 367 1020.5 352 c 128,-1,5
 988 337 988 337 953.5 331 c 128,-1,6
 919 325 919 325 871 324 c 1,7,-1
 710 324 l 1,8,9
 797 389 797 389 838 420.5 c 128,-1,10
 879 452 879 452 954 519 c 128,-1,11
 1029 586 1029 586 1070 639 c 0,12,13
 1176 775 1176 775 1176 928 c 0,14,15
 1176 1034 1176 1034 1135 1120.5 c 128,-1,16
 1094 1207 1094 1207 1022.5 1263.5 c 128,-1,17
 951 1320 951 1320 857 1351.5 c 128,-1,18
 763 1383 763 1383 654 1387 c 0,19,20
 573 1390 573 1390 491.5 1373.5 c 128,-1,21
 410 1357 410 1357 336 1320.5 c 128,-1,22
 262 1284 262 1284 204.5 1232 c 128,-1,23
 147 1180 147 1180 113 1107 c 128,-1,24
 79 1034 79 1034 80 950 c 1,25,26
 77 844 77 844 114.5 749 c 128,-1,27
 152 654 152 654 228 586 c 1,28,-1
 454 760 l 1,29,30
 447 767 447 767 436.5 778.5 c 128,-1,31
 426 790 426 790 409 824 c 128,-1,32
 392 858 392 858 392 889 c 0,33,34
 392 951 392 951 427 991 c 128,-1,35
 462 1031 462 1031 527 1031 c 0,36,37
 580 1031 580 1031 620 983.5 c 128,-1,38
 660 936 660 936 664 859 c 1,39,40
 664 796 664 796 647.5 743.5 c 128,-1,41
 631 691 631 691 595 644 c 128,-1,42
 559 597 559 597 527.5 566 c 128,-1,43
 496 535 496 535 439 487 c 0,44,45
 310 377 310 377 117 303 c 1,46,-1
 117 0 l 1,47,-1
 1260 0 l 1,0,-1
EndSplineSet
EndChar

StartChar: three
Encoding: 51 51 22
Width: 1274
GlyphClass: 2
Flags: W
LayerCount: 2
Fore
SplineSet
83 424 m 1,0,-1
 83 78 l 1,1,2
 172 18 172 18 285.5 0 c 128,-1,3
 399 -18 399 -18 557 -18 c 0,4,5
 857 -18 857 -18 1031.5 110 c 128,-1,6
 1206 238 1206 238 1206 474 c 0,7,8
 1206 614 1206 614 1102.5 726 c 128,-1,9
 999 838 999 838 855 851 c 1,10,11
 1139 1085 1139 1085 1139 1088 c 2,12,-1
 1139 1352 l 1,13,-1
 70 1352 l 1,14,-1
 70 899 l 1,15,-1
 264 898 l 1,16,17
 285 978 285 978 300 1000 c 0,18,19
 329 1041 329 1041 401 1041 c 2,20,-1
 621 1041 l 1,21,-1
 621 1031 l 1,22,-1
 279 740 l 1,23,-1
 279 582 l 1,24,25
 279 582 279 582 280 577 c 1,26,27
 286 572 286 572 300 572 c 0,28,29
 306 572 306 572 347 582 c 128,-1,30
 388 592 388 592 427 592 c 0,31,32
 472 592 472 592 513 584 c 128,-1,33
 554 576 554 576 592 558 c 128,-1,34
 630 540 630 540 653 505.5 c 128,-1,35
 676 471 676 471 676 424 c 0,36,37
 676 383 676 383 655 353.5 c 128,-1,38
 634 324 634 324 599.5 308 c 128,-1,39
 565 292 565 292 528.5 285 c 128,-1,40
 492 278 492 278 453 278 c 0,41,42
 264 278 264 278 83 424 c 1,0,-1
EndSplineSet
EndChar

StartChar: four
Encoding: 52 52 23
Width: 1281
GlyphClass: 2
Flags: W
LayerCount: 2
Fore
SplineSet
1000 288 m 1,0,-1
 1122 288 l 1,1,-1
 1122 0 l 1,2,-1
 417 0 l 1,3,-1
 417 288 l 1,4,-1
 544 288 l 1,5,-1
 544 420 l 1,6,-1
 11 419 l 1,7,-1
 11 688 l 1,8,-1
 562 1342 l 1,9,-1
 1001 1341 l 1,10,-1
 1001 675 l 1,11,-1
 1228 677 l 1,12,-1
 1228 420 l 1,13,-1
 1000 420 l 1,14,-1
 1000 288 l 1,0,-1
544 677 m 1,15,-1
 544 911 l 1,16,-1
 355 678 l 1,17,-1
 544 677 l 1,15,-1
EndSplineSet
EndChar

StartChar: five
Encoding: 53 53 24
Width: 1167
GlyphClass: 2
Flags: W
LayerCount: 2
Fore
SplineSet
113 75 m 1,0,1
 159 30 159 30 269 6 c 128,-1,2
 379 -18 379 -18 478 -18 c 0,3,4
 580 -18 580 -18 671.5 1 c 128,-1,5
 763 20 763 20 842.5 62 c 128,-1,6
 922 104 922 104 979.5 165 c 128,-1,7
 1037 226 1037 226 1070 315 c 128,-1,8
 1103 404 1103 404 1103 513 c 0,9,10
 1103 697 1103 697 965.5 819 c 128,-1,11
 828 941 828 941 628 941 c 0,12,13
 572 941 572 941 519.5 936.5 c 128,-1,14
 467 932 467 932 442 928 c 2,15,-1
 417 924 l 1,16,-1
 417 1063 l 1,17,-1
 1028 1063 l 1,18,-1
 1028 1360 l 1,19,-1
 112 1360 l 1,20,-1
 112 566 l 1,21,-1
 124 555 l 1,22,23
 210 619 210 619 302 619 c 0,24,25
 361 619 361 619 416 603 c 128,-1,26
 471 587 471 587 512.5 546 c 128,-1,27
 554 505 554 505 554 446 c 0,28,29
 554 398 554 398 528 363 c 128,-1,30
 502 328 502 328 462.5 311.5 c 128,-1,31
 423 295 423 295 388.5 288 c 128,-1,32
 354 281 354 281 325 281 c 0,33,34
 291 281 291 281 238 297.5 c 128,-1,35
 185 314 185 314 149 330 c 2,36,-1
 113 347 l 1,37,-1
 113 75 l 1,0,1
EndSplineSet
EndChar

StartChar: six
Encoding: 54 54 25
Width: 1355
GlyphClass: 2
Flags: W
LayerCount: 2
Fore
SplineSet
588 1345 m 1,0,1
 574 1331 574 1331 533.5 1292 c 128,-1,2
 493 1253 493 1253 468.5 1229 c 128,-1,3
 444 1205 444 1205 400.5 1160 c 128,-1,4
 357 1115 357 1115 328 1082.5 c 128,-1,5
 299 1050 299 1050 259.5 1001.5 c 128,-1,6
 220 953 220 953 194 913 c 128,-1,7
 168 873 168 873 139.5 822.5 c 128,-1,8
 111 772 111 772 94 727 c 128,-1,9
 77 682 77 682 66 632 c 128,-1,10
 55 582 55 582 55 534 c 0,11,12
 55 370 55 370 139.5 243 c 128,-1,13
 224 116 224 116 366 49 c 128,-1,14
 508 -18 508 -18 682 -18 c 0,15,16
 844 -18 844 -18 985.5 54 c 128,-1,17
 1127 126 1127 126 1214 256 c 128,-1,18
 1301 386 1301 386 1302 544 c 0,19,20
 1304 755 1304 755 1174.5 883.5 c 128,-1,21
 1045 1012 1045 1012 829 1023 c 1,22,23
 839 1050 839 1050 911.5 1128.5 c 128,-1,24
 984 1207 984 1207 1054 1275.5 c 128,-1,25
 1124 1344 1124 1344 1124 1345 c 1,26,-1
 588 1345 l 1,0,1
571 550 m 0,27,28
 571 588 571 588 572 612 c 128,-1,29
 573 636 573 636 579.5 670 c 128,-1,30
 586 704 586 704 597.5 724 c 128,-1,31
 609 744 609 744 632 759 c 128,-1,32
 655 774 655 774 688 775 c 0,33,34
 718 775 718 775 739.5 756 c 128,-1,35
 761 737 761 737 770.5 714 c 128,-1,36
 780 691 780 691 785.5 652 c 128,-1,37
 791 613 791 613 791.5 594.5 c 128,-1,38
 792 576 792 576 792 544 c 0,39,40
 792 327 792 327 676 327 c 0,41,42
 642 327 642 327 619.5 351.5 c 128,-1,43
 597 376 597 376 587.5 415.5 c 128,-1,44
 578 455 578 455 574.5 486 c 128,-1,45
 571 517 571 517 571 550 c 0,27,28
EndSplineSet
EndChar

StartChar: seven
Encoding: 55 55 26
Width: 1232
GlyphClass: 2
Flags: W
LayerCount: 2
Fore
SplineSet
63 878 m 1,0,-1
 281 878 l 1,1,2
 281 963 281 963 312 991.5 c 128,-1,3
 343 1020 343 1020 412 1020 c 2,4,-1
 653 1020 l 1,5,-1
 148 0 l 1,6,-1
 680 0 l 1,7,-1
 1206 1067 l 1,8,-1
 1206 1337 l 1,9,-1
 63 1337 l 1,10,-1
 63 878 l 1,0,-1
EndSplineSet
EndChar

StartChar: eight
Encoding: 56 56 27
Width: 1322
GlyphClass: 2
Flags: W
LayerCount: 2
Fore
SplineSet
61 375 m 0,0,1
 61 630 61 630 322 730 c 1,2,3
 235 763 235 763 186.5 837 c 128,-1,4
 138 911 138 911 138 1010 c 0,5,6
 138 1096 138 1096 174 1163 c 128,-1,7
 210 1230 210 1230 264.5 1269.5 c 128,-1,8
 319 1309 319 1309 392 1334 c 128,-1,9
 465 1359 465 1359 530 1368 c 128,-1,10
 595 1377 595 1377 662 1378 c 1,11,12
 727 1377 727 1377 792 1368 c 128,-1,13
 857 1359 857 1359 930 1334 c 128,-1,14
 1003 1309 1003 1309 1057.5 1269.5 c 128,-1,15
 1112 1230 1112 1230 1148 1163 c 128,-1,16
 1184 1096 1184 1096 1184 1010 c 0,17,18
 1184 911 1184 911 1135.5 837 c 128,-1,19
 1087 763 1087 763 1000 730 c 1,20,21
 1261 630 1261 630 1261 375 c 0,22,23
 1261 282 1261 282 1221 210 c 128,-1,24
 1181 138 1181 138 1120.5 96 c 128,-1,25
 1060 54 1060 54 976.5 27 c 128,-1,26
 893 0 893 0 817.5 -9 c 128,-1,27
 742 -18 742 -18 661 -18 c 256,28,29
 580 -18 580 -18 504.5 -9 c 128,-1,30
 429 0 429 0 345.5 27 c 128,-1,31
 262 54 262 54 201.5 96 c 128,-1,32
 141 138 141 138 101 210 c 128,-1,33
 61 282 61 282 61 375 c 0,0,1
581 406 m 0,34,35
 581 240 581 240 661 240 c 256,36,37
 741 240 741 240 741 406 c 0,38,39
 741 578 741 578 663 578 c 0,40,41
 581 578 581 578 581 406 c 0,34,35
581 986 m 0,42,43
 581 824 581 824 663 826 c 1,44,45
 741 824 741 824 741 986 c 0,46,47
 741 1014 741 1014 738.5 1033.5 c 128,-1,48
 736 1053 736 1053 729 1075.5 c 128,-1,49
 722 1098 722 1098 704.5 1109.5 c 128,-1,50
 687 1121 687 1121 663 1122 c 1,51,52
 635 1121 635 1121 617.5 1109.5 c 128,-1,53
 600 1098 600 1098 593 1075.5 c 128,-1,54
 586 1053 586 1053 583.5 1033.5 c 128,-1,55
 581 1014 581 1014 581 986 c 0,42,43
EndSplineSet
EndChar

StartChar: nine
Encoding: 57 57 28
Width: 1357
GlyphClass: 2
Flags: W
LayerCount: 2
Fore
SplineSet
235 0 m 1,0,-1
 772 0 l 1,1,2
 794 23 794 23 842.5 72 c 128,-1,3
 891 121 891 121 927 157.5 c 128,-1,4
 963 194 963 194 1014 250 c 128,-1,5
 1065 306 1065 306 1102 353 c 128,-1,6
 1139 400 1139 400 1179.5 461 c 128,-1,7
 1220 522 1220 522 1245.5 576 c 128,-1,8
 1271 630 1271 630 1287.5 692.5 c 128,-1,9
 1304 755 1304 755 1304 813 c 0,10,11
 1304 971 1304 971 1224.5 1098 c 128,-1,12
 1145 1225 1145 1225 1005.5 1296.5 c 128,-1,13
 866 1368 866 1368 694 1368 c 0,14,15
 412 1368 412 1368 232.5 1202 c 128,-1,16
 53 1036 53 1036 53 782 c 0,17,18
 53 586 53 586 192 453.5 c 128,-1,19
 331 321 331 321 538 321 c 1,20,21
 497 269 497 269 421 189 c 128,-1,22
 345 109 345 109 290 54 c 2,23,-1
 235 0 l 1,0,-1
575 782 m 0,24,25
 575 1012 575 1012 686 1012 c 0,26,27
 716 1012 716 1012 737 986 c 128,-1,28
 758 960 758 960 766.5 919.5 c 128,-1,29
 775 879 775 879 778.5 848 c 128,-1,30
 782 817 782 817 782 790 c 0,31,32
 782 573 782 573 684 573 c 0,33,34
 575 573 575 573 575 782 c 0,24,25
EndSplineSet
EndChar

StartChar: colon
Encoding: 58 58 29
Width: 724
GlyphClass: 2
Flags: W
LayerCount: 2
Fore
SplineSet
357 596 m 0,0,1
 238 596 238 596 159 663.5 c 128,-1,2
 80 731 80 731 80 846 c 0,3,4
 80 959 80 959 157.5 1025 c 128,-1,5
 235 1091 235 1091 357 1091 c 0,6,7
 484 1091 484 1091 564 1025 c 128,-1,8
 644 959 644 959 644 846 c 0,9,10
 644 731 644 731 561.5 663.5 c 128,-1,11
 479 596 479 596 357 596 c 0,0,1
357 -18 m 0,12,13
 238 -18 238 -18 159 49.5 c 128,-1,14
 80 117 80 117 80 232 c 0,15,16
 80 345 80 345 157.5 411 c 128,-1,17
 235 477 235 477 357 477 c 0,18,19
 484 477 484 477 564 411 c 128,-1,20
 644 345 644 345 644 232 c 0,21,22
 644 117 644 117 561.5 49.5 c 128,-1,23
 479 -18 479 -18 357 -18 c 0,12,13
EndSplineSet
EndChar

StartChar: semicolon
Encoding: 59 59 30
Width: 720
GlyphClass: 2
Flags: W
LayerCount: 2
Fore
SplineSet
105 -448 m 1,0,1
 379 -448 379 -448 509 -318.5 c 128,-1,2
 639 -189 639 -189 639 89 c 0,3,4
 639 212 639 212 615 366 c 1,5,-1
 105 366 l 1,6,-1
 105 0 l 1,7,-1
 294 0 l 1,8,9
 294 -42 294 -42 293 -64.5 c 128,-1,10
 292 -87 292 -87 286.5 -117 c 128,-1,11
 281 -147 281 -147 269 -163 c 128,-1,12
 257 -179 257 -179 236.5 -194.5 c 128,-1,13
 216 -210 216 -210 183 -216.5 c 128,-1,14
 150 -223 150 -223 105 -223 c 1,15,-1
 105 -448 l 1,0,1
372 595 m 0,16,17
 253 595 253 595 174 662.5 c 128,-1,18
 95 730 95 730 95 845 c 0,19,20
 95 958 95 958 172.5 1024 c 128,-1,21
 250 1090 250 1090 372 1090 c 0,22,23
 499 1090 499 1090 579 1024 c 128,-1,24
 659 958 659 958 659 845 c 0,25,26
 659 730 659 730 576.5 662.5 c 128,-1,27
 494 595 494 595 372 595 c 0,16,17
EndSplineSet
EndChar

StartChar: less
Encoding: 60 60 31
Width: 909
GlyphClass: 2
Flags: W
LayerCount: 2
Fore
SplineSet
57 946 m 1,0,-1
 772 1542 l 1,1,-1
 772 1077 l 1,2,-1
 439 761 l 1,3,-1
 772 445 l 1,4,-1
 772 -20 l 1,5,-1
 57 576 l 1,6,-1
 57 946 l 1,0,-1
EndSplineSet
EndChar

StartChar: equal
Encoding: 61 61 32
Width: 844
GlyphClass: 2
Flags: W
LayerCount: 2
Fore
SplineSet
746 392 m 1,0,-1
 746 169 l 1,1,-1
 99 169 l 1,2,-1
 99 392 l 1,3,-1
 746 392 l 1,0,-1
746 761 m 1,4,-1
 746 538 l 1,5,-1
 99 538 l 1,6,-1
 99 761 l 1,7,-1
 746 761 l 1,4,-1
EndSplineSet
EndChar

StartChar: greater
Encoding: 62 62 33
Width: 909
GlyphClass: 2
Flags: W
LayerCount: 2
Fore
SplineSet
852 576 m 1,0,-1
 137 -20 l 1,1,-1
 137 445 l 1,2,-1
 470 761 l 1,3,-1
 137 1077 l 1,4,-1
 137 1542 l 1,5,-1
 852 946 l 1,6,-1
 852 576 l 1,0,-1
EndSplineSet
EndChar

StartChar: question
Encoding: 63 63 34
Width: 1311
GlyphClass: 2
Flags: W
LayerCount: 2
Fore
SplineSet
359 891 m 1,0,1
 755 1070 755 1070 755 1249 c 0,2,3
 755 1265 755 1265 751.5 1283.5 c 128,-1,4
 748 1302 748 1302 739.5 1326 c 128,-1,5
 731 1350 731 1350 710 1365.5 c 128,-1,6
 689 1381 689 1381 659 1381 c 0,7,8
 539 1381 539 1381 529 1219 c 1,9,-1
 57 1219 l 1,10,11
 71 1445 71 1445 240.5 1591 c 128,-1,12
 410 1737 410 1737 667 1737 c 0,13,14
 836 1737 836 1737 973.5 1677 c 128,-1,15
 1111 1617 1111 1617 1189 1510.5 c 128,-1,16
 1267 1404 1267 1404 1267 1272 c 0,17,18
 1267 1204 1267 1204 1247.5 1143 c 128,-1,19
 1228 1082 1228 1082 1198 1035.5 c 128,-1,20
 1168 989 1168 989 1120.5 946 c 128,-1,21
 1073 903 1073 903 1027.5 873 c 128,-1,22
 982 843 982 843 920.5 813.5 c 128,-1,23
 859 784 859 784 812.5 765.5 c 128,-1,24
 766 747 766 747 705 726 c 1,25,-1
 705 539 l 1,26,-1
 358 539 l 1,27,-1
 359 891 l 1,0,1
538 -27 m 0,28,29
 419 -27 419 -27 340 40.5 c 128,-1,30
 261 108 261 108 261 223 c 0,31,32
 261 336 261 336 338.5 402 c 128,-1,33
 416 468 416 468 538 468 c 0,34,35
 665 468 665 468 745 402 c 128,-1,36
 825 336 825 336 825 223 c 0,37,38
 825 108 825 108 742.5 40.5 c 128,-1,39
 660 -27 660 -27 538 -27 c 0,28,29
EndSplineSet
EndChar

StartChar: at
Encoding: 64 64 35
Width: 1899
GlyphClass: 2
Flags: W
LayerCount: 2
Fore
SplineSet
1399 398 m 1,0,1
 1423 398 1423 398 1442 402.5 c 128,-1,2
 1461 407 1461 407 1484 423.5 c 128,-1,3
 1507 440 1507 440 1522 468.5 c 128,-1,4
 1537 497 1537 497 1547 550.5 c 128,-1,5
 1557 604 1557 604 1557 677 c 0,6,7
 1557 877 1557 877 1412 997 c 128,-1,8
 1267 1117 1267 1117 987 1117 c 0,9,10
 703 1117 703 1117 550 968 c 128,-1,11
 397 819 397 819 397 567 c 0,12,13
 397 456 397 456 437.5 360.5 c 128,-1,14
 478 265 478 265 556 192.5 c 128,-1,15
 634 120 634 120 757.5 78.5 c 128,-1,16
 881 37 881 37 1037 37 c 0,17,18
 1124 37 1124 37 1200 59 c 1,19,-1
 1252 -169 l 1,20,21
 1142 -198 1142 -198 1037 -198 c 0,22,23
 813 -198 813 -198 630 -137.5 c 128,-1,24
 447 -77 447 -77 328.5 27.5 c 128,-1,25
 210 132 210 132 146 270.5 c 128,-1,26
 82 409 82 409 82 567 c 0,27,28
 82 733 82 733 143 878.5 c 128,-1,29
 204 1024 204 1024 317 1134 c 128,-1,30
 430 1244 430 1244 603 1308 c 128,-1,31
 776 1372 776 1372 987 1372 c 0,32,33
 1184 1372 1184 1372 1347 1317.5 c 128,-1,34
 1510 1263 1510 1263 1617.5 1168.5 c 128,-1,35
 1725 1074 1725 1074 1783.5 947.5 c 128,-1,36
 1842 821 1842 821 1842 677 c 0,37,38
 1842 572 1842 572 1809.5 487.5 c 128,-1,39
 1777 403 1777 403 1709.5 338.5 c 128,-1,40
 1642 274 1642 274 1530 239 c 128,-1,41
 1418 204 1418 204 1267 204 c 2,42,-1
 1117 204 l 1,43,-1
 1079 294 l 1,44,45
 1044 245 1044 245 983.5 217.5 c 128,-1,46
 923 190 923 190 866 190 c 0,47,48
 747 190 747 190 663.5 299.5 c 128,-1,49
 580 409 580 409 580 588 c 0,50,51
 580 665 580 665 604 730.5 c 128,-1,52
 628 796 628 796 676.5 849.5 c 128,-1,53
 725 903 725 903 809.5 933.5 c 128,-1,54
 894 964 894 964 1005 964 c 0,55,56
 1034 964 1034 964 1057 963 c 128,-1,57
 1080 962 1080 962 1123.5 954.5 c 128,-1,58
 1167 947 1167 947 1200 934 c 128,-1,59
 1233 921 1233 921 1272.5 894 c 128,-1,60
 1312 867 1312 867 1337.5 830.5 c 128,-1,61
 1363 794 1363 794 1380.5 735 c 128,-1,62
 1398 676 1398 676 1398 603 c 2,63,-1
 1399 398 l 1,0,1
923 582 m 0,64,65
 923 489 923 489 943 431.5 c 128,-1,66
 963 374 963 374 996 374 c 0,67,68
 1051 374 1051 374 1079 409 c 1,69,-1
 1079 671 l 2,70,71
 1079 754 1079 754 1062 785.5 c 128,-1,72
 1045 817 1045 817 1003 817 c 0,73,74
 978 817 978 817 961.5 797.5 c 128,-1,75
 945 778 945 778 937 742 c 128,-1,76
 929 706 929 706 926 669 c 128,-1,77
 923 632 923 632 923 582 c 0,64,65
EndSplineSet
EndChar

StartChar: A
Encoding: 65 65 36
Width: 1643
GlyphClass: 2
Flags: W
LayerCount: 2
Fore
SplineSet
1185 1623 m 1,0,-1
 191 1623 l 1,1,-1
 191 1270 l 1,2,-1
 403 1270 l 1,3,-1
 231 591 l 2,4,5
 204 486 204 486 193 462 c 0,6,7
 160 386 160 386 82 367 c 0,8,9
 48 359 48 359 4 359 c 1,10,-1
 4 0 l 1,11,-1
 682 0 l 1,12,-1
 682 359 l 1,13,-1
 598 359 l 2,14,15
 577 359 577 359 566 395 c 128,-1,16
 555 431 555 431 555 459 c 1,17,18
 556 480 556 480 557 491 c 128,-1,19
 558 502 558 502 565 512.5 c 128,-1,20
 572 523 572 523 585 523 c 2,21,-1
 860 523 l 2,22,23
 927 523 927 523 927 359 c 1,24,-1
 807 359 l 1,25,-1
 808 0 l 1,26,-1
 1634 0 l 1,27,-1
 1634 359 l 1,28,-1
 1548 359 l 2,29,30
 1533 359 1533 359 1522 371.5 c 128,-1,31
 1511 384 1511 384 1505.5 400 c 128,-1,32
 1500 416 1500 416 1492 447 c 2,33,-1
 1185 1623 l 1,0,-1
612 773 m 1,34,-1
 724 1281 l 1,35,-1
 841 773 l 1,36,-1
 612 773 l 1,34,-1
EndSplineSet
EndChar

StartChar: B
Encoding: 66 66 37
Width: 1666
GlyphClass: 2
Flags: W
LayerCount: 2
Fore
SplineSet
89 0 m 1,0,-1
 1031 0 l 2,1,2
 1160 0 1160 0 1263.5 23 c 128,-1,3
 1367 46 1367 46 1447.5 94.5 c 128,-1,4
 1528 143 1528 143 1572 225.5 c 128,-1,5
 1616 308 1616 308 1616 420 c 0,6,7
 1616 589 1616 589 1534 697 c 128,-1,8
 1452 805 1452 805 1302 848 c 1,9,-1
 1302 850 l 1,10,11
 1411 891 1411 891 1479 985.5 c 128,-1,12
 1547 1080 1547 1080 1547 1204 c 0,13,14
 1547 1304 1547 1304 1517 1378 c 128,-1,15
 1487 1452 1487 1452 1434.5 1499 c 128,-1,16
 1382 1546 1382 1546 1299.5 1574 c 128,-1,17
 1217 1602 1217 1602 1124.5 1612.5 c 128,-1,18
 1032 1623 1032 1623 910 1623 c 2,19,-1
 96 1622 l 1,20,-1
 96 1270 l 1,21,-1
 262 1270 l 1,22,-1
 261 359 l 1,23,-1
 89 359 l 1,24,-1
 89 0 l 1,0,-1
863 700 m 0,25,26
 892 700 892 700 915 697.5 c 128,-1,27
 938 695 938 695 966.5 684.5 c 128,-1,28
 995 674 995 674 1014.5 656 c 128,-1,29
 1034 638 1034 638 1047.5 605 c 128,-1,30
 1061 572 1061 572 1061 527 c 0,31,32
 1061 502 1061 502 1057.5 481 c 128,-1,33
 1054 460 1054 460 1047.5 444.5 c 128,-1,34
 1041 429 1041 429 1032 416 c 128,-1,35
 1023 403 1023 403 1011.5 394.5 c 128,-1,36
 1000 386 1000 386 986 379.5 c 128,-1,37
 972 373 972 373 956.5 369.5 c 128,-1,38
 941 366 941 366 924 363.5 c 128,-1,39
 907 361 907 361 888.5 360 c 128,-1,40
 870 359 870 359 850.5 358.5 c 128,-1,41
 831 358 831 358 811 359 c 0,42,43
 796 359 796 359 789 359 c 1,44,-1
 789 699 l 1,45,46
 852 700 852 700 863 700 c 0,25,26
789 1270 m 1,47,-1
 915 1270 l 2,48,49
 971 1270 971 1270 1012 1234 c 128,-1,50
 1053 1198 1053 1198 1053 1131 c 0,51,52
 1053 1076 1053 1076 1036.5 1040.5 c 128,-1,53
 1020 1005 1020 1005 986 988.5 c 128,-1,54
 952 972 952 972 917.5 966.5 c 128,-1,55
 883 961 883 961 830 961 c 2,56,-1
 789 961 l 1,57,-1
 789 1270 l 1,47,-1
EndSplineSet
EndChar

StartChar: C
Encoding: 67 67 38
Width: 1538
GlyphClass: 2
Flags: W
LayerCount: 2
Fore
SplineSet
1456 612 m 1,0,-1
 1155 612 l 1,1,2
 1151 538 1151 538 1147 518 c 0,3,4
 1132 438 1132 438 1070.5 390.5 c 128,-1,5
 1009 343 1009 343 928 343 c 0,6,7
 867 343 867 343 821 365 c 128,-1,8
 775 387 775 387 749.5 424 c 128,-1,9
 724 461 724 461 706.5 509 c 128,-1,10
 689 557 689 557 685 609 c 128,-1,11
 681 661 681 661 678 713.5 c 128,-1,12
 675 766 675 766 678 811 c 1,13,14
 678 841 678 841 678 855 c 0,15,16
 678 902 678 902 679 935 c 128,-1,17
 680 968 680 968 685 1017 c 128,-1,18
 690 1066 690 1066 699 1100.5 c 128,-1,19
 708 1135 708 1135 726 1173 c 128,-1,20
 744 1211 744 1211 768.5 1235 c 128,-1,21
 793 1259 793 1259 830.5 1274.5 c 128,-1,22
 868 1290 868 1290 915 1290 c 0,23,24
 978 1290 978 1290 1026 1262.5 c 128,-1,25
 1074 1235 1074 1235 1100 1190 c 128,-1,26
 1126 1145 1126 1145 1138 1094.5 c 128,-1,27
 1150 1044 1150 1044 1149 991 c 1,28,-1
 1447 991 l 1,29,-1
 1446 1623 l 1,30,-1
 1135 1623 l 1,31,-1
 1101 1552 l 1,32,33
 1056 1595 1056 1595 988.5 1618.5 c 128,-1,34
 921 1642 921 1642 868 1647 c 128,-1,35
 815 1652 815 1652 741 1652 c 0,36,37
 600 1652 600 1652 484 1603 c 128,-1,38
 368 1554 368 1554 290 1472 c 128,-1,39
 212 1390 212 1390 158.5 1279.5 c 128,-1,40
 105 1169 105 1169 81 1050 c 128,-1,41
 57 931 57 931 57 804 c 0,42,43
 57 552 57 552 142.5 366.5 c 128,-1,44
 228 181 228 181 402.5 76 c 128,-1,45
 577 -29 577 -29 825 -29 c 0,46,47
 929 -29 929 -29 1032.5 -5 c 128,-1,48
 1136 19 1136 19 1209 52.5 c 128,-1,49
 1282 86 1282 86 1340 120 c 128,-1,50
 1398 154 1398 154 1427 178 c 2,51,-1
 1456 202 l 1,52,-1
 1456 612 l 1,0,-1
EndSplineSet
EndChar

StartChar: D
Encoding: 68 68 39
Width: 1801
GlyphClass: 2
Flags: W
LayerCount: 2
Fore
SplineSet
98 0 m 1,0,-1
 900 0 l 2,1,2
 1102 0 1102 0 1265 67 c 128,-1,3
 1428 134 1428 134 1531 247.5 c 128,-1,4
 1634 361 1634 361 1689 507 c 128,-1,5
 1744 653 1744 653 1744 816 c 0,6,7
 1744 1212 1744 1212 1539 1417.5 c 128,-1,8
 1334 1623 1334 1623 922 1623 c 2,9,-1
 92 1623 l 1,10,-1
 92 1271 l 1,11,-1
 261 1271 l 1,12,-1
 261 359 l 1,13,-1
 98 359 l 1,14,-1
 98 0 l 1,0,-1
808 359 m 1,15,-1
 808 1271 l 1,16,-1
 855 1271 l 2,17,18
 929 1271 929 1271 984 1242.5 c 128,-1,19
 1039 1214 1039 1214 1070 1170.5 c 128,-1,20
 1101 1127 1101 1127 1119.5 1064 c 128,-1,21
 1138 1001 1138 1001 1144 943.5 c 128,-1,22
 1150 886 1150 886 1150 817 c 0,23,24
 1150 750 1150 750 1142.5 690 c 128,-1,25
 1135 630 1135 630 1114 567.5 c 128,-1,26
 1093 505 1093 505 1060 460.5 c 128,-1,27
 1027 416 1027 416 971.5 387.5 c 128,-1,28
 916 359 916 359 843 359 c 2,29,-1
 808 359 l 1,15,-1
EndSplineSet
EndChar

StartChar: E
Encoding: 69 69 40
Width: 1490
GlyphClass: 2
Flags: W
LayerCount: 2
Fore
SplineSet
1099 968 m 1,0,-1
 1023 1270 l 1,1,-1
 810 1270 l 1,2,-1
 810 988 l 1,3,-1
 1015 988 l 1,4,-1
 1015 636 l 1,5,-1
 810 636 l 1,6,-1
 810 359 l 1,7,-1
 1029 359 l 1,8,-1
 1042 420 l 1,9,-1
 1105 687 l 1,10,-1
 1378 687 l 1,11,-1
 1378 0 l 1,12,-1
 99 0 l 1,13,-1
 99 359 l 1,14,-1
 257 359 l 1,15,-1
 257 1270 l 1,16,-1
 99 1270 l 1,17,-1
 99 1623 l 1,18,-1
 1367 1623 l 1,19,-1
 1367 969 l 1,20,-1
 1099 968 l 1,0,-1
EndSplineSet
EndChar

StartChar: F
Encoding: 70 70 41
Width: 1407
GlyphClass: 2
Flags: W
LayerCount: 2
Fore
SplineSet
1025 643 m 1,0,-1
 823 643 l 1,1,-1
 823 359 l 1,2,-1
 977 359 l 1,3,-1
 977 0 l 1,4,-1
 100 0 l 1,5,-1
 100 359 l 1,6,-1
 258 359 l 1,7,-1
 258 1270 l 1,8,-1
 100 1270 l 1,9,-1
 100 1623 l 1,10,-1
 1375 1623 l 1,11,-1
 1375 959 l 1,12,-1
 1091 959 l 1,13,-1
 1027 1270 l 1,14,-1
 823 1270 l 1,15,-1
 823 999 l 1,16,-1
 1025 999 l 1,17,-1
 1025 643 l 1,0,-1
EndSplineSet
EndChar

StartChar: G
Encoding: 71 71 42
Width: 1720
GlyphClass: 2
Flags: W
LayerCount: 2
Fore
SplineSet
1344 0 m 1,0,-1
 1620 0 l 1,1,-1
 1620 862 l 1,2,-1
 995 862 l 1,3,-1
 995 558 l 1,4,-1
 1155 557 l 1,5,6
 1163 528 1163 528 1163 476 c 0,7,8
 1163 403 1163 403 1106 360.5 c 128,-1,9
 1049 318 1049 318 973 318 c 0,10,11
 658 318 658 318 658 759 c 0,12,13
 658 822 658 822 662 874.5 c 128,-1,14
 666 927 666 927 677 990.5 c 128,-1,15
 688 1054 688 1054 710.5 1102.5 c 128,-1,16
 733 1151 733 1151 767 1193 c 128,-1,17
 801 1235 801 1235 855 1257.5 c 128,-1,18
 909 1280 909 1280 979 1280 c 0,19,20
 1042 1280 1042 1280 1089.5 1261.5 c 128,-1,21
 1137 1243 1137 1243 1165.5 1214.5 c 128,-1,22
 1194 1186 1194 1186 1214 1139 c 128,-1,23
 1234 1092 1234 1092 1243.5 1049 c 128,-1,24
 1253 1006 1253 1006 1260 945 c 1,25,-1
 1548 945 l 1,26,-1
 1548 1623 l 1,27,-1
 1233 1623 l 1,28,-1
 1189 1561 l 1,29,30
 1061 1652 1061 1652 856 1652 c 0,31,32
 665 1652 665 1652 510.5 1584 c 128,-1,33
 356 1516 356 1516 257 1398 c 128,-1,34
 158 1280 158 1280 105.5 1125 c 128,-1,35
 53 970 53 970 53 792 c 0,36,37
 53 638 53 638 95.5 506 c 128,-1,38
 138 374 138 374 215 276.5 c 128,-1,39
 292 179 292 179 398 110 c 128,-1,40
 504 41 504 41 633 6 c 128,-1,41
 762 -29 762 -29 907 -29 c 0,42,43
 1157 -29 1157 -29 1302 101 c 1,44,-1
 1344 0 l 1,0,-1
EndSplineSet
EndChar

StartChar: H
Encoding: 72 72 43
Width: 1908
GlyphClass: 2
Flags: W
LayerCount: 2
Fore
SplineSet
105 359 m 1,0,-1
 252 359 l 1,1,-1
 252 1270 l 1,2,-1
 105 1270 l 1,3,-1
 105 1623 l 1,4,-1
 914 1623 l 1,5,-1
 914 1270 l 1,6,-1
 819 1270 l 1,7,-1
 819 986 l 1,8,-1
 1088 986 l 1,9,-1
 1088 1270 l 1,10,-1
 1000 1270 l 1,11,-1
 1000 1623 l 1,12,-1
 1798 1623 l 1,13,-1
 1798 1270 l 1,14,-1
 1657 1270 l 1,15,-1
 1657 359 l 1,16,-1
 1804 359 l 1,17,-1
 1804 0 l 1,18,-1
 1004 0 l 1,19,-1
 1004 359 l 1,20,-1
 1088 359 l 1,21,-1
 1088 635 l 1,22,-1
 819 635 l 1,23,-1
 819 359 l 1,24,-1
 915 359 l 1,25,-1
 914 0 l 1,26,-1
 105 0 l 1,27,-1
 105 359 l 1,0,-1
EndSplineSet
EndChar

StartChar: I
Encoding: 73 73 44
Width: 1076
GlyphClass: 2
Flags: W
LayerCount: 2
Fore
SplineSet
972 1270 m 1,0,-1
 825 1270 l 1,1,-1
 825 359 l 1,2,-1
 966 359 l 1,3,-1
 966 0 l 1,4,-1
 104 0 l 1,5,-1
 104 359 l 1,6,-1
 251 359 l 1,7,-1
 251 1270 l 1,8,-1
 108 1270 l 1,9,-1
 108 1623 l 1,10,-1
 972 1623 l 1,11,-1
 972 1270 l 1,0,-1
EndSplineSet
EndChar

StartChar: J
Encoding: 74 74 45
Width: 1314
GlyphClass: 2
Flags: W
LayerCount: 2
Fore
SplineSet
30 -13 m 1,0,-1
 300 -13 l 1,1,-1
 337 79 l 1,2,3
 426 -30 426 -30 625 -30 c 0,4,5
 859 -30 859 -30 990 107.5 c 128,-1,6
 1121 245 1121 245 1121 475 c 2,7,-1
 1121 1270 l 1,8,-1
 1268 1270 l 1,9,-1
 1268 1623 l 1,10,-1
 414 1623 l 1,11,-1
 414 1270 l 1,12,-1
 568 1270 l 1,13,-1
 568 572 l 2,14,15
 568 462 568 462 541 413.5 c 128,-1,16
 514 365 514 365 457 365 c 0,17,18
 432 365 432 365 411.5 376 c 128,-1,19
 391 387 391 387 378.5 402 c 128,-1,20
 366 417 366 417 357 443 c 128,-1,21
 348 469 348 469 343.5 489 c 128,-1,22
 339 509 339 509 337 541 c 128,-1,23
 335 573 335 573 334.5 589 c 128,-1,24
 334 605 334 605 334 633 c 1,25,-1
 30 633 l 1,26,-1
 30 -13 l 1,0,-1
EndSplineSet
EndChar

StartChar: K
Encoding: 75 75 46
Width: 1799
GlyphClass: 2
Flags: W
LayerCount: 2
Fore
SplineSet
105 1622 m 1,0,-1
 926 1622 l 1,1,-1
 926 1270 l 1,2,-1
 799 1270 l 1,3,-1
 799 887 l 1,4,-1
 1086 1270 l 1,5,-1
 1086 1622 l 1,6,-1
 1710 1623 l 1,7,-1
 1710 1270 l 1,8,-1
 1573 1270 l 1,9,-1
 1254 864 l 1,10,-1
 1254 850 l 1,11,12
 1332 850 1332 850 1392 838 c 128,-1,13
 1452 826 1452 826 1500.5 799 c 128,-1,14
 1549 772 1549 772 1574.5 722.5 c 128,-1,15
 1600 673 1600 673 1600 602 c 2,16,-1
 1600 461 l 2,17,18
 1600 426 1600 426 1618 392.5 c 128,-1,19
 1636 359 1636 359 1667 359 c 2,20,-1
 1757 359 l 1,21,-1
 1763 0 l 1,22,-1
 1415 0 l 2,23,24
 1079 0 1079 0 1079 307 c 2,25,-1
 1079 492 l 2,26,27
 1079 540 1079 540 1047 590 c 128,-1,28
 1015 640 1015 640 969 640 c 2,29,-1
 799 640 l 1,30,-1
 799 359 l 1,31,-1
 926 359 l 1,32,-1
 932 35 l 1,33,-1
 932 0 l 1,34,-1
 105 0 l 1,35,-1
 105 359 l 1,36,-1
 252 359 l 1,37,-1
 252 1270 l 1,38,-1
 105 1270 l 1,39,-1
 105 1622 l 1,0,-1
EndSplineSet
EndChar

StartChar: L
Encoding: 76 76 47
Width: 1421
GlyphClass: 2
Flags: W
LayerCount: 2
Fore
SplineSet
818 359 m 1,0,-1
 1009 359 l 1,1,-1
 1096 709 l 1,2,-1
 1382 709 l 1,3,-1
 1382 0 l 1,4,-1
 109 0 l 1,5,-1
 108 359 l 1,6,-1
 251 359 l 1,7,-1
 251 1270 l 1,8,-1
 104 1270 l 1,9,-1
 104 1622 l 1,10,-1
 972 1622 l 1,11,-1
 972 1270 l 1,12,-1
 818 1270 l 1,13,-1
 818 359 l 1,0,-1
EndSplineSet
EndChar

StartChar: M
Encoding: 77 77 48
Width: 2408
GlyphClass: 2
Flags: W
LayerCount: 2
Fore
SplineSet
589 999 m 1,0,-1
 1005 0 l 1,1,-1
 1286 0 l 1,2,-1
 1628 977 l 1,3,-1
 1628 359 l 1,4,-1
 1505 359 l 1,5,-1
 1505 0 l 1,6,-1
 2308 0 l 1,7,-1
 2308 359 l 1,8,-1
 2154 359 l 1,9,-1
 2154 1270 l 1,10,-1
 2301 1270 l 1,11,-1
 2301 1623 l 1,12,-1
 1517 1623 l 1,13,-1
 1241 856 l 1,14,-1
 931 1623 l 1,15,-1
 96 1623 l 1,16,-1
 97 1270 l 1,17,-1
 264 1270 l 1,18,-1
 264 608 l 2,19,20
 264 574 264 574 264 557.5 c 128,-1,21
 264 541 264 541 262.5 513.5 c 128,-1,22
 261 486 261 486 258 473 c 128,-1,23
 255 460 255 460 249.5 440 c 128,-1,24
 244 420 244 420 236 410.5 c 128,-1,25
 228 401 228 401 215.5 389 c 128,-1,26
 203 377 203 377 187 372 c 128,-1,27
 171 367 171 367 149 363 c 128,-1,28
 127 359 127 359 100 359 c 1,29,-1
 100 0 l 1,30,-1
 751 0 l 1,31,-1
 751 359 l 1,32,33
 724 359 724 359 702 362.5 c 128,-1,34
 680 366 680 366 664 370.5 c 128,-1,35
 648 375 648 375 636 385 c 128,-1,36
 624 395 624 395 616 402 c 128,-1,37
 608 409 608 409 602.5 424.5 c 128,-1,38
 597 440 597 440 594.5 448.5 c 128,-1,39
 592 457 592 457 590.5 476.5 c 128,-1,40
 589 496 589 496 589 505 c 128,-1,41
 589 514 589 514 589 535 c 2,42,-1
 589 999 l 1,0,-1
EndSplineSet
EndChar

StartChar: N
Encoding: 78 78 49
Width: 1874
GlyphClass: 2
Flags: W
LayerCount: 2
Fore
SplineSet
1814 1622 m 1,0,-1
 1177 1623 l 1,1,-1
 1177 1270 l 1,2,3
 1216 1271 1216 1271 1245 1266 c 128,-1,4
 1274 1261 1274 1261 1290.5 1247.5 c 128,-1,5
 1307 1234 1307 1234 1317 1221.5 c 128,-1,6
 1327 1209 1327 1209 1330.5 1186.5 c 128,-1,7
 1334 1164 1334 1164 1334.5 1152 c 128,-1,8
 1335 1140 1335 1140 1335 1116 c 2,9,-1
 1335 647 l 1,10,-1
 839 1623 l 1,11,-1
 104 1623 l 1,12,-1
 104 1272 l 1,13,-1
 261 1272 l 1,14,-1
 261 550 l 2,15,16
 261 512 261 512 259 490 c 128,-1,17
 257 468 257 468 248.5 439.5 c 128,-1,18
 240 411 240 411 223.5 396 c 128,-1,19
 207 381 207 381 175.5 370 c 128,-1,20
 144 359 144 359 98 359 c 1,21,-1
 98 0 l 1,22,-1
 735 0 l 1,23,-1
 735 359 l 1,24,25
 650 359 650 359 613.5 392 c 128,-1,26
 577 425 577 425 577 507 c 2,27,-1
 577 908 l 1,28,-1
 1050 0 l 1,29,-1
 1656 0 l 1,30,-1
 1656 1118 l 2,31,32
 1656 1192 1656 1192 1692.5 1231 c 128,-1,33
 1729 1270 1729 1270 1814 1270 c 1,34,-1
 1814 1622 l 1,0,-1
EndSplineSet
EndChar

StartChar: O
Encoding: 79 79 50
Width: 1744
GlyphClass: 2
Flags: W
LayerCount: 2
Fore
SplineSet
1692 808 m 0,0,1
 1692 573 1692 573 1584.5 381 c 128,-1,2
 1477 189 1477 189 1289 80 c 128,-1,3
 1101 -29 1101 -29 872 -29 c 256,4,5
 643 -29 643 -29 455 80 c 128,-1,6
 267 189 267 189 159.5 381 c 128,-1,7
 52 573 52 573 52 808 c 0,8,9
 52 1066 52 1066 159.5 1259.5 c 128,-1,10
 267 1453 267 1453 451.5 1553 c 128,-1,11
 636 1653 636 1653 874 1653 c 0,12,13
 1108 1653 1108 1653 1292.5 1553 c 128,-1,14
 1477 1453 1477 1453 1584.5 1259.5 c 128,-1,15
 1692 1066 1692 1066 1692 808 c 0,0,1
872 319 m 0,16,17
 911 319 911 319 942 332 c 128,-1,18
 973 345 973 345 994.5 368 c 128,-1,19
 1016 391 1016 391 1032 422 c 128,-1,20
 1048 453 1048 453 1057 489.5 c 128,-1,21
 1066 526 1066 526 1072 565 c 128,-1,22
 1078 604 1078 604 1079.5 643.5 c 128,-1,23
 1081 683 1081 683 1082 721 c 128,-1,24
 1083 759 1083 759 1082 793 c 0,25,26
 1082 813 1082 813 1082 823 c 0,27,28
 1082 834 1082 834 1082 858 c 0,29,30
 1081 894 1081 894 1082 934 c 128,-1,31
 1083 974 1083 974 1078.5 1016.5 c 128,-1,32
 1074 1059 1074 1059 1067.5 1099 c 128,-1,33
 1061 1139 1061 1139 1045 1175 c 128,-1,34
 1029 1211 1029 1211 1007.5 1238 c 128,-1,35
 986 1265 986 1265 951 1280.5 c 128,-1,36
 916 1296 916 1296 872 1296 c 0,37,38
 833 1296 833 1296 801.5 1284 c 128,-1,39
 770 1272 770 1272 749 1250.5 c 128,-1,40
 728 1229 728 1229 711.5 1200.5 c 128,-1,41
 695 1172 695 1172 686.5 1138.5 c 128,-1,42
 678 1105 678 1105 671.5 1068.5 c 128,-1,43
 665 1032 665 1032 664 995.5 c 128,-1,44
 663 959 663 959 661.5 924 c 128,-1,45
 660 889 660 889 662 858 c 1,46,47
 662 834 662 834 662 823 c 0,48,49
 662 813 662 813 662 793 c 0,50,51
 663 763 663 763 662 730 c 128,-1,52
 661 697 661 697 663.5 661.5 c 128,-1,53
 666 626 666 626 669 591 c 128,-1,54
 672 556 672 556 679.5 522 c 128,-1,55
 687 488 687 488 697 458 c 128,-1,56
 707 428 707 428 723 402.5 c 128,-1,57
 739 377 739 377 759.5 358.5 c 128,-1,58
 780 340 780 340 809 329.5 c 128,-1,59
 838 319 838 319 872 319 c 0,16,17
EndSplineSet
EndChar

StartChar: P
Encoding: 80 80 51
Width: 1651
GlyphClass: 2
Flags: W
LayerCount: 2
Fore
SplineSet
99 0 m 1,0,-1
 960 0 l 1,1,-1
 960 359 l 1,2,-1
 814 359 l 1,3,-1
 814 569 l 1,4,5
 893 559 893 559 964 559 c 0,6,7
 1117 559 1117 559 1235.5 588 c 128,-1,8
 1354 617 1354 617 1443.5 680 c 128,-1,9
 1533 743 1533 743 1579.5 850.5 c 128,-1,10
 1626 958 1626 958 1624 1106 c 0,11,12
 1623 1191 1623 1191 1607.5 1261 c 128,-1,13
 1592 1331 1592 1331 1565 1381.5 c 128,-1,14
 1538 1432 1538 1432 1500 1472 c 128,-1,15
 1462 1512 1462 1512 1416 1537 c 128,-1,16
 1370 1562 1370 1562 1316.5 1580 c 128,-1,17
 1263 1598 1263 1598 1204 1605.5 c 128,-1,18
 1145 1613 1145 1613 1082.5 1618.5 c 128,-1,19
 1020 1624 1020 1624 955 1623 c 128,-1,20
 890 1622 890 1622 825 1623 c 0,21,22
 809 1623 809 1623 800.5 1623 c 128,-1,23
 792 1623 792 1623 779 1623 c 128,-1,24
 766 1623 766 1623 755 1623 c 2,25,-1
 104 1623 l 1,26,-1
 104 1270 l 1,27,-1
 255 1270 l 1,28,-1
 255 359 l 1,29,-1
 99 359 l 1,30,-1
 99 0 l 1,0,-1
814 1270 m 1,31,-1
 898 1270 l 2,32,33
 976 1270 976 1270 1029 1228 c 128,-1,34
 1082 1186 1082 1186 1082 1096 c 0,35,36
 1082 895 1082 895 855 895 c 2,37,-1
 814 895 l 1,38,-1
 814 1270 l 1,31,-1
EndSplineSet
EndChar

StartChar: Q
Encoding: 81 81 52
Width: 1765
GlyphClass: 2
Flags: W
LayerCount: 2
Fore
SplineSet
893 -30 m 0,0,1
 933 -30 933 -30 1009 -22 c 1,2,-1
 1260 0 l 1,3,-1
 1744 0 l 1,4,-1
 1744 359 l 1,5,-1
 1581 359 l 1,6,7
 1702 562 1702 562 1702 807 c 0,8,9
 1702 1001 1702 1001 1640.5 1161 c 128,-1,10
 1579 1321 1579 1321 1470.5 1428 c 128,-1,11
 1362 1535 1362 1535 1212.5 1593.5 c 128,-1,12
 1063 1652 1063 1652 887 1652 c 0,13,14
 641 1652 641 1652 450.5 1546 c 128,-1,15
 260 1440 260 1440 156.5 1249.5 c 128,-1,16
 53 1059 53 1059 53 815 c 0,17,18
 53 565 53 565 156 373.5 c 128,-1,19
 259 182 259 182 450 76 c 128,-1,20
 641 -30 641 -30 893 -30 c 0,0,1
670 777 m 0,21,22
 670 839 670 839 670 895.5 c 128,-1,23
 670 952 670 952 674 1002.5 c 128,-1,24
 678 1053 678 1053 685.5 1095 c 128,-1,25
 693 1137 693 1137 708 1170.5 c 128,-1,26
 723 1204 723 1204 746 1227 c 128,-1,27
 769 1250 769 1250 803 1262.5 c 128,-1,28
 837 1275 837 1275 882 1275 c 0,29,30
 933 1275 933 1275 970.5 1256.5 c 128,-1,31
 1008 1238 1008 1238 1030 1198 c 128,-1,32
 1052 1158 1052 1158 1065.5 1121.5 c 128,-1,33
 1079 1085 1079 1085 1084.5 1022 c 128,-1,34
 1090 959 1090 959 1091 923 c 128,-1,35
 1092 887 1092 887 1092 822 c 0,36,37
 1092 807 1092 807 1092 775 c 1,38,39
 1095 732 1095 732 1092.5 683 c 128,-1,40
 1090 634 1090 634 1087 585.5 c 128,-1,41
 1084 537 1084 537 1070.5 492 c 128,-1,42
 1057 447 1057 447 1036.5 413 c 128,-1,43
 1016 379 1016 379 979 358.5 c 128,-1,44
 942 338 942 338 893 338 c 0,45,46
 854 338 854 338 823 347 c 128,-1,47
 792 356 792 356 769.5 375 c 128,-1,48
 747 394 747 394 730.5 416 c 128,-1,49
 714 438 714 438 703.5 472.5 c 128,-1,50
 693 507 693 507 686 537.5 c 128,-1,51
 679 568 679 568 676 613 c 128,-1,52
 673 658 673 658 671.5 692 c 128,-1,53
 670 726 670 726 670 777 c 0,21,22
EndSplineSet
EndChar

StartChar: R
Encoding: 82 82 53
Width: 1765
GlyphClass: 2
Flags: W
LayerCount: 2
Fore
SplineSet
912 359 m 1,0,-1
 791 359 l 1,1,-1
 791 694 l 1,2,-1
 889 694 l 2,3,4
 949 694 949 694 987 677 c 128,-1,5
 1025 660 1025 660 1043.5 624.5 c 128,-1,6
 1062 589 1062 589 1068.5 549.5 c 128,-1,7
 1075 510 1075 510 1075 451 c 2,8,-1
 1075 256 l 2,9,10
 1075 215 1075 215 1083 180.5 c 128,-1,11
 1091 146 1091 146 1103 121 c 128,-1,12
 1115 96 1115 96 1136.5 76.5 c 128,-1,13
 1158 57 1158 57 1177.5 44.5 c 128,-1,14
 1197 32 1197 32 1228.5 23 c 128,-1,15
 1260 14 1260 14 1283 9.5 c 128,-1,16
 1306 5 1306 5 1343.5 3 c 128,-1,17
 1381 1 1381 1 1403.5 0.5 c 128,-1,18
 1426 0 1426 0 1465 0 c 2,19,-1
 1727 0 l 1,20,-1
 1727 359 l 1,21,22
 1671 359 1671 359 1637.5 365.5 c 128,-1,23
 1604 372 1604 372 1588 387.5 c 128,-1,24
 1572 403 1572 403 1567.5 420 c 128,-1,25
 1563 437 1563 437 1563 466 c 2,26,-1
 1563 559 l 2,27,28
 1563 651 1563 651 1499 712 c 128,-1,29
 1435 773 1435 773 1286 807 c 1,30,31
 1458 839 1458 839 1551.5 932 c 128,-1,32
 1645 1025 1645 1025 1645 1170 c 0,33,34
 1645 1293 1645 1293 1608 1381.5 c 128,-1,35
 1571 1470 1571 1470 1499.5 1522.5 c 128,-1,36
 1428 1575 1428 1575 1333.5 1599 c 128,-1,37
 1239 1623 1239 1623 1116 1623 c 2,38,-1
 101 1623 l 1,39,-1
 101 1270 l 1,40,-1
 256 1270 l 1,41,-1
 256 359 l 1,42,-1
 102 359 l 1,43,-1
 102 -1 l 1,44,45
 648 0 648 0 912 0 c 1,46,-1
 912 359 l 1,0,-1
785 920 m 1,47,-1
 785 1270 l 1,48,-1
 906 1270 l 2,49,50
 995 1270 995 1270 1045.5 1222.5 c 128,-1,51
 1096 1175 1096 1175 1096 1096 c 0,52,53
 1096 1046 1096 1046 1075 1010 c 128,-1,54
 1054 974 1054 974 1017 955 c 128,-1,55
 980 936 980 936 938.5 928 c 128,-1,56
 897 920 897 920 846 920 c 2,57,-1
 785 920 l 1,47,-1
EndSplineSet
EndChar

StartChar: S
Encoding: 83 83 54
Width: 1329
GlyphClass: 2
Flags: W
LayerCount: 2
Fore
SplineSet
874 1623 m 1,0,1
 846 1575 846 1575 842 1563 c 1,2,3
 723 1653 723 1653 530 1653 c 0,4,5
 307 1653 307 1653 190.5 1512 c 128,-1,6
 74 1371 74 1371 74 1133 c 0,7,8
 74 1067 74 1067 83.5 1010 c 128,-1,9
 93 953 93 953 109 907 c 128,-1,10
 125 861 125 861 151 820.5 c 128,-1,11
 177 780 177 780 206 749 c 128,-1,12
 235 718 235 718 275 690 c 128,-1,13
 315 662 315 662 353.5 641.5 c 128,-1,14
 392 621 392 621 443 601 c 128,-1,15
 494 581 494 581 539 566.5 c 128,-1,16
 584 552 584 552 643 535 c 0,17,18
 680 525 680 525 705 514 c 128,-1,19
 730 503 730 503 752 478.5 c 128,-1,20
 774 454 774 454 774 420 c 0,21,22
 774 379 774 379 741.5 356.5 c 128,-1,23
 709 334 709 334 665 334 c 0,24,25
 592 334 592 334 525 389.5 c 128,-1,26
 458 445 458 445 432 518 c 1,27,-1
 110 518 l 1,28,-1
 110 0 l 1,29,-1
 433 0 l 1,30,-1
 469 92 l 1,31,32
 547 26 547 26 618.5 -1.5 c 128,-1,33
 690 -29 690 -29 798 -29 c 0,34,35
 903 -29 903 -29 994.5 16.5 c 128,-1,36
 1086 62 1086 62 1147.5 137 c 128,-1,37
 1209 212 1209 212 1243.5 309 c 128,-1,38
 1278 406 1278 406 1276 508 c 0,39,40
 1274 612 1274 612 1247.5 696.5 c 128,-1,41
 1221 781 1221 781 1178 837.5 c 128,-1,42
 1135 894 1135 894 1080 937.5 c 128,-1,43
 1025 981 1025 981 964.5 1007.5 c 128,-1,44
 904 1034 904 1034 843.5 1055 c 128,-1,45
 783 1076 783 1076 728.5 1091.5 c 128,-1,46
 674 1107 674 1107 632 1123 c 128,-1,47
 590 1139 590 1139 565.5 1161 c 128,-1,48
 541 1183 541 1183 541 1213 c 0,49,50
 541 1259 541 1259 566 1282 c 128,-1,51
 591 1305 591 1305 635 1305 c 0,52,53
 710 1305 710 1305 772 1245 c 128,-1,54
 834 1185 834 1185 852 1107 c 1,55,-1
 1159 1107 l 1,56,-1
 1159 1623 l 1,57,-1
 874 1623 l 1,0,1
EndSplineSet
EndChar

StartChar: T
Encoding: 84 84 55
Width: 1535
GlyphClass: 2
Flags: W
LayerCount: 2
Fore
SplineSet
1215 965 m 1,0,-1
 1153 1270 l 1,1,-1
 1047 1270 l 1,2,-1
 1047 360 l 1,3,-1
 1211 360 l 1,4,-1
 1211 0 l 1,5,-1
 320 0 l 1,6,-1
 320 360 l 1,7,-1
 484 360 l 1,8,-1
 484 1270 l 1,9,-1
 384 1270 l 1,10,-1
 320 965 l 1,11,-1
 39 965 l 1,12,-1
 39 1622 l 1,13,-1
 1496 1622 l 1,14,-1
 1496 965 l 1,15,-1
 1215 965 l 1,0,-1
EndSplineSet
EndChar

StartChar: U
Encoding: 85 85 56
Width: 1683
GlyphClass: 2
Flags: W
LayerCount: 2
Fore
SplineSet
1485 1270 m 1,0,-1
 1639 1270 l 1,1,-1
 1639 1622 l 1,2,-1
 985 1622 l 1,3,-1
 985 1270 l 1,4,-1
 1149 1270 l 1,5,-1
 1149 536 l 2,6,7
 1149 448 1149 448 1097 397 c 128,-1,8
 1045 346 1045 346 953 346 c 0,9,10
 901 346 901 346 862.5 368 c 128,-1,11
 824 390 824 390 803.5 427.5 c 128,-1,12
 783 465 783 465 773.5 508 c 128,-1,13
 764 551 764 551 764 600 c 2,14,-1
 764 1270 l 1,15,-1
 912 1270 l 1,16,-1
 912 1622 l 1,17,-1
 43 1622 l 1,18,-1
 43 1270 l 1,19,-1
 204 1270 l 1,20,-1
 204 704 l 2,21,22
 204 616 204 616 211.5 541 c 128,-1,23
 219 466 219 466 238.5 390 c 128,-1,24
 258 314 258 314 289 253 c 128,-1,25
 320 192 320 192 369 138 c 128,-1,26
 418 84 418 84 482.5 48 c 128,-1,27
 547 12 547 12 636 -8.5 c 128,-1,28
 725 -29 725 -29 834 -29 c 0,29,30
 1005 -29 1005 -29 1153 39 c 128,-1,31
 1301 107 1301 107 1393 234.5 c 128,-1,32
 1485 362 1485 362 1485 520 c 2,33,-1
 1485 1270 l 1,0,-1
EndSplineSet
EndChar

StartChar: V
Encoding: 86 86 57
Width: 1668
GlyphClass: 2
Flags: W
LayerCount: 2
Fore
SplineSet
743 1270 m 1,0,-1
 859 1270 l 1,1,-1
 859 1622 l 1,2,-1
 -6 1622 l 1,3,-1
 -6 1270 l 1,4,-1
 160 1270 l 1,5,-1
 521 0 l 1,6,-1
 1105 0 l 1,7,-1
 1459 1032 l 2,8,9
 1465 1049 1465 1049 1475.5 1081 c 128,-1,10
 1486 1113 1486 1113 1490.5 1126 c 128,-1,11
 1495 1139 1495 1139 1504.5 1163 c 128,-1,12
 1514 1187 1514 1187 1521 1196.5 c 128,-1,13
 1528 1206 1528 1206 1540 1222 c 128,-1,14
 1552 1238 1552 1238 1564.5 1244 c 128,-1,15
 1577 1250 1577 1250 1595 1257.5 c 128,-1,16
 1613 1265 1613 1265 1635 1267.5 c 128,-1,17
 1657 1270 1657 1270 1684 1270 c 1,18,-1
 1684 1622 l 1,19,-1
 990 1622 l 1,20,-1
 990 1270 l 1,21,22
 1064 1270 1064 1270 1100.5 1246.5 c 128,-1,23
 1137 1223 1137 1223 1138 1181 c 128,-1,24
 1139 1139 1139 1139 1121 1081 c 2,25,-1
 945 517 l 1,26,-1
 743 1270 l 1,0,-1
EndSplineSet
EndChar

StartChar: W
Encoding: 87 87 58
Width: 2460
GlyphClass: 2
Flags: W
LayerCount: 2
Fore
SplineSet
-4 1623 m 1,0,-1
 -5 1270 l 1,1,-1
 139 1270 l 1,2,-1
 488 0 l 1,3,-1
 1025 0 l 1,4,-1
 1227 706 l 1,5,-1
 1420 0 l 1,6,-1
 1963 0 l 1,7,-1
 2284 1148 l 2,8,9
 2304 1219 2304 1219 2346.5 1244.5 c 128,-1,10
 2389 1270 2389 1270 2473 1270 c 1,11,-1
 2473 1623 l 1,12,-1
 1822 1623 l 1,13,-1
 1822 1270 l 1,14,15
 1896 1270 1896 1270 1920 1257.5 c 128,-1,16
 1944 1245 1944 1245 1932 1201 c 2,17,-1
 1797 703 l 1,18,-1
 1544 1623 l 1,19,-1
 1135 1623 l 1,20,-1
 875 672 l 1,21,-1
 716 1270 l 1,22,-1
 857 1270 l 1,23,-1
 857 1623 l 1,24,-1
 -4 1623 l 1,0,-1
EndSplineSet
EndChar

StartChar: X
Encoding: 88 88 59
Width: 1863
GlyphClass: 2
Flags: W
LayerCount: 2
Fore
SplineSet
1798 1623 m 1,0,-1
 1061 1623 l 1,1,-1
 1061 1270 l 1,2,3
 1084 1270 1084 1270 1115.5 1257.5 c 128,-1,4
 1147 1245 1147 1245 1147 1226 c 0,5,6
 1147 1210 1147 1210 1124.5 1169.5 c 128,-1,7
 1102 1129 1102 1129 1079 1096 c 2,8,-1
 1057 1064 l 1,9,-1
 895 1270 l 1,10,-1
 977 1270 l 1,11,-1
 977 1623 l 1,12,-1
 99 1623 l 1,13,-1
 99 1270 l 1,14,-1
 230 1270 l 1,15,-1
 601 862 l 1,16,-1
 314 493 l 1,17,18
 253 408 253 408 195.5 383.5 c 128,-1,19
 138 359 138 359 8 359 c 1,20,-1
 8 0 l 1,21,-1
 836 0 l 1,22,-1
 830 359 l 1,23,-1
 746 359 l 2,24,25
 720 359 720 359 701 376 c 128,-1,26
 682 393 682 393 682 420 c 0,27,28
 682 434 682 434 688.5 453.5 c 128,-1,29
 695 473 695 473 703 483 c 2,30,-1
 813 634 l 1,31,-1
 1056 359 l 1,32,-1
 930 359 l 1,33,-1
 930 0 l 1,34,-1
 1829 0 l 1,35,-1
 1829 359 l 1,36,-1
 1707 359 l 1,37,-1
 1278 829 l 1,38,-1
 1536 1180 l 2,39,40
 1574 1233 1574 1233 1640 1251.5 c 128,-1,41
 1706 1270 1706 1270 1798 1270 c 1,42,-1
 1798 1623 l 1,0,-1
EndSplineSet
EndChar

StartChar: Y
Encoding: 89 89 60
Width: 1559
GlyphClass: 2
Flags: W
LayerCount: 2
Fore
SplineSet
1564 1622 m 1,0,-1
 927 1622 l 1,1,-1
 927 1270 l 1,2,3
 935 1270 935 1270 949.5 1270 c 128,-1,4
 964 1270 964 1270 971 1270 c 128,-1,5
 978 1270 978 1270 989 1270 c 128,-1,6
 1000 1270 1000 1270 1005.5 1268.5 c 128,-1,7
 1011 1267 1011 1267 1018.5 1265 c 128,-1,8
 1026 1263 1026 1263 1029.5 1259 c 128,-1,9
 1033 1255 1033 1255 1037 1250 c 128,-1,10
 1041 1245 1041 1245 1042.5 1237.5 c 128,-1,11
 1044 1230 1044 1230 1044 1221 c 0,12,13
 1044 1166 1044 1166 930 993 c 1,14,15
 909 1023 909 1023 838.5 1131.5 c 128,-1,16
 768 1240 768 1240 746 1270 c 1,17,-1
 837 1270 l 1,18,-1
 837 1622 l 1,19,-1
 -15 1622 l 1,20,-1
 -15 1270 l 1,21,-1
 97 1270 l 1,22,-1
 518 672 l 1,23,-1
 518 359 l 1,24,-1
 363 359 l 1,25,-1
 363 0 l 1,26,-1
 1232 0 l 1,27,-1
 1232 359 l 1,28,-1
 1075 359 l 1,29,-1
 1075 724 l 1,30,-1
 1279 1095 l 2,31,32
 1303 1140 1303 1140 1314.5 1159.5 c 128,-1,33
 1326 1179 1326 1179 1346 1206 c 128,-1,34
 1366 1233 1366 1233 1384 1243.5 c 128,-1,35
 1402 1254 1402 1254 1428.5 1262 c 128,-1,36
 1455 1270 1455 1270 1490 1270 c 2,37,-1
 1564 1270 l 1,38,-1
 1564 1622 l 1,0,-1
EndSplineSet
EndChar

StartChar: Z
Encoding: 90 90 61
Width: 1607
GlyphClass: 2
Flags: W
LayerCount: 2
Fore
SplineSet
1495 1293 m 1,0,-1
 818 359 l 1,1,-1
 1127 359 l 1,2,-1
 1234 705 l 1,3,-1
 1516 705 l 1,4,-1
 1515 0 l 1,5,-1
 106 0 l 1,6,-1
 105 350 l 1,7,-1
 784 1270 l 1,8,-1
 469 1270 l 1,9,-1
 389 938 l 1,10,-1
 101 938 l 1,11,-1
 101 1622 l 1,12,-1
 1495 1622 l 1,13,-1
 1495 1293 l 1,0,-1
EndSplineSet
EndChar

StartChar: bracketleft
Encoding: 91 91 62
Width: 910
GlyphClass: 2
Flags: W
LayerCount: 2
Fore
SplineSet
145 0 m 1,0,-1
 145 1623 l 1,1,-1
 859 1623 l 1,2,-1
 859 1322 l 1,3,-1
 662 1322 l 1,4,-1
 662 311 l 1,5,-1
 855 311 l 1,6,-1
 854 0 l 1,7,-1
 145 0 l 1,0,-1
EndSplineSet
EndChar

StartChar: backslash
Encoding: 92 92 63
Width: 1031
GlyphClass: 2
Flags: W
LayerCount: 2
Fore
SplineSet
400 0 m 1,0,-1
 58 1623 l 1,1,-1
 632 1623 l 1,2,-1
 973 0 l 1,3,-1
 400 0 l 1,0,-1
EndSplineSet
EndChar

StartChar: bracketright
Encoding: 93 93 64
Width: 909
GlyphClass: 2
Flags: W
LayerCount: 2
Fore
SplineSet
55 0 m 1,0,-1
 54 311 l 1,1,-1
 247 311 l 1,2,-1
 247 1322 l 1,3,-1
 50 1322 l 1,4,-1
 50 1623 l 1,5,-1
 764 1623 l 1,6,-1
 764 0 l 1,7,-1
 55 0 l 1,0,-1
EndSplineSet
EndChar

StartChar: asciicircum
Encoding: 94 94 65
Width: 1707
GlyphClass: 2
Flags: W
LayerCount: 2
Fore
SplineSet
1088 1624 m 1,0,-1
 1584 909 l 1,1,-1
 1119 909 l 1,2,-1
 903 1242 l 1,3,-1
 687 909 l 1,4,-1
 222 909 l 1,5,-1
 718 1624 l 1,6,-1
 1088 1624 l 1,0,-1
EndSplineSet
EndChar

StartChar: underscore
Encoding: 95 95 66
Width: 1165
GlyphClass: 2
Flags: W
LayerCount: 2
Fore
SplineSet
1179 -1 m 1,0,-1
 1179 -224 l 1,1,-1
 -14 -224 l 1,2,-1
 -14 -1 l 1,3,-1
 1179 -1 l 1,0,-1
EndSplineSet
EndChar

StartChar: grave
Encoding: 96 96 67
Width: 1016
GlyphClass: 2
Flags: W
LayerCount: 2
Fore
SplineSet
281 1708 m 1,0,-1
 755 1271 l 1,1,-1
 651 1130 l 1,2,-1
 97 1443 l 1,3,-1
 281 1708 l 1,0,-1
EndSplineSet
EndChar

StartChar: a
Encoding: 97 97 68
Width: 1294
GlyphClass: 2
Flags: W
LayerCount: 2
Fore
SplineSet
30 308 m 0,0,1
 30 159 30 159 143.5 70.5 c 128,-1,2
 257 -18 257 -18 419 -18 c 0,3,4
 501 -18 501 -18 588 18 c 128,-1,5
 675 54 675 54 725 119 c 1,6,-1
 775 0 l 1,7,-1
 1247 0 l 1,8,-1
 1247 305 l 1,9,-1
 1171 305 l 1,10,-1
 1171 750 l 2,11,12
 1171 819 1171 819 1145.5 874.5 c 128,-1,13
 1120 930 1120 930 1082.5 965 c 128,-1,14
 1045 1000 1045 1000 988.5 1025.5 c 128,-1,15
 932 1051 932 1051 883.5 1063.5 c 128,-1,16
 835 1076 835 1076 772.5 1083 c 128,-1,17
 710 1090 710 1090 677 1091 c 128,-1,18
 644 1092 644 1092 603 1092 c 0,19,20
 496 1092 496 1092 375 1074.5 c 128,-1,21
 254 1057 254 1057 187 1040 c 2,22,-1
 120 1022 l 1,23,-1
 120 708 l 1,24,-1
 295 708 l 1,25,26
 367 803 367 803 510 803 c 0,27,28
 721 803 721 803 721 637 c 2,29,-1
 721 592 l 1,30,31
 611 630 611 630 465 630 c 0,32,33
 382 630 382 630 305.5 609.5 c 128,-1,34
 229 589 229 589 167 550 c 128,-1,35
 105 511 105 511 67.5 448 c 128,-1,36
 30 385 30 385 30 308 c 0,0,1
520 326 m 0,37,38
 520 369 520 369 551 403.5 c 128,-1,39
 582 438 582 438 625 438 c 0,40,41
 647 438 647 438 671.5 433 c 128,-1,42
 696 428 696 428 710 422 c 2,43,-1
 724 417 l 1,44,-1
 724 270 l 1,45,46
 720 265 720 265 712 257.5 c 128,-1,47
 704 250 704 250 676 237 c 128,-1,48
 648 224 648 224 616 224 c 0,49,50
 572 224 572 224 546 252.5 c 128,-1,51
 520 281 520 281 520 326 c 0,37,38
EndSplineSet
EndChar

StartChar: b
Encoding: 98 98 69
Width: 1401
GlyphClass: 2
Flags: W
LayerCount: 2
Fore
SplineSet
599 1631 m 1,0,-1
 33 1631 l 1,1,-1
 33 1325 l 1,2,-1
 117 1325 l 1,3,-1
 117 0 l 1,4,-1
 567 0 l 1,5,-1
 607 102 l 1,6,7
 705 32 705 32 742 14 c 0,8,9
 808 -18 808 -18 883 -18 c 0,10,11
 976 -18 976 -18 1054.5 13 c 128,-1,12
 1133 44 1133 44 1188 97 c 128,-1,13
 1243 150 1243 150 1281.5 221 c 128,-1,14
 1320 292 1320 292 1338 372 c 128,-1,15
 1356 452 1356 452 1356 538 c 0,16,17
 1356 619 1356 619 1338.5 697.5 c 128,-1,18
 1321 776 1321 776 1284.5 847.5 c 128,-1,19
 1248 919 1248 919 1195.5 973.5 c 128,-1,20
 1143 1028 1143 1028 1068 1060 c 128,-1,21
 993 1092 993 1092 904 1092 c 0,22,23
 756 1092 756 1092 599 965 c 1,24,-1
 599 1631 l 1,0,-1
603 662 m 1,25,26
 605 666 605 666 608.5 672.5 c 128,-1,27
 612 679 612 679 625 695.5 c 128,-1,28
 638 712 638 712 652 724.5 c 128,-1,29
 666 737 666 737 689.5 747.5 c 128,-1,30
 713 758 713 758 738 758 c 0,31,32
 777 758 777 758 805.5 741 c 128,-1,33
 834 724 834 724 850 700 c 128,-1,34
 866 676 866 676 875.5 641.5 c 128,-1,35
 885 607 885 607 887.5 578.5 c 128,-1,36
 890 550 890 550 890 519 c 0,37,38
 890 427 890 427 847 377.5 c 128,-1,39
 804 328 804 328 738 328 c 0,40,41
 702 328 702 328 668 345 c 128,-1,42
 634 362 634 362 618 379 c 2,43,-1
 603 396 l 1,44,-1
 603 662 l 1,25,26
EndSplineSet
EndChar

StartChar: c
Encoding: 99 99 70
Width: 1110
GlyphClass: 2
Flags: W
LayerCount: 2
Fore
SplineSet
43 546 m 0,0,1
 43 368 43 368 116.5 238.5 c 128,-1,2
 190 109 190 109 313.5 45.5 c 128,-1,3
 437 -18 437 -18 595 -18 c 0,4,5
 721 -18 721 -18 845 18.5 c 128,-1,6
 969 55 969 55 1038 124 c 1,7,-1
 1038 425 l 1,8,-1
 798 425 l 1,9,10
 797 420 797 420 795.5 411 c 128,-1,11
 794 402 794 402 785.5 379.5 c 128,-1,12
 777 357 777 357 764.5 340 c 128,-1,13
 752 323 752 323 727.5 309 c 128,-1,14
 703 295 703 295 671 295 c 0,15,16
 628 295 628 295 596.5 315 c 128,-1,17
 565 335 565 335 548 368 c 128,-1,18
 531 401 531 401 523.5 437 c 128,-1,19
 516 473 516 473 516 513 c 0,20,21
 516 648 516 648 562 713 c 128,-1,22
 608 778 608 778 671 778 c 0,23,24
 722 778 722 778 758 736 c 128,-1,25
 794 694 794 694 794 628 c 1,26,-1
 1036 628 l 1,27,-1
 1036 1072 l 1,28,-1
 861 1072 l 1,29,-1
 820 995 l 1,30,31
 699 1092 699 1092 562 1092 c 0,32,33
 445 1092 445 1092 346 1047.5 c 128,-1,34
 247 1003 247 1003 181.5 928 c 128,-1,35
 116 853 116 853 79.5 754 c 128,-1,36
 43 655 43 655 43 546 c 0,0,1
EndSplineSet
EndChar

StartChar: d
Encoding: 100 100 71
Width: 1442
GlyphClass: 2
Flags: W
LayerCount: 2
Fore
SplineSet
1370 305 m 1,0,-1
 1293 305 l 1,1,-1
 1292 1640 l 1,2,-1
 707 1640 l 1,3,-1
 707 1335 l 1,4,-1
 797 1335 l 1,5,-1
 797 960 l 1,6,7
 729 1029 729 1029 659.5 1059.5 c 128,-1,8
 590 1090 590 1090 498 1090 c 0,9,10
 395 1090 395 1090 307.5 1043 c 128,-1,11
 220 996 220 996 163 919 c 128,-1,12
 106 842 106 842 74.5 746 c 128,-1,13
 43 650 43 650 43 550 c 0,14,15
 43 445 43 445 72 346 c 128,-1,16
 101 247 101 247 156 164.5 c 128,-1,17
 211 82 211 82 302 31.5 c 128,-1,18
 393 -19 393 -19 506 -19 c 1,19,20
 596 -18 596 -18 673 21 c 128,-1,21
 750 60 750 60 801 128 c 1,22,-1
 801 0 l 1,23,-1
 1370 0 l 1,24,-1
 1370 305 l 1,0,-1
801 415 m 1,25,26
 799 411 799 411 795.5 404.5 c 128,-1,27
 792 398 792 398 779 381.5 c 128,-1,28
 766 365 766 365 752 352.5 c 128,-1,29
 738 340 738 340 714.5 329.5 c 128,-1,30
 691 319 691 319 666 319 c 0,31,32
 627 319 627 319 598.5 336 c 128,-1,33
 570 353 570 353 554 377 c 128,-1,34
 538 401 538 401 528.5 435.5 c 128,-1,35
 519 470 519 470 516.5 498.5 c 128,-1,36
 514 527 514 527 514 558 c 0,37,38
 514 650 514 650 557 699.5 c 128,-1,39
 600 749 600 749 666 749 c 0,40,41
 702 749 702 749 736 732 c 128,-1,42
 770 715 770 715 786 698 c 2,43,-1
 801 681 l 1,44,-1
 801 415 l 1,25,26
EndSplineSet
EndChar

StartChar: e
Encoding: 101 101 72
Width: 1224
GlyphClass: 2
Flags: W
LayerCount: 2
Fore
SplineSet
611 -18 m 0,0,1
 771 -18 771 -18 898.5 15 c 128,-1,2
 1026 48 1026 48 1158 127 c 1,3,-1
 1158 351 l 1,4,-1
 851 351 l 1,5,6
 849 292 849 292 816 257 c 128,-1,7
 783 222 783 222 711 222 c 0,8,9
 629 222 629 222 581.5 288.5 c 128,-1,10
 534 355 534 355 534 456 c 1,11,-1
 1136 456 l 1,12,13
 1155 448 1155 448 1159.5 451.5 c 128,-1,14
 1164 455 1164 455 1173 484 c 1,15,16
 1178 521 1178 521 1178 555 c 0,17,18
 1178 705 1178 705 1115.5 825 c 128,-1,19
 1053 945 1053 945 926 1018.5 c 128,-1,20
 799 1092 799 1092 627 1092 c 0,21,22
 447 1092 447 1092 312.5 1017.5 c 128,-1,23
 178 943 178 943 109 814.5 c 128,-1,24
 40 686 40 686 40 521 c 0,25,26
 40 374 40 374 113 251 c 128,-1,27
 186 128 186 128 317.5 55 c 128,-1,28
 449 -18 449 -18 611 -18 c 0,0,1
536 656 m 2,29,30
 536 717 536 717 563 765.5 c 128,-1,31
 590 814 590 814 644 814 c 0,32,33
 681 814 681 814 705 796.5 c 128,-1,34
 729 779 729 779 738 746.5 c 128,-1,35
 747 714 747 714 749.5 688 c 128,-1,36
 752 662 752 662 751 627 c 1,37,-1
 536 627 l 1,38,-1
 536 656 l 2,29,30
EndSplineSet
EndChar

StartChar: f
Encoding: 102 102 73
Width: 875
GlyphClass: 2
Flags: W
LayerCount: 2
Fore
SplineSet
175 1207 m 1,0,1
 177 1075 177 1075 177 1072 c 1,2,-1
 94 1072 l 1,3,-1
 94 761 l 1,4,-1
 178 761 l 1,5,-1
 178 305 l 1,6,-1
 94 305 l 1,7,-1
 94 0 l 1,8,-1
 774 0 l 1,9,-1
 774 305 l 1,10,-1
 664 305 l 1,11,-1
 664 761 l 1,12,-1
 836 761 l 1,13,-1
 836 1072 l 1,14,-1
 657 1072 l 1,15,16
 651 1180 651 1180 677.5 1222.5 c 128,-1,17
 704 1265 704 1265 767 1265 c 0,18,19
 805 1265 805 1265 863 1252 c 1,20,-1
 863 1563 l 1,21,22
 849 1568 849 1568 822.5 1576 c 128,-1,23
 796 1584 796 1584 715.5 1597 c 128,-1,24
 635 1610 635 1610 555 1610 c 0,25,26
 175 1610 175 1610 175 1207 c 1,0,1
EndSplineSet
EndChar

StartChar: g
Encoding: 103 103 74
Width: 1414
GlyphClass: 2
Flags: W
LayerCount: 2
Fore
SplineSet
564 -389 m 0,0,1
 1258 -389 1258 -389 1258 135 c 2,2,-1
 1258 761 l 1,3,-1
 1345 761 l 1,4,-1
 1345 1072 l 1,5,-1
 892 1072 l 1,6,-1
 859 997 l 1,7,8
 686 1090 686 1090 534 1090 c 0,9,10
 395 1090 395 1090 281.5 1011.5 c 128,-1,11
 168 933 168 933 106.5 809.5 c 128,-1,12
 45 686 45 686 45 548 c 0,13,14
 45 445 45 445 76.5 352 c 128,-1,15
 108 259 108 259 167 186.5 c 128,-1,16
 226 114 226 114 318 71 c 128,-1,17
 410 28 410 28 522 28 c 0,18,19
 599 28 599 28 675 51.5 c 128,-1,20
 751 75 751 75 809 117 c 1,21,22
 809 53 809 53 792 12 c 128,-1,23
 775 -29 775 -29 737.5 -50.5 c 128,-1,24
 700 -72 700 -72 654.5 -79.5 c 128,-1,25
 609 -87 609 -87 540 -87 c 0,26,27
 362 -87 362 -87 176 -19 c 1,28,-1
 176 -328 l 1,29,30
 189 -335 189 -335 216.5 -345 c 128,-1,31
 244 -355 244 -355 344.5 -372 c 128,-1,32
 445 -389 445 -389 564 -389 c 0,0,1
528 532 m 0,33,34
 528 593 528 593 539.5 641.5 c 128,-1,35
 551 690 551 690 583 725 c 128,-1,36
 615 760 615 760 665 760 c 0,37,38
 713 760 713 760 747 721.5 c 128,-1,39
 781 683 781 683 794.5 631.5 c 128,-1,40
 808 580 808 580 808 523 c 0,41,42
 808 486 808 486 800.5 449 c 128,-1,43
 793 412 793 412 778 377.5 c 128,-1,44
 763 343 763 343 735.5 321 c 128,-1,45
 708 299 708 299 673 299 c 0,46,47
 620 299 620 299 586 336 c 128,-1,48
 552 373 552 373 540 422.5 c 128,-1,49
 528 472 528 472 528 532 c 0,33,34
EndSplineSet
EndChar

StartChar: h
Encoding: 104 104 75
Width: 1451
GlyphClass: 2
Flags: W
LayerCount: 2
Fore
SplineSet
71 0 m 1,0,-1
 724 0 l 1,1,-1
 724 305 l 1,2,-1
 644 305 l 1,3,-1
 644 626 l 2,4,5
 644 744 644 744 745 744 c 0,6,7
 827 744 827 744 828 619 c 1,8,-1
 828 0 l 1,9,-1
 1404 0 l 1,10,-1
 1404 305 l 1,11,-1
 1318 305 l 1,12,-1
 1318 702 l 2,13,14
 1318 891 1318 891 1224 990.5 c 128,-1,15
 1130 1090 1130 1090 960 1090 c 0,16,17
 925 1090 925 1090 892.5 1084 c 128,-1,18
 860 1078 860 1078 837.5 1071.5 c 128,-1,19
 815 1065 815 1065 787.5 1048 c 128,-1,20
 760 1031 760 1031 747 1022 c 128,-1,21
 734 1013 734 1013 708 987.5 c 128,-1,22
 682 962 682 962 674.5 954 c 128,-1,23
 667 946 667 946 640 916 c 1,24,-1
 640 1640 l 1,25,-1
 67 1640 l 1,26,-1
 67 1332 l 1,27,-1
 151 1332 l 1,28,-1
 151 305 l 1,29,-1
 72 305 l 1,30,-1
 71 0 l 1,0,-1
EndSplineSet
EndChar

StartChar: i
Encoding: 105 105 76
Width: 814
GlyphClass: 2
Flags: W
LayerCount: 2
Fore
SplineSet
661 1072 m 1,0,-1
 91 1072 l 1,1,-1
 91 761 l 1,2,-1
 180 761 l 1,3,-1
 180 305 l 1,4,-1
 98 305 l 1,5,-1
 98 0 l 1,6,-1
 745 0 l 1,7,-1
 745 305 l 1,8,-1
 661 305 l 1,9,-1
 661 1072 l 1,0,-1
380 1135 m 0,10,11
 261 1135 261 1135 182 1202.5 c 128,-1,12
 103 1270 103 1270 103 1385 c 0,13,14
 103 1498 103 1498 180.5 1564 c 128,-1,15
 258 1630 258 1630 380 1630 c 0,16,17
 507 1630 507 1630 587 1564 c 128,-1,18
 667 1498 667 1498 667 1385 c 0,19,20
 667 1270 667 1270 584.5 1202.5 c 128,-1,21
 502 1135 502 1135 380 1135 c 0,10,11
EndSplineSet
EndChar

StartChar: j
Encoding: 106 106 77
Width: 772
GlyphClass: 2
Flags: W
LayerCount: 2
Fore
SplineSet
49 -72 m 1,0,-1
 51 -398 l 1,1,2
 224 -398 224 -398 341.5 -366 c 128,-1,3
 459 -334 459 -334 528 -266 c 128,-1,4
 597 -198 597 -198 626 -103 c 128,-1,5
 655 -8 655 -8 655 129 c 2,6,-1
 655 1072 l 1,7,-1
 66 1072 l 1,8,-1
 66 760 l 1,9,-1
 156 760 l 1,10,-1
 156 -9 l 2,11,12
 156 -46 156 -46 120.5 -61 c 128,-1,13
 85 -76 85 -76 49 -72 c 1,0,-1
371 1135 m 0,14,15
 252 1135 252 1135 173 1202.5 c 128,-1,16
 94 1270 94 1270 94 1385 c 0,17,18
 94 1498 94 1498 171.5 1564 c 128,-1,19
 249 1630 249 1630 371 1630 c 0,20,21
 498 1630 498 1630 578 1564 c 128,-1,22
 658 1498 658 1498 658 1385 c 0,23,24
 658 1270 658 1270 575.5 1202.5 c 128,-1,25
 493 1135 493 1135 371 1135 c 0,14,15
EndSplineSet
EndChar

StartChar: k
Encoding: 107 107 78
Width: 1413
GlyphClass: 2
Flags: W
LayerCount: 2
Fore
SplineSet
646 438 m 1,0,-1
 646 0 l 1,1,-1
 69 0 l 1,2,-1
 69 305 l 1,3,-1
 152 305 l 1,4,-1
 152 1330 l 1,5,-1
 68 1330 l 1,6,-1
 68 1634 l 1,7,-1
 646 1634 l 1,8,-1
 646 587 l 1,9,-1
 847 761 l 1,10,-1
 752 761 l 1,11,-1
 752 1072 l 1,12,-1
 1336 1072 l 1,13,-1
 1336 761 l 1,14,-1
 1185 761 l 1,15,-1
 1042 644 l 1,16,-1
 1042 618 l 1,17,-1
 1269 305 l 1,18,-1
 1384 305 l 1,19,-1
 1384 0 l 1,20,-1
 931 0 l 1,21,-1
 646 438 l 1,0,-1
EndSplineSet
EndChar

StartChar: l
Encoding: 108 108 79
Width: 794
GlyphClass: 2
Flags: W
LayerCount: 2
Fore
SplineSet
644 305 m 1,0,-1
 722 305 l 1,1,-1
 722 0 l 1,2,-1
 75 0 l 1,3,-1
 75 305 l 1,4,-1
 149 305 l 1,5,-1
 149 1317 l 1,6,-1
 65 1317 l 1,7,-1
 65 1630 l 1,8,-1
 644 1630 l 1,9,-1
 644 305 l 1,0,-1
EndSplineSet
EndChar

StartChar: m
Encoding: 109 109 80
Width: 2073
GlyphClass: 2
Flags: W
LayerCount: 2
Fore
SplineSet
830 0 m 1,0,-1
 830 638 l 2,1,2
 830 738 830 738 718 738 c 0,3,4
 683 738 683 738 662 717.5 c 128,-1,5
 641 697 641 697 629.5 667 c 128,-1,6
 618 637 618 637 614 602.5 c 128,-1,7
 610 568 610 568 610 541 c 2,8,-1
 610 303 l 1,9,-1
 690 303 l 1,10,-1
 690 0 l 1,11,-1
 95 0 l 1,12,-1
 95 299 l 1,13,-1
 168 299 l 1,14,-1
 168 761 l 1,15,-1
 94 761 l 1,16,-1
 94 1072 l 1,17,-1
 610 1072 l 1,18,-1
 610 902 l 1,19,20
 644 949 644 949 687.5 984.5 c 128,-1,21
 731 1020 731 1020 779 1044 c 128,-1,22
 827 1068 827 1068 877 1080 c 128,-1,23
 927 1092 927 1092 975 1092 c 0,24,25
 1059 1092 1059 1092 1129.5 1040 c 128,-1,26
 1200 988 1200 988 1243 891 c 1,27,28
 1378 1092 1378 1092 1592 1092 c 0,29,30
 1662 1092 1662 1092 1725.5 1072 c 128,-1,31
 1789 1052 1789 1052 1837 1008.5 c 128,-1,32
 1885 965 1885 965 1913.5 896 c 128,-1,33
 1942 827 1942 827 1942 729 c 2,34,-1
 1942 305 l 1,35,-1
 2016 305 l 1,36,-1
 2016 0 l 1,37,-1
 1487 0 l 1,38,-1
 1487 635 l 1,39,40
 1482 683 1482 683 1457 713 c 128,-1,41
 1432 743 1432 743 1387 743 c 0,42,43
 1355 743 1355 743 1333 730.5 c 128,-1,44
 1311 718 1311 718 1296.5 695.5 c 128,-1,45
 1282 673 1282 673 1275 643 c 128,-1,46
 1268 613 1268 613 1267 579 c 1,47,-1
 1267 305 l 1,48,-1
 1352 305 l 1,49,-1
 1352 0 l 1,50,-1
 830 0 l 1,0,-1
EndSplineSet
EndChar

StartChar: n
Encoding: 110 110 81
Width: 1483
GlyphClass: 2
Flags: W
LayerCount: 2
Fore
SplineSet
661 1072 m 1,0,-1
 98 1072 l 1,1,-1
 98 761 l 1,2,-1
 174 761 l 1,3,-1
 174 305 l 1,4,-1
 91 305 l 1,5,-1
 91 0 l 1,6,-1
 749 0 l 1,7,-1
 749 305 l 1,8,-1
 661 305 l 1,9,-1
 661 624 l 2,10,11
 661 671 661 671 689.5 704 c 128,-1,12
 718 737 718 737 765 737 c 0,13,14
 801 737 801 737 828 706 c 128,-1,15
 855 675 855 675 855 627 c 2,16,-1
 855 0 l 1,17,-1
 1429 0 l 1,18,-1
 1429 305 l 1,19,-1
 1349 305 l 1,20,-1
 1349 680 l 2,21,22
 1349 1092 1349 1092 1019 1092 c 0,23,24
 901 1092 901 1092 808.5 1046.5 c 128,-1,25
 716 1001 716 1001 661 916 c 1,26,-1
 661 1072 l 1,0,-1
EndSplineSet
EndChar

StartChar: o
Encoding: 111 111 82
Width: 1290
GlyphClass: 2
Flags: W
LayerCount: 2
Fore
SplineSet
43 547 m 0,0,1
 43 807 43 807 204 949 c 128,-1,2
 365 1091 365 1091 644 1091 c 0,3,4
 925 1091 925 1091 1086 949 c 128,-1,5
 1247 807 1247 807 1247 547 c 0,6,7
 1247 372 1247 372 1170.5 243 c 128,-1,8
 1094 114 1094 114 958.5 48 c 128,-1,9
 823 -18 823 -18 645 -18 c 256,10,11
 467 -18 467 -18 331.5 48 c 128,-1,12
 196 114 196 114 119.5 243 c 128,-1,13
 43 372 43 372 43 547 c 0,0,1
508 545 m 0,14,15
 508 294 508 294 645 294 c 128,-1,16
 782 294 782 294 782 545 c 0,17,18
 782 596 782 596 777.5 631.5 c 128,-1,19
 773 667 773 667 760 704 c 128,-1,20
 747 741 747 741 718 760 c 128,-1,21
 689 779 689 779 645 779 c 128,-1,22
 601 779 601 779 572 760 c 128,-1,23
 543 741 543 741 530 704 c 128,-1,24
 517 667 517 667 512.5 631.5 c 128,-1,25
 508 596 508 596 508 545 c 0,14,15
EndSplineSet
EndChar

StartChar: p
Encoding: 112 112 83
Width: 1438
GlyphClass: 2
Flags: W
LayerCount: 2
Fore
SplineSet
740 -397 m 1,0,-1
 740 -96 l 1,1,-1
 629 -96 l 1,2,-1
 629 119 l 1,3,4
 670 86 670 86 690 71.5 c 128,-1,5
 710 57 710 57 753.5 31.5 c 128,-1,6
 797 6 797 6 842.5 -5.5 c 128,-1,7
 888 -17 888 -17 940 -17 c 0,8,9
 1049 -17 1049 -17 1137.5 30.5 c 128,-1,10
 1226 78 1226 78 1280.5 157.5 c 128,-1,11
 1335 237 1335 237 1364 335.5 c 128,-1,12
 1393 434 1393 434 1393 541 c 0,13,14
 1393 649 1393 649 1363 748 c 128,-1,15
 1333 847 1333 847 1277.5 924 c 128,-1,16
 1222 1001 1222 1001 1135 1047 c 128,-1,17
 1048 1093 1048 1093 942 1093 c 0,18,19
 849 1093 849 1093 781.5 1060.5 c 128,-1,20
 714 1028 714 1028 650 956 c 1,21,-1
 640 956 l 1,22,-1
 640 1072 l 1,23,-1
 76 1072 l 1,24,-1
 76 761 l 1,25,-1
 150 761 l 1,26,-1
 150 -94 l 1,27,-1
 66 -94 l 1,28,-1
 66 -397 l 1,29,-1
 740 -397 l 1,0,-1
629 417 m 1,30,-1
 629 645 l 1,31,32
 630 649 630 649 632 655 c 128,-1,33
 634 661 634 661 644 677.5 c 128,-1,34
 654 694 654 694 667.5 706.5 c 128,-1,35
 681 719 681 719 705.5 729 c 128,-1,36
 730 739 730 739 761 739 c 0,37,38
 924 739 924 739 924 545 c 0,39,40
 924 501 924 501 916.5 462.5 c 128,-1,41
 909 424 909 424 891.5 388 c 128,-1,42
 874 352 874 352 840 331 c 128,-1,43
 806 310 806 310 758 310 c 0,44,45
 726 310 726 310 701 321 c 128,-1,46
 676 332 676 332 663 348 c 128,-1,47
 650 364 650 364 641.5 379.5 c 128,-1,48
 633 395 633 395 631 406 c 2,49,-1
 629 417 l 1,30,-1
EndSplineSet
EndChar

StartChar: q
Encoding: 113 113 84
Width: 1438
GlyphClass: 2
Flags: W
LayerCount: 2
Fore
SplineSet
715 -397 m 1,0,-1
 715 -96 l 1,1,-1
 826 -96 l 1,2,-1
 826 128 l 1,3,4
 793 100 793 100 779 88.5 c 128,-1,5
 765 77 765 77 729 52 c 128,-1,6
 693 27 693 27 666 15.5 c 128,-1,7
 639 4 639 4 598 -6.5 c 128,-1,8
 557 -17 557 -17 515 -17 c 0,9,10
 423 -17 423 -17 347 16 c 128,-1,11
 271 49 271 49 219 105.5 c 128,-1,12
 167 162 167 162 131 238 c 128,-1,13
 95 314 95 314 78.5 397.5 c 128,-1,14
 62 481 62 481 62 571 c 0,15,16
 62 673 62 673 94.5 767 c 128,-1,17
 127 861 127 861 185 933.5 c 128,-1,18
 243 1006 243 1006 331 1049 c 128,-1,19
 419 1092 419 1092 523 1092 c 0,20,21
 620 1092 620 1092 687.5 1067 c 128,-1,22
 755 1042 755 1042 825 985 c 1,23,-1
 835 985 l 1,24,-1
 899 1072 l 1,25,-1
 1379 1072 l 1,26,-1
 1379 761 l 1,27,-1
 1305 761 l 1,28,-1
 1305 -94 l 1,29,-1
 1389 -94 l 1,30,-1
 1389 -398 l 1,31,-1
 715 -397 l 1,0,-1
826 526 m 1,32,33
 832 557 832 557 826.5 599 c 128,-1,34
 821 641 821 641 810 678.5 c 128,-1,35
 799 716 799 716 768.5 742 c 128,-1,36
 738 768 738 768 694 768 c 0,37,38
 551 768 551 768 551 554 c 0,39,40
 551 496 551 496 562 449 c 128,-1,41
 573 402 573 402 607.5 365.5 c 128,-1,42
 642 329 642 329 697 329 c 0,43,44
 741 329 741 329 771.5 362 c 128,-1,45
 802 395 802 395 814 438 c 128,-1,46
 826 481 826 481 826 526 c 1,32,33
EndSplineSet
EndChar

StartChar: r
Encoding: 114 114 85
Width: 1000
GlyphClass: 2
Flags: W
LayerCount: 2
Fore
SplineSet
94 1072 m 1,0,-1
 637 1072 l 1,1,-1
 637 909 l 1,2,-1
 641 905 l 1,3,4
 690 989 690 989 782 1036 c 128,-1,5
 874 1083 874 1083 973 1083 c 1,6,-1
 973 667 l 1,7,-1
 867 674 l 1,8,9
 757 674 757 674 694 610.5 c 128,-1,10
 631 547 631 547 631 426 c 2,11,-1
 631 305 l 1,12,-1
 768 305 l 1,13,-1
 768 0 l 1,14,-1
 94 0 l 1,15,-1
 94 305 l 1,16,-1
 173 305 l 1,17,-1
 173 761 l 1,18,-1
 94 761 l 1,19,-1
 94 1072 l 1,0,-1
EndSplineSet
EndChar

StartChar: s
Encoding: 115 115 86
Width: 1055
GlyphClass: 2
Flags: W
LayerCount: 2
Fore
SplineSet
976 761 m 1,0,-1
 976 1081 l 1,1,-1
 808 1081 l 1,2,-1
 781 1033 l 1,3,4
 771 1040 771 1040 751 1049.5 c 128,-1,5
 731 1059 731 1059 655 1075.5 c 128,-1,6
 579 1092 579 1092 487 1092 c 0,7,8
 366 1092 366 1092 275.5 1057 c 128,-1,9
 185 1022 185 1022 130 942.5 c 128,-1,10
 75 863 75 863 75 746 c 0,11,12
 75 669 75 669 102.5 611 c 128,-1,13
 130 553 130 553 173.5 519 c 128,-1,14
 217 485 217 485 269.5 460.5 c 128,-1,15
 322 436 322 436 375 419 c 128,-1,16
 428 402 428 402 471.5 386 c 128,-1,17
 515 370 515 370 542.5 345.5 c 128,-1,18
 570 321 570 321 570 287 c 0,19,20
 570 249 570 249 536.5 229 c 128,-1,21
 503 209 503 209 462 209 c 0,22,23
 396 209 396 209 350 263.5 c 128,-1,24
 304 318 304 318 292 387 c 1,25,-1
 71 387 l 1,26,-1
 64 9 l 1,27,-1
 241 9 l 1,28,-1
 277 76 l 1,29,30
 377 -18 377 -18 585 -18 c 0,31,32
 788 -18 788 -18 892 87 c 128,-1,33
 996 192 996 192 996 395 c 0,34,35
 996 621 996 621 755 719 c 0,36,37
 741 724 741 724 694 736 c 128,-1,38
 647 748 647 748 612 759 c 128,-1,39
 577 770 577 770 547 793 c 128,-1,40
 517 816 517 816 517 846 c 0,41,42
 517 881 517 881 544.5 900.5 c 128,-1,43
 572 920 572 920 609 920 c 0,44,45
 643 920 643 920 678 902 c 128,-1,46
 713 884 713 884 732 856 c 0,47,48
 736 851 736 851 747 827 c 128,-1,49
 758 803 758 803 767 782 c 2,50,-1
 775 761 l 1,51,-1
 976 761 l 1,0,-1
EndSplineSet
EndChar

StartChar: t
Encoding: 116 116 87
Width: 873
GlyphClass: 2
Flags: W
LayerCount: 2
Fore
SplineSet
837 348 m 1,0,1
 774 334 774 334 729 334 c 0,2,3
 673 334 673 334 652 366.5 c 128,-1,4
 631 399 631 399 631 438 c 2,5,-1
 632 761 l 1,6,-1
 784 761 l 1,7,-1
 784 1072 l 1,8,-1
 632 1072 l 1,9,-1
 632 1406 l 1,10,-1
 145 1301 l 1,11,-1
 145 1072 l 1,12,-1
 42 1072 l 1,13,-1
 42 761 l 1,14,-1
 150 761 l 1,15,-1
 149 385 l 2,16,17
 147 -18 147 -18 529 -18 c 0,18,19
 609 -18 609 -18 686 -1.5 c 128,-1,20
 763 15 763 15 800 32 c 2,21,-1
 837 49 l 1,22,-1
 837 348 l 1,0,1
EndSplineSet
EndChar

StartChar: u
Encoding: 117 117 88
Width: 1465
GlyphClass: 2
Flags: W
LayerCount: 2
Fore
SplineSet
821 156 m 1,0,1
 766 71 766 71 673.5 26.5 c 128,-1,2
 581 -18 581 -18 463 -18 c 0,3,4
 133 -18 133 -18 133 385 c 2,5,-1
 133 761 l 1,6,-1
 53 761 l 1,7,-1
 53 1072 l 1,8,-1
 627 1072 l 1,9,-1
 627 438 l 2,10,11
 627 385 627 385 654 351.5 c 128,-1,12
 681 318 681 318 717 318 c 0,13,14
 764 318 764 318 792.5 352.5 c 128,-1,15
 821 387 821 387 821 438 c 2,16,-1
 821 761 l 1,17,-1
 740 761 l 1,18,-1
 740 1072 l 1,19,-1
 1315 1072 l 1,20,-1
 1315 305 l 1,21,-1
 1391 305 l 1,22,-1
 1391 0 l 1,23,-1
 821 0 l 1,24,-1
 821 156 l 1,0,1
EndSplineSet
EndChar

StartChar: v
Encoding: 118 118 89
Width: 1314
GlyphClass: 2
Flags: W
LayerCount: 2
Fore
SplineSet
762 1072 m 1,0,-1
 762 761 l 1,1,2
 822 761 822 761 849.5 742 c 128,-1,3
 877 723 877 723 861 680 c 2,4,-1
 730 338 l 1,5,-1
 561 761 l 1,6,-1
 652 761 l 1,7,-1
 652 1072 l 1,8,-1
 8 1072 l 1,9,-1
 8 761 l 1,10,-1
 82 761 l 1,11,-1
 402 0 l 1,12,-1
 875 0 l 1,13,-1
 1166 682 l 2,14,15
 1183 723 1183 723 1213 742 c 128,-1,16
 1243 761 1243 761 1309 761 c 1,17,-1
 1309 1072 l 1,18,-1
 762 1072 l 1,0,-1
EndSplineSet
EndChar

StartChar: w
Encoding: 119 119 90
Width: 1929
GlyphClass: 2
Flags: W
LayerCount: 2
Fore
SplineSet
797 0 m 1,0,-1
 948 430 l 1,1,-1
 1078 0 l 1,2,-1
 1553 0 l 1,3,-1
 1706 483 l 2,4,5
 1712 503 1712 503 1722.5 540.5 c 128,-1,6
 1733 578 1733 578 1739.5 598.5 c 128,-1,7
 1746 619 1746 619 1758 649 c 128,-1,8
 1770 679 1770 679 1783 695.5 c 128,-1,9
 1796 712 1796 712 1815.5 729 c 128,-1,10
 1835 746 1835 746 1861.5 753.5 c 128,-1,11
 1888 761 1888 761 1921 761 c 1,12,-1
 1921 1072 l 1,13,-1
 1364 1072 l 1,14,-1
 1364 761 l 1,15,16
 1376 761 1376 761 1384.5 760.5 c 128,-1,17
 1393 760 1393 760 1405.5 759.5 c 128,-1,18
 1418 759 1418 759 1426 756.5 c 128,-1,19
 1434 754 1434 754 1444 750.5 c 128,-1,20
 1454 747 1454 747 1459 741 c 128,-1,21
 1464 735 1464 735 1468 727 c 128,-1,22
 1472 719 1472 719 1472 707.5 c 128,-1,23
 1472 696 1472 696 1468 682 c 2,24,-1
 1383 380 l 1,25,26
 1364 430 1364 430 1309.5 603 c 128,-1,27
 1255 776 1255 776 1210 924 c 2,28,-1
 1165 1072 l 1,29,-1
 899 1072 l 1,30,-1
 689 392 l 1,31,-1
 576 761 l 1,32,-1
 690 761 l 1,33,-1
 690 1072 l 1,34,-1
 26 1072 l 1,35,-1
 26 761 l 1,36,-1
 95 761 l 1,37,-1
 353 0 l 1,38,-1
 797 0 l 1,0,-1
EndSplineSet
EndChar

StartChar: x
Encoding: 120 120 91
Width: 1199
GlyphClass: 2
Flags: W
LayerCount: 2
Fore
SplineSet
1166 0 m 1,0,-1
 713 0 l 1,1,-1
 524 277 l 1,2,-1
 317 0 l 1,3,-1
 40 0 l 1,4,-1
 40 305 l 1,5,-1
 171 305 l 1,6,-1
 351 512 l 1,7,-1
 169 761 l 1,8,-1
 60 761 l 1,9,-1
 60 1072 l 1,10,-1
 534 1072 l 1,11,-1
 696 821 l 1,12,-1
 881 1072 l 1,13,-1
 1135 1072 l 1,14,-1
 1135 761 l 1,15,-1
 1025 761 l 1,16,-1
 862 580 l 1,17,-1
 1055 305 l 1,18,-1
 1166 305 l 1,19,-1
 1166 0 l 1,0,-1
EndSplineSet
EndChar

StartChar: y
Encoding: 121 121 92
Width: 1377
GlyphClass: 2
Flags: W
LayerCount: 2
Fore
SplineSet
360 -377 m 1,0,-1
 1051 -377 l 1,1,-1
 1051 -82 l 1,2,-1
 819 -82 l 1,3,-1
 1197 628 l 2,4,5
 1218 668 1218 668 1228 684.5 c 128,-1,6
 1238 701 1238 701 1259 723 c 128,-1,7
 1280 745 1280 745 1307 753 c 128,-1,8
 1334 761 1334 761 1373 761 c 1,9,-1
 1373 1072 l 1,10,-1
 793 1072 l 1,11,-1
 793 761 l 1,12,13
 863 761 863 761 883 751 c 0,14,15
 920 731 920 731 888 662 c 2,16,-1
 791 454 l 1,17,-1
 615 761 l 1,18,-1
 683 761 l 1,19,-1
 683 1072 l 1,20,-1
 3 1072 l 1,21,-1
 3 761 l 1,22,-1
 91 761 l 1,23,-1
 557 31 l 1,24,-1
 360 -377 l 1,0,-1
EndSplineSet
EndChar

StartChar: z
Encoding: 122 122 93
Width: 1214
GlyphClass: 2
Flags: W
LayerCount: 2
Fore
SplineSet
64 0 m 1,0,-1
 1149 0 l 1,1,-1
 1149 451 l 1,2,-1
 966 451 l 1,3,4
 956 414 956 414 945.5 389.5 c 128,-1,5
 935 365 935 365 919.5 348.5 c 128,-1,6
 904 332 904 332 891.5 323.5 c 128,-1,7
 879 315 879 315 852 310.5 c 128,-1,8
 825 306 825 306 805.5 305.5 c 128,-1,9
 786 305 786 305 744 305 c 2,10,-1
 643 305 l 1,11,-1
 643 316 l 1,12,-1
 1112 795 l 1,13,-1
 1112 1072 l 1,14,-1
 90 1072 l 1,15,-1
 90 636 l 1,16,-1
 287 636 l 1,17,18
 287 659 287 659 290.5 677 c 128,-1,19
 294 695 294 695 303 708 c 128,-1,20
 312 721 312 721 320.5 730.5 c 128,-1,21
 329 740 329 740 346.5 745.5 c 128,-1,22
 364 751 364 751 376 754.5 c 128,-1,23
 388 758 388 758 413 759 c 128,-1,24
 438 760 438 760 453 760.5 c 128,-1,25
 468 761 468 761 498 761 c 2,26,-1
 558 761 l 1,27,-1
 558 750 l 1,28,-1
 64 283 l 1,29,-1
 64 0 l 1,0,-1
EndSplineSet
EndChar

StartChar: braceleft
Encoding: 123 123 94
Width: 873
GlyphClass: 2
Flags: W
LayerCount: 2
Fore
SplineSet
169 1128 m 0,0,1
 169 1246 169 1246 208.5 1348.5 c 128,-1,2
 248 1451 248 1451 325 1531.5 c 128,-1,3
 402 1612 402 1612 528 1658 c 128,-1,4
 654 1704 654 1704 815 1704 c 1,5,-1
 815 1373 l 1,6,7
 653 1373 653 1373 653 1127 c 0,8,9
 653 936 653 936 402 843 c 1,10,11
 653 751 653 751 653 560 c 0,12,13
 653 314 653 314 815 314 c 1,14,-1
 815 -17 l 1,15,16
 654 -17 654 -17 528 29 c 128,-1,17
 402 75 402 75 325 155.5 c 128,-1,18
 248 236 248 236 208.5 338.5 c 128,-1,19
 169 441 169 441 169 559 c 0,20,21
 169 591 169 591 163.5 615 c 128,-1,22
 158 639 158 639 142.5 664.5 c 128,-1,23
 127 690 127 690 92 705 c 128,-1,24
 57 720 57 720 4 722 c 1,25,-1
 4 965 l 1,26,27
 57 967 57 967 92 982 c 128,-1,28
 127 997 127 997 142.5 1022.5 c 128,-1,29
 158 1048 158 1048 163.5 1072 c 128,-1,30
 169 1096 169 1096 169 1128 c 0,0,1
EndSplineSet
EndChar

StartChar: bar
Encoding: 124 124 95
Width: 685
GlyphClass: 2
Flags: W
LayerCount: 2
Fore
SplineSet
540 1623 m 1,0,-1
 540 0 l 1,1,-1
 145 0 l 1,2,-1
 145 1623 l 1,3,-1
 540 1623 l 1,0,-1
EndSplineSet
EndChar

StartChar: braceright
Encoding: 125 125 96
Width: 872
GlyphClass: 2
Flags: W
LayerCount: 2
Fore
SplineSet
704 1128 m 0,0,1
 704 1096 704 1096 709.5 1072 c 128,-1,2
 715 1048 715 1048 730.5 1022.5 c 128,-1,3
 746 997 746 997 781 982 c 128,-1,4
 816 967 816 967 869 965 c 1,5,-1
 869 722 l 1,6,7
 816 720 816 720 781 705 c 128,-1,8
 746 690 746 690 730.5 664.5 c 128,-1,9
 715 639 715 639 709.5 615 c 128,-1,10
 704 591 704 591 704 559 c 0,11,12
 704 441 704 441 664.5 338.5 c 128,-1,13
 625 236 625 236 548 155.5 c 128,-1,14
 471 75 471 75 345 29 c 128,-1,15
 219 -17 219 -17 58 -17 c 1,16,-1
 58 314 l 1,17,18
 220 314 220 314 220 560 c 0,19,20
 220 751 220 751 471 843 c 1,21,22
 220 936 220 936 220 1127 c 0,23,24
 220 1373 220 1373 58 1373 c 1,25,-1
 58 1704 l 1,26,27
 219 1704 219 1704 345 1658 c 128,-1,28
 471 1612 471 1612 548 1531.5 c 128,-1,29
 625 1451 625 1451 664.5 1348.5 c 128,-1,30
 704 1246 704 1246 704 1128 c 0,0,1
EndSplineSet
EndChar

StartChar: asciitilde
Encoding: 126 126 97
Width: 1289
GlyphClass: 2
Flags: W
LayerCount: 2
Fore
SplineSet
914 629 m 0,0,1
 859 629 859 629 799.5 650 c 128,-1,2
 740 671 740 671 688 700.5 c 128,-1,3
 636 730 636 730 586.5 760 c 128,-1,4
 537 790 537 790 484.5 811 c 128,-1,5
 432 832 432 832 388 832 c 0,6,7
 361 832 361 832 323 798 c 128,-1,8
 285 764 285 764 176 634 c 1,9,-1
 45 720 l 1,10,11
 69 757 69 757 99.5 820 c 128,-1,12
 130 883 130 883 155 929.5 c 128,-1,13
 180 976 180 976 214 1023.5 c 128,-1,14
 248 1071 248 1071 294.5 1096.5 c 128,-1,15
 341 1122 341 1122 399 1122 c 0,16,17
 454 1122 454 1122 513.5 1101.5 c 128,-1,18
 573 1081 573 1081 625 1051.5 c 128,-1,19
 677 1022 677 1022 727.5 993 c 128,-1,20
 778 964 778 964 831 943.5 c 128,-1,21
 884 923 884 923 928 923 c 0,22,23
 953 923 953 923 993.5 958 c 128,-1,24
 1034 993 1034 993 1137 1117 c 1,25,-1
 1266 1032 l 1,26,27
 1242 996 1242 996 1211.5 933.5 c 128,-1,28
 1181 871 1181 871 1156.5 823.5 c 128,-1,29
 1132 776 1132 776 1098 728.5 c 128,-1,30
 1064 681 1064 681 1018 655 c 128,-1,31
 972 629 972 629 914 629 c 0,0,1
EndSplineSet
EndChar

StartChar: exclamdown
Encoding: 161 161 99
Width: 804
GlyphClass: 2
Flags: W
LayerCount: 2
Fore
SplineSet
611 1072 m 1,0,-1
 190 1074 l 1,1,-1
 108 299 l 1,2,-1
 108 0 l 1,3,-1
 695 0 l 1,4,-1
 695 299 l 1,5,-1
 611 1072 l 1,0,-1
400 1158 m 0,6,7
 281 1158 281 1158 202 1225.5 c 128,-1,8
 123 1293 123 1293 123 1408 c 0,9,10
 123 1521 123 1521 200.5 1587 c 128,-1,11
 278 1653 278 1653 400 1653 c 0,12,13
 527 1653 527 1653 607 1587 c 128,-1,14
 687 1521 687 1521 687 1408 c 0,15,16
 687 1293 687 1293 604.5 1225.5 c 128,-1,17
 522 1158 522 1158 400 1158 c 0,6,7
EndSplineSet
EndChar

StartChar: cent
Encoding: 162 162 100
Width: 1149
GlyphClass: 2
Flags: W
LayerCount: 2
Fore
SplineSet
733 1362 m 1,0,-1
 733 1057 l 1,1,2
 783 1034 783 1034 833 995 c 1,3,-1
 874 1072 l 1,4,-1
 1049 1072 l 1,5,-1
 1049 628 l 1,6,-1
 807 628 l 1,7,8
 807 677 807 677 786.5 713.5 c 128,-1,9
 766 750 766 750 733 766 c 1,10,-1
 733 305 l 1,11,12
 752 313 752 313 767 329 c 128,-1,13
 782 345 782 345 790 360 c 128,-1,14
 798 375 798 375 803 392 c 128,-1,15
 808 409 808 409 809.5 415 c 128,-1,16
 811 421 811 421 811 425 c 1,17,-1
 1051 425 l 1,18,-1
 1051 124 l 1,19,20
 948 21 948 21 733 -9 c 1,21,-1
 733 -261 l 1,22,-1
 621 -261 l 1,23,-1
 621 -18 l 1,24,-1
 608 -18 l 2,25,26
 450 -18 450 -18 326.5 45.5 c 128,-1,27
 203 109 203 109 129.5 238.5 c 128,-1,28
 56 368 56 368 56 546 c 0,29,30
 56 655 56 655 92.5 754 c 128,-1,31
 129 853 129 853 194.5 928 c 128,-1,32
 260 1003 260 1003 359 1047.5 c 128,-1,33
 458 1092 458 1092 575 1092 c 0,34,35
 598 1092 598 1092 621 1089 c 1,36,-1
 621 1362 l 1,37,-1
 733 1362 l 1,0,-1
529 513 m 0,38,39
 529 446 529 446 551 389 c 128,-1,40
 573 332 573 332 621 309 c 1,41,-1
 621 759 l 1,42,43
 529 701 529 701 529 513 c 0,38,39
EndSplineSet
EndChar

StartChar: sterling
Encoding: 163 163 101
Width: 1285
GlyphClass: 2
Flags: W
LayerCount: 2
Fore
SplineSet
745 365 m 1,0,-1
 776 356 l 1,1,2
 808 348 808 348 882 339.5 c 128,-1,3
 956 331 956 331 1041 331 c 0,4,5
 1117 331 1117 331 1216 340 c 1,6,-1
 1216 29 l 1,7,8
 1079 -18 1079 -18 944 -18 c 0,9,10
 690 -18 690 -18 690 153 c 1,11,12
 586 -19 586 -19 348 -19 c 0,13,14
 236 -19 236 -19 65 29 c 1,15,-1
 65 340 l 1,16,17
 123 327 123 327 161 327 c 0,18,19
 223 327 223 327 247 368.5 c 128,-1,20
 271 410 271 410 271 520 c 2,21,-1
 271 760 l 1,22,-1
 147 760 l 1,23,-1
 147 993 l 1,24,-1
 271 993 l 1,25,-1
 271 1207 l 2,26,27
 271 1293 271 1293 306.5 1362.5 c 128,-1,28
 342 1432 342 1432 399.5 1477 c 128,-1,29
 457 1522 457 1522 535.5 1552.5 c 128,-1,30
 614 1583 614 1583 696 1596 c 128,-1,31
 778 1609 778 1609 865 1609 c 0,32,33
 1050 1609 1050 1609 1182 1563 c 1,34,-1
 1182 1252 l 1,35,36
 1060 1265 1060 1265 974 1265 c 0,37,38
 863 1265 863 1265 804 1231.5 c 128,-1,39
 745 1198 745 1198 745 1117 c 2,40,-1
 745 993 l 1,41,-1
 998 993 l 1,42,-1
 998 760 l 1,43,-1
 745 760 l 1,44,-1
 745 519 l 1,45,-1
 745 365 l 1,0,-1
EndSplineSet
EndChar

StartChar: currency
Encoding: 164 164 102
Width: 1292
GlyphClass: 2
Flags: W
LayerCount: 2
Fore
SplineSet
70 1097 m 0,0,1
 70 1307 70 1307 185 1450 c 1,2,-1
 118 1518 l 1,3,-1
 221 1621 l 1,4,-1
 292 1549 l 1,5,6
 445 1654 445 1654 644 1654 c 0,7,8
 849 1654 849 1654 1002 1544 c 1,9,-1
 1079 1621 l 1,10,-1
 1182 1518 l 1,11,-1
 1108 1444 l 1,12,13
 1218 1302 1218 1302 1218 1097 c 0,14,15
 1218 884 1218 884 1101 741 c 1,16,-1
 1182 660 l 1,17,-1
 1079 557 l 1,18,-1
 993 643 l 1,19,20
 842 540 842 540 644 540 c 0,21,22
 450 540 450 540 302 638 c 1,23,-1
 221 557 l 1,24,-1
 118 660 l 1,25,-1
 192 734 l 1,26,27
 70 879 70 879 70 1097 c 0,0,1
991 1269 m 1,28,29
 959 1347 959 1347 904.5 1394.5 c 128,-1,30
 850 1442 850 1442 783 1467.5 c 128,-1,31
 716 1493 716 1493 644 1493 c 128,-1,32
 572 1493 572 1493 505 1467.5 c 128,-1,33
 438 1442 438 1442 383.5 1394.5 c 128,-1,34
 329 1347 329 1347 296.5 1269.5 c 128,-1,35
 264 1192 264 1192 264 1097 c 128,-1,36
 264 1002 264 1002 296.5 924.5 c 128,-1,37
 329 847 329 847 383.5 799.5 c 128,-1,38
 438 752 438 752 505 726.5 c 128,-1,39
 572 701 572 701 644 701 c 128,-1,40
 716 701 716 701 783 726.5 c 128,-1,41
 850 752 850 752 904.5 799.5 c 128,-1,42
 959 847 959 847 991.5 924.5 c 128,-1,43
 1024 1002 1024 1002 1024 1097 c 128,-1,44
 1024 1192 1024 1192 991 1269 c 1,28,29
EndSplineSet
EndChar

StartChar: yen
Encoding: 165 165 103
Width: 1708
GlyphClass: 2
Flags: W
LayerCount: 2
Fore
SplineSet
171 936 m 1,0,-1
 171 762 l 1,1,-1
 530 762 l 1,2,-1
 593 672 l 1,3,-1
 593 630 l 1,4,-1
 171 630 l 1,5,-1
 171 456 l 1,6,-1
 593 456 l 1,7,-1
 593 371 l 1,8,-1
 438 371 l 1,9,-1
 438 0 l 1,10,-1
 1307 0 l 1,11,-1
 1307 371 l 1,12,-1
 1150 371 l 1,13,-1
 1150 456 l 1,14,-1
 1564 456 l 1,15,-1
 1564 630 l 1,16,-1
 1150 630 l 1,17,-1
 1150 762 l 1,18,-1
 1564 762 l 1,19,-1
 1564 936 l 1,20,-1
 1253 936 l 1,21,-1
 1354 1095 l 1,22,23
 1379 1141 1379 1141 1390 1160 c 128,-1,24
 1401 1179 1401 1179 1421.5 1206.5 c 128,-1,25
 1442 1234 1442 1234 1459.5 1244.5 c 128,-1,26
 1477 1255 1477 1255 1503.5 1263.5 c 128,-1,27
 1530 1272 1530 1272 1565 1272 c 2,28,-1
 1639 1272 l 1,29,-1
 1639 1622 l 1,30,-1
 1002 1622 l 1,31,-1
 1002 1272 l 1,32,33
 1077 1272 1077 1272 1092 1266 c 0,34,35
 1119 1257 1119 1257 1119 1221 c 0,36,37
 1119 1166 1119 1166 1005 993 c 1,38,39
 984 1024 984 1024 913.5 1134 c 128,-1,40
 843 1244 843 1244 821 1274 c 1,41,-1
 912 1274 l 1,42,-1
 912 1622 l 1,43,-1
 60 1622 l 1,44,-1
 60 1274 l 1,45,-1
 172 1274 l 1,46,-1
 408 936 l 1,47,-1
 171 936 l 1,0,-1
EndSplineSet
EndChar

StartChar: brokenbar
Encoding: 166 166 104
Width: 687
GlyphClass: 2
Flags: W
LayerCount: 2
Fore
SplineSet
541 721 m 1,0,-1
 541 0 l 1,1,-1
 146 0 l 1,2,-1
 146 721 l 1,3,-1
 541 721 l 1,0,-1
541 1623 m 1,4,-1
 541 902 l 1,5,-1
 146 902 l 1,6,-1
 146 1623 l 1,7,-1
 541 1623 l 1,4,-1
EndSplineSet
EndChar

StartChar: section
Encoding: 167 167 105
Width: 1080
GlyphClass: 2
Flags: W
LayerCount: 2
Fore
SplineSet
76 837 m 0,0,1
 76 922 76 922 132 993 c 128,-1,2
 188 1064 188 1064 280 1097 c 1,3,4
 115 1216 115 1216 115 1356 c 0,5,6
 115 1474 115 1474 216.5 1556 c 128,-1,7
 318 1638 318 1638 466 1638 c 0,8,9
 518 1638 518 1638 565 1631 c 128,-1,10
 612 1624 612 1624 639.5 1615 c 128,-1,11
 667 1606 667 1606 690.5 1595 c 128,-1,12
 714 1584 714 1584 720.5 1579.5 c 128,-1,13
 727 1575 727 1575 730 1572 c 1,14,-1
 757 1623 l 1,15,-1
 925 1623 l 1,16,-1
 925 1300 l 1,17,-1
 724 1300 l 1,18,-1
 681 1395 l 1,19,20
 664 1427 664 1427 635.5 1446.5 c 128,-1,21
 607 1466 607 1466 578 1466 c 0,22,23
 546 1466 546 1466 520.5 1442.5 c 128,-1,24
 495 1419 495 1419 495 1377 c 0,25,26
 495 1349 495 1349 523.5 1320 c 128,-1,27
 552 1291 552 1291 598 1264 c 128,-1,28
 644 1237 644 1237 699 1207 c 128,-1,29
 754 1177 754 1177 809 1141 c 128,-1,30
 864 1105 864 1105 910 1064.5 c 128,-1,31
 956 1024 956 1024 984.5 969.5 c 128,-1,32
 1013 915 1013 915 1013 855 c 0,33,34
 1013 751 1013 751 957 668 c 128,-1,35
 901 585 901 585 801 555 c 1,36,37
 962 457 962 457 962 296 c 0,38,39
 962 175 962 175 859 78.5 c 128,-1,40
 756 -18 756 -18 606 -18 c 0,41,42
 511 -18 511 -18 440.5 -1.5 c 128,-1,43
 370 15 370 15 318 68 c 1,44,-1
 282 1 l 1,45,-1
 112 1 l 1,46,-1
 112 379 l 1,47,-1
 333 379 l 1,48,49
 345 311 345 311 394 260 c 128,-1,50
 443 209 443 209 513 209 c 0,51,52
 547 209 547 209 574 229 c 128,-1,53
 601 249 601 249 601 287 c 0,54,55
 601 323 601 323 572 358.5 c 128,-1,56
 543 394 543 394 496.5 425 c 128,-1,57
 450 456 450 456 394 488 c 128,-1,58
 338 520 338 520 282.5 556.5 c 128,-1,59
 227 593 227 593 180.5 633 c 128,-1,60
 134 673 134 673 105 726 c 128,-1,61
 76 779 76 779 76 837 c 0,0,1
497 988 m 1,62,63
 395 938 395 938 395 878 c 0,64,65
 395 830 395 830 463.5 781 c 128,-1,66
 532 732 532 732 638 689 c 1,67,68
 724 744 724 744 724 821 c 0,69,70
 724 870 724 870 657.5 915 c 128,-1,71
 591 960 591 960 497 988 c 1,62,63
EndSplineSet
EndChar

StartChar: dieresis
Encoding: 168 168 106
Width: 1707
GlyphClass: 2
Flags: W
LayerCount: 2
Fore
SplineSet
720 1342 m 0,0,1
 720 1234 720 1234 653.5 1173 c 128,-1,2
 587 1112 587 1112 496 1112 c 0,3,4
 403 1112 403 1112 335.5 1173.5 c 128,-1,5
 268 1235 268 1235 268 1345 c 0,6,7
 268 1452 268 1452 335 1512 c 128,-1,8
 402 1572 402 1572 494 1572 c 128,-1,9
 586 1572 586 1572 653 1511.5 c 128,-1,10
 720 1451 720 1451 720 1342 c 0,0,1
1337 1342 m 0,11,12
 1337 1234 1337 1234 1270.5 1173 c 128,-1,13
 1204 1112 1204 1112 1113 1112 c 0,14,15
 1020 1112 1020 1112 952.5 1173.5 c 128,-1,16
 885 1235 885 1235 885 1345 c 0,17,18
 885 1452 885 1452 952 1512 c 128,-1,19
 1019 1572 1019 1572 1111 1572 c 128,-1,20
 1203 1572 1203 1572 1270 1511.5 c 128,-1,21
 1337 1451 1337 1451 1337 1342 c 0,11,12
EndSplineSet
EndChar

StartChar: copyright
Encoding: 169 169 107
Width: 1806
GlyphClass: 2
Flags: W
LayerCount: 2
Fore
SplineSet
129 1106 m 0,0,1
 196 1256 196 1256 308.5 1364.5 c 128,-1,2
 421 1473 421 1473 576.5 1537.5 c 128,-1,3
 732 1602 732 1602 903 1602 c 128,-1,4
 1074 1602 1074 1602 1229.5 1537.5 c 128,-1,5
 1385 1473 1385 1473 1497.5 1364.5 c 128,-1,6
 1610 1256 1610 1256 1676.5 1106 c 128,-1,7
 1743 956 1743 956 1743 792 c 128,-1,8
 1743 628 1743 628 1676.5 478 c 128,-1,9
 1610 328 1610 328 1497.5 219.5 c 128,-1,10
 1385 111 1385 111 1229.5 46.5 c 128,-1,11
 1074 -18 1074 -18 903 -18 c 128,-1,12
 732 -18 732 -18 576.5 46.5 c 128,-1,13
 421 111 421 111 308.5 219.5 c 128,-1,14
 196 328 196 328 129.5 478 c 128,-1,15
 63 628 63 628 63 792 c 128,-1,16
 63 956 63 956 129 1106 c 0,0,1
903 1448 m 0,17,18
 768 1448 768 1448 645 1396 c 128,-1,19
 522 1344 522 1344 432.5 1256 c 128,-1,20
 343 1168 343 1168 290 1046.5 c 128,-1,21
 237 925 237 925 237 792 c 128,-1,22
 237 659 237 659 290 537.5 c 128,-1,23
 343 416 343 416 432.5 328 c 128,-1,24
 522 240 522 240 645 188 c 128,-1,25
 768 136 768 136 903 136 c 0,26,27
 1083 136 1083 136 1236.5 224 c 128,-1,28
 1390 312 1390 312 1479.5 463 c 128,-1,29
 1569 614 1569 614 1569 792 c 128,-1,30
 1569 970 1569 970 1479.5 1121 c 128,-1,31
 1390 1272 1390 1272 1236.5 1360 c 128,-1,32
 1083 1448 1083 1448 903 1448 c 0,17,18
1275 398 m 1,33,-1
 1257 383 l 2,34,35
 1239 368 1239 368 1202 346.5 c 128,-1,36
 1165 325 1165 325 1119 303.5 c 128,-1,37
 1073 282 1073 282 1007 267 c 128,-1,38
 941 252 941 252 875 252 c 0,39,40
 639 252 639 252 513.5 394 c 128,-1,41
 388 536 388 536 388 780 c 0,42,43
 388 860 388 860 403 936 c 128,-1,44
 418 1012 418 1012 452 1082 c 128,-1,45
 486 1152 486 1152 535.5 1204 c 128,-1,46
 585 1256 585 1256 659 1287 c 128,-1,47
 733 1318 733 1318 822 1318 c 0,48,49
 984 1318 984 1318 1050 1254 c 1,50,-1
 1072 1299 l 1,51,-1
 1269 1299 l 1,52,-1
 1269 898 l 1,53,-1
 1080 898 l 1,54,55
 1081 944 1081 944 1068 985 c 128,-1,56
 1055 1026 1055 1026 1020 1057 c 128,-1,57
 985 1088 985 1088 932 1088 c 0,58,59
 897 1088 897 1088 871 1076 c 128,-1,60
 845 1064 845 1064 829 1040.5 c 128,-1,61
 813 1017 813 1017 803 992.5 c 128,-1,62
 793 968 793 968 788.5 932.5 c 128,-1,63
 784 897 784 897 783 872 c 128,-1,64
 782 847 782 847 782 812 c 0,65,66
 782 805 782 805 781.5 776.5 c 128,-1,67
 781 748 781 748 781.5 735.5 c 128,-1,68
 782 723 782 723 783 694 c 128,-1,69
 784 665 784 665 787 649.5 c 128,-1,70
 790 634 790 634 795.5 609 c 128,-1,71
 801 584 801 584 809 569.5 c 128,-1,72
 817 555 817 555 829 537.5 c 128,-1,73
 841 520 841 520 856.5 510.5 c 128,-1,74
 872 501 872 501 893 494.5 c 128,-1,75
 914 488 914 488 940 488 c 0,76,77
 992 488 992 488 1030.5 517.5 c 128,-1,78
 1069 547 1069 547 1079 598 c 0,79,80
 1082 611 1082 611 1084 658 c 1,81,-1
 1275 658 l 1,82,-1
 1275 398 l 1,33,-1
EndSplineSet
EndChar

StartChar: ordfeminine
Encoding: 170 170 108
Width: 999
GlyphClass: 2
Flags: W
LayerCount: 2
Fore
SplineSet
37 1046 m 0,0,1
 37 1103 37 1103 64.5 1149.5 c 128,-1,2
 92 1196 92 1196 138 1225 c 128,-1,3
 184 1254 184 1254 240.5 1269 c 128,-1,4
 297 1284 297 1284 358 1284 c 0,5,6
 466 1284 466 1284 547 1256 c 1,7,-1
 547 1289 l 2,8,9
 547 1411 547 1411 391 1411 c 0,10,11
 286 1411 286 1411 233 1341 c 1,12,-1
 103 1341 l 1,13,-1
 103 1573 l 1,14,-1
 153 1586 l 2,15,16
 202 1599 202 1599 291.5 1612 c 128,-1,17
 381 1625 381 1625 460 1625 c 0,18,19
 490 1625 490 1625 514.5 1624 c 128,-1,20
 539 1623 539 1623 585 1618 c 128,-1,21
 631 1613 631 1613 667 1603.5 c 128,-1,22
 703 1594 703 1594 744.5 1575.5 c 128,-1,23
 786 1557 786 1557 813.5 1531 c 128,-1,24
 841 1505 841 1505 860 1464 c 128,-1,25
 879 1423 879 1423 879 1372 c 2,26,-1
 879 1044 l 1,27,-1
 935 1044 l 1,28,-1
 935 819 l 1,29,-1
 587 819 l 1,30,-1
 550 907 l 1,31,32
 513 859 513 859 449 832.5 c 128,-1,33
 385 806 385 806 324 806 c 0,34,35
 205 806 205 806 121 871 c 128,-1,36
 37 936 37 936 37 1046 c 0,0,1
399 1060 m 0,37,38
 399 1026 399 1026 418 1005 c 128,-1,39
 437 984 437 984 469 984 c 0,40,41
 493 984 493 984 513.5 993.5 c 128,-1,42
 534 1003 534 1003 540 1009 c 128,-1,43
 546 1015 546 1015 549 1018 c 1,44,-1
 549 1127 l 1,45,-1
 539 1131 l 2,46,47
 528 1135 528 1135 510 1138.5 c 128,-1,48
 492 1142 492 1142 476 1142 c 0,49,50
 444 1142 444 1142 421.5 1116.5 c 128,-1,51
 399 1091 399 1091 399 1060 c 0,37,38
EndSplineSet
EndChar

StartChar: guillemotleft
Encoding: 171 171 109
Width: 1306
GlyphClass: 2
Flags: W
LayerCount: 2
Fore
SplineSet
643 669 m 1,0,-1
 1069 1073 l 1,1,-1
 1260 849 l 1,2,-1
 945 534 l 1,3,-1
 1260 219 l 1,4,-1
 1069 -5 l 1,5,-1
 643 399 l 1,6,-1
 643 669 l 1,0,-1
33 669 m 1,7,-1
 459 1073 l 1,8,-1
 650 849 l 1,9,-1
 335 534 l 1,10,-1
 650 219 l 1,11,-1
 459 -5 l 1,12,-1
 33 399 l 1,13,-1
 33 669 l 1,7,-1
EndSplineSet
EndChar

StartChar: logicalnot
Encoding: 172 172 110
Width: 1195
GlyphClass: 2
Flags: W
LayerCount: 2
Fore
SplineSet
78 1092 m 1,0,-1
 1089 1092 l 1,1,-1
 1089 542 l 1,2,-1
 858 542 l 1,3,-1
 858 761 l 1,4,-1
 79 761 l 1,5,-1
 78 1092 l 1,0,-1
EndSplineSet
EndChar

StartChar: uni00AD
Encoding: 173 173 111
Width: 774
GlyphClass: 2
Flags: W
LayerCount: 2
Fore
SplineSet
717 836 m 1,0,-1
 717 537 l 1,1,-1
 70 537 l 1,2,-1
 70 836 l 1,3,-1
 717 836 l 1,0,-1
EndSplineSet
EndChar

StartChar: registered
Encoding: 174 174 112
Width: 1806
GlyphClass: 2
Flags: W
LayerCount: 2
Fore
SplineSet
129 1106 m 0,0,1
 196 1256 196 1256 308.5 1364.5 c 128,-1,2
 421 1473 421 1473 576.5 1537.5 c 128,-1,3
 732 1602 732 1602 903 1602 c 128,-1,4
 1074 1602 1074 1602 1229.5 1537.5 c 128,-1,5
 1385 1473 1385 1473 1497.5 1364.5 c 128,-1,6
 1610 1256 1610 1256 1676.5 1106 c 128,-1,7
 1743 956 1743 956 1743 792 c 128,-1,8
 1743 628 1743 628 1676.5 478 c 128,-1,9
 1610 328 1610 328 1497.5 219.5 c 128,-1,10
 1385 111 1385 111 1229.5 46.5 c 128,-1,11
 1074 -18 1074 -18 903 -18 c 128,-1,12
 732 -18 732 -18 576.5 46.5 c 128,-1,13
 421 111 421 111 308.5 219.5 c 128,-1,14
 196 328 196 328 129.5 478 c 128,-1,15
 63 628 63 628 63 792 c 128,-1,16
 63 956 63 956 129 1106 c 0,0,1
903 1448 m 0,17,18
 768 1448 768 1448 645 1396 c 128,-1,19
 522 1344 522 1344 432.5 1256 c 128,-1,20
 343 1168 343 1168 290 1046.5 c 128,-1,21
 237 925 237 925 237 792 c 128,-1,22
 237 659 237 659 290 537.5 c 128,-1,23
 343 416 343 416 432.5 328 c 128,-1,24
 522 240 522 240 645 188 c 128,-1,25
 768 136 768 136 903 136 c 0,26,27
 1083 136 1083 136 1236.5 224 c 128,-1,28
 1390 312 1390 312 1479.5 463 c 128,-1,29
 1569 614 1569 614 1569 792 c 128,-1,30
 1569 970 1569 970 1479.5 1121 c 128,-1,31
 1390 1272 1390 1272 1236.5 1360 c 128,-1,32
 1083 1448 1083 1448 903 1448 c 0,17,18
923 363 m 1,33,34
 776 363 776 363 473 362 c 1,35,-1
 473 565 l 1,36,-1
 558 565 l 1,37,-1
 558 1061 l 1,38,-1
 472 1061 l 1,39,-1
 472 1265 l 1,40,-1
 1036 1265 l 2,41,42
 1178 1265 1178 1265 1254.5 1206 c 128,-1,43
 1331 1147 1331 1147 1331 1014 c 0,44,45
 1331 933 1331 933 1279 881 c 128,-1,46
 1227 829 1227 829 1131 812 c 1,47,48
 1213 793 1213 793 1249 759 c 128,-1,49
 1285 725 1285 725 1285 674 c 2,50,-1
 1285 622 l 2,51,52
 1285 589 1285 589 1301.5 575.5 c 128,-1,53
 1318 562 1318 562 1376 562 c 1,54,-1
 1376 363 l 1,55,-1
 1230 363 l 2,56,57
 1190 363 1190 363 1168 364 c 128,-1,58
 1146 365 1146 365 1112 372.5 c 128,-1,59
 1078 380 1078 380 1060 394 c 128,-1,60
 1042 408 1042 408 1028 436 c 128,-1,61
 1014 464 1014 464 1014 505 c 2,62,-1
 1014 614 l 2,63,64
 1014 681 1014 681 993.5 715 c 128,-1,65
 973 749 973 749 910 749 c 2,66,-1
 856 749 l 1,67,-1
 856 568 l 1,68,-1
 923 568 l 1,69,-1
 923 363 l 1,33,34
886 875 m 2,70,71
 1025 875 1025 875 1025 972 c 0,72,73
 1025 1016 1025 1016 997 1043.5 c 128,-1,74
 969 1071 969 1071 920 1071 c 2,75,-1
 852 1071 l 1,76,-1
 852 875 l 1,77,-1
 886 875 l 2,70,71
EndSplineSet
EndChar

StartChar: glyph113
Encoding: 175 175 113
Width: 774
GlyphClass: 2
Flags: W
LayerCount: 2
Fore
SplineSet
717 1433 m 1,0,-1
 717 1164 l 1,1,-1
 70 1164 l 1,2,-1
 70 1433 l 1,3,-1
 717 1433 l 1,0,-1
EndSplineSet
EndChar

StartChar: degree
Encoding: 176 176 114
Width: 781
GlyphClass: 2
Flags: W
LayerCount: 2
Fore
SplineSet
385 1092 m 0,0,1
 482 1092 482 1092 537.5 1152.5 c 128,-1,2
 593 1213 593 1213 593 1296 c 0,3,4
 593 1377 593 1377 538 1436 c 128,-1,5
 483 1495 483 1495 385 1495 c 0,6,7
 290 1495 290 1495 237 1436 c 128,-1,8
 184 1377 184 1377 184 1296 c 0,9,10
 184 1214 184 1214 238 1153 c 128,-1,11
 292 1092 292 1092 385 1092 c 0,0,1
385 951 m 0,12,13
 301 951 301 951 232.5 980.5 c 128,-1,14
 164 1010 164 1010 121 1059.5 c 128,-1,15
 78 1109 78 1109 55 1170 c 128,-1,16
 32 1231 32 1231 32 1297 c 0,17,18
 32 1361 32 1361 54.5 1420.5 c 128,-1,19
 77 1480 77 1480 119.5 1528 c 128,-1,20
 162 1576 162 1576 231 1604.5 c 128,-1,21
 300 1633 300 1633 385 1633 c 0,22,23
 474 1633 474 1633 545 1604.5 c 128,-1,24
 616 1576 616 1576 660 1528 c 128,-1,25
 704 1480 704 1480 727.5 1421 c 128,-1,26
 751 1362 751 1362 751 1297 c 0,27,28
 751 1231 751 1231 727 1170 c 128,-1,29
 703 1109 703 1109 658.5 1059.5 c 128,-1,30
 614 1010 614 1010 543 980.5 c 128,-1,31
 472 951 472 951 385 951 c 0,12,13
EndSplineSet
EndChar

StartChar: plusminus
Encoding: 177 177 115
Width: 849
GlyphClass: 2
Flags: W
LayerCount: 2
Fore
SplineSet
746 223 m 1,0,-1
 746 -1 l 1,1,-1
 99 -1 l 1,2,-1
 99 223 l 1,3,-1
 746 223 l 1,0,-1
69 762 m 1,4,-1
 301 762 l 1,5,-1
 301 1031 l 1,6,-1
 556 1031 l 1,7,-1
 556 762 l 1,8,-1
 781 762 l 1,9,-1
 781 517 l 1,10,-1
 556 517 l 1,11,-1
 556 278 l 1,12,-1
 301 278 l 1,13,-1
 301 517 l 1,14,-1
 69 517 l 1,15,-1
 69 762 l 1,4,-1
EndSplineSet
EndChar

StartChar: uni00B2
Encoding: 178 178 116
Width: 864
GlyphClass: 2
Flags: W
LayerCount: 2
Fore
SplineSet
108 286 m 1,0,-1
 108 468 l 1,1,2
 224 514 224 514 302 579 c 0,3,4
 348 618 348 618 371.5 642.5 c 128,-1,5
 395 667 395 667 416 710.5 c 128,-1,6
 437 754 437 754 437 803 c 1,7,8
 434 849 434 849 410 878 c 128,-1,9
 386 907 386 907 355 907 c 0,10,11
 316 907 316 907 294.5 882.5 c 128,-1,12
 273 858 273 858 273 821 c 0,13,14
 273 779 273 779 311 744 c 1,15,-1
 174 639 l 1,16,17
 82 721 82 721 85 858 c 1,18,19
 85 941 85 941 138.5 1004 c 128,-1,20
 192 1067 192 1067 270 1095.5 c 128,-1,21
 348 1124 348 1124 431 1121 c 0,22,23
 567 1116 567 1116 656 1043.5 c 128,-1,24
 745 971 745 971 745 845 c 0,25,26
 745 752 745 752 681 671 c 0,27,28
 630 605 630 605 465 481 c 1,29,-1
 562 481 l 1,30,31
 623 483 623 483 657.5 501 c 128,-1,32
 692 519 692 519 692 570 c 1,33,-1
 796 570 l 1,34,-1
 796 286 l 1,35,-1
 108 286 l 1,0,-1
EndSplineSet
EndChar

StartChar: uni00B3
Encoding: 179 179 117
Width: 824
GlyphClass: 2
Flags: W
LayerCount: 2
Fore
SplineSet
87 529 m 1,0,1
 193 443 193 443 304 443 c 0,2,3
 355 443 355 443 395 463.5 c 128,-1,4
 435 484 435 484 435 529 c 0,5,6
 435 581 435 581 391 604 c 128,-1,7
 347 627 347 627 289 627 c 0,8,9
 266 627 266 627 242 621.5 c 128,-1,10
 218 616 218 616 214 616 c 2,11,-1
 203 618 l 1,12,13
 202 621 202 621 202 621 c 1,14,-1
 202 714 l 1,15,-1
 402 884 l 1,16,-1
 402 890 l 1,17,-1
 274 890 l 2,18,19
 252 890 252 890 238 885.5 c 128,-1,20
 224 881 224 881 215.5 866.5 c 128,-1,21
 207 852 207 852 203.5 842.5 c 128,-1,22
 200 833 200 833 193 806 c 1,23,-1
 80 807 l 1,24,-1
 80 1072 l 1,25,-1
 706 1072 l 1,26,-1
 706 918 l 2,27,28
 706 916 706 916 539 779 c 1,29,30
 624 771 624 771 684.5 705.5 c 128,-1,31
 745 640 745 640 745 558 c 0,32,33
 745 420 745 420 643 345 c 128,-1,34
 541 270 541 270 365 270 c 0,35,36
 272 270 272 270 206 280.5 c 128,-1,37
 140 291 140 291 87 326 c 1,38,-1
 87 529 l 1,39,-1
 87 529 l 1,0,1
EndSplineSet
EndChar

StartChar: acute
Encoding: 180 180 118
Width: 1016
GlyphClass: 2
Flags: W
LayerCount: 2
Fore
SplineSet
851 1443 m 1,0,-1
 297 1130 l 1,1,-1
 193 1271 l 1,2,-1
 667 1708 l 1,3,-1
 851 1443 l 1,0,-1
EndSplineSet
EndChar

StartChar: uni00B5
Encoding: 181 181 119
Width: 1468
GlyphClass: 2
Flags: W
LayerCount: 2
Fore
SplineSet
827 156 m 1,0,1
 772 71 772 71 679.5 26.5 c 128,-1,2
 587 -18 587 -18 469 -18 c 0,3,4
 139 -18 139 -18 139 385 c 2,5,-1
 139 761 l 1,6,-1
 59 761 l 1,7,-1
 59 1072 l 1,8,-1
 633 1072 l 1,9,-1
 633 438 l 2,10,11
 633 385 633 385 660 351.5 c 128,-1,12
 687 318 687 318 723 318 c 0,13,14
 770 318 770 318 798.5 352.5 c 128,-1,15
 827 387 827 387 827 438 c 2,16,-1
 827 761 l 1,17,-1
 746 761 l 1,18,-1
 746 1072 l 1,19,-1
 1321 1072 l 1,20,-1
 1321 305 l 1,21,-1
 1397 305 l 1,22,-1
 1397 0 l 1,23,-1
 827 0 l 1,24,-1
 827 156 l 1,0,1
EndSplineSet
EndChar

StartChar: paragraph
Encoding: 182 182 120
Width: 1555
GlyphClass: 2
Flags: W
LayerCount: 2
Fore
SplineSet
626 739 m 1,0,1
 493 739 493 739 391.5 761 c 128,-1,2
 290 783 290 783 212 832 c 128,-1,3
 134 881 134 881 94 965 c 128,-1,4
 54 1049 54 1049 56 1166 c 0,5,6
 57 1241 57 1241 72.5 1303 c 128,-1,7
 88 1365 88 1365 115.5 1409.5 c 128,-1,8
 143 1454 143 1454 181 1489.5 c 128,-1,9
 219 1525 219 1525 265.5 1546.5 c 128,-1,10
 312 1568 312 1568 365.5 1584.5 c 128,-1,11
 419 1601 419 1601 478 1607.5 c 128,-1,12
 537 1614 537 1614 600 1619 c 128,-1,13
 663 1624 663 1624 728 1623 c 128,-1,14
 793 1622 793 1622 859 1623 c 0,15,16
 903 1623 903 1623 925 1623 c 2,17,-1
 1426 1623 l 1,18,-1
 1426 1268 l 1,19,-1
 1275 1268 l 1,20,-1
 1275 363 l 1,21,-1
 1431 363 l 1,22,-1
 1431 0 l 1,23,-1
 1022 0 l 1,24,-1
 1022 1270 l 1,25,-1
 897 1270 l 1,26,-1
 897 0 l 1,27,-1
 480 0 l 1,28,-1
 480 363 l 1,29,-1
 626 363 l 1,30,-1
 626 739 l 1,0,1
EndSplineSet
EndChar

StartChar: periodcentered
Encoding: 183 183 121
Width: 682
GlyphClass: 2
Flags: W
LayerCount: 2
Fore
SplineSet
337 514 m 0,0,1
 218 514 218 514 139 581.5 c 128,-1,2
 60 649 60 649 60 764 c 0,3,4
 60 877 60 877 137.5 943 c 128,-1,5
 215 1009 215 1009 337 1009 c 0,6,7
 464 1009 464 1009 544 943 c 128,-1,8
 624 877 624 877 624 764 c 0,9,10
 624 649 624 649 541.5 581.5 c 128,-1,11
 459 514 459 514 337 514 c 0,0,1
EndSplineSet
EndChar

StartChar: cedilla
Encoding: 184 184 122
Width: 502
GlyphClass: 2
Flags: W
LayerCount: 2
Fore
SplineSet
147 0 m 1,0,-1
 327 0 l 1,1,-1
 327 -119 l 1,2,3
 460 -196 460 -196 460 -285 c 0,4,5
 460 -367 460 -367 351.5 -426 c 128,-1,6
 243 -485 243 -485 91 -485 c 2,7,-1
 70 -485 l 1,8,-1
 70 -372 l 1,9,10
 167 -371 167 -371 212 -343 c 128,-1,11
 257 -315 257 -315 257 -271 c 0,12,13
 257 -231 257 -231 225 -188 c 128,-1,14
 193 -145 193 -145 147 -119 c 1,15,-1
 147 0 l 1,0,-1
EndSplineSet
EndChar

StartChar: uni00B9
Encoding: 185 185 123
Width: 615
GlyphClass: 2
Flags: W
LayerCount: 2
Fore
SplineSet
117 286 m 1,0,-1
 116 476 l 1,1,-1
 169 476 l 1,2,-1
 169 843 l 1,3,-1
 73 842 l 1,4,-1
 73 993 l 1,5,-1
 460 1091 l 1,6,-1
 464 476 l 1,7,-1
 520 476 l 1,8,-1
 520 286 l 1,9,-1
 117 286 l 1,0,-1
EndSplineSet
EndChar

StartChar: ordmasculine
Encoding: 186 186 124
Width: 1032
GlyphClass: 2
Flags: W
LayerCount: 2
Fore
SplineSet
70 688 m 0,0,1
 70 881 70 881 189.5 986 c 128,-1,2
 309 1091 309 1091 516 1091 c 0,3,4
 724 1091 724 1091 843 986 c 128,-1,5
 962 881 962 881 962 688 c 0,6,7
 962 493 962 493 839.5 381.5 c 128,-1,8
 717 270 717 270 516 270 c 128,-1,9
 315 270 315 270 192.5 381.5 c 128,-1,10
 70 493 70 493 70 688 c 0,0,1
415 686 m 0,11,12
 415 501 415 501 516 501 c 0,13,14
 618 501 618 501 618 686 c 0,15,16
 618 724 618 724 614.5 750.5 c 128,-1,17
 611 777 611 777 601.5 804.5 c 128,-1,18
 592 832 592 832 570.5 846 c 128,-1,19
 549 860 549 860 516 860 c 128,-1,20
 483 860 483 860 462 846 c 128,-1,21
 441 832 441 832 431 804.5 c 128,-1,22
 421 777 421 777 418 750.5 c 128,-1,23
 415 724 415 724 415 686 c 0,11,12
EndSplineSet
EndChar

StartChar: guillemotright
Encoding: 187 187 125
Width: 1306
GlyphClass: 2
Flags: W
LayerCount: 2
Fore
SplineSet
663 399 m 1,0,-1
 237 -5 l 1,1,-1
 46 219 l 1,2,-1
 361 534 l 1,3,-1
 46 849 l 1,4,-1
 237 1073 l 1,5,-1
 663 669 l 1,6,-1
 663 399 l 1,0,-1
1273 399 m 1,7,-1
 847 -5 l 1,8,-1
 656 219 l 1,9,-1
 971 534 l 1,10,-1
 656 849 l 1,11,-1
 847 1073 l 1,12,-1
 1273 669 l 1,13,-1
 1273 399 l 1,7,-1
EndSplineSet
EndChar

StartChar: onequarter
Encoding: 188 188 126
Width: 1721
GlyphClass: 2
Flags: W
LayerCount: 2
Fore
SplineSet
111 818 m 1,0,-1
 110 1008 l 1,1,-1
 163 1008 l 1,2,-1
 163 1375 l 1,3,-1
 67 1374 l 1,4,-1
 67 1525 l 1,5,-1
 454 1623 l 1,6,-1
 458 1008 l 1,7,-1
 514 1008 l 1,8,-1
 514 818 l 1,9,-1
 111 818 l 1,0,-1
348 0 m 1,10,-1
 839 1623 l 1,11,-1
 1203 1623 l 1,12,-1
 701 0 l 1,13,-1
 348 0 l 1,10,-1
1536 170 m 1,14,-1
 1608 170 l 1,15,-1
 1608 1 l 1,16,-1
 1194 1 l 1,17,-1
 1194 170 l 1,18,-1
 1268 170 l 1,19,-1
 1268 247 l 1,20,-1
 955 247 l 1,21,-1
 955 405 l 1,22,-1
 1279 789 l 1,23,-1
 1537 788 l 1,24,-1
 1537 397 l 1,25,-1
 1670 398 l 1,26,-1
 1670 247 l 1,27,-1
 1536 247 l 1,28,-1
 1536 170 l 1,14,-1
1268 398 m 1,29,-1
 1268 536 l 1,30,-1
 1157 399 l 1,31,-1
 1268 398 l 1,29,-1
EndSplineSet
EndChar

StartChar: onehalf
Encoding: 189 189 127
Width: 1784
GlyphClass: 2
Flags: W
LayerCount: 2
Fore
SplineSet
107 818 m 1,0,-1
 106 1008 l 1,1,-1
 159 1008 l 1,2,-1
 159 1375 l 1,3,-1
 63 1374 l 1,4,-1
 63 1525 l 1,5,-1
 450 1623 l 1,6,-1
 454 1008 l 1,7,-1
 510 1008 l 1,8,-1
 510 818 l 1,9,-1
 107 818 l 1,0,-1
352 0 m 1,10,-1
 843 1623 l 1,11,-1
 1207 1623 l 1,12,-1
 705 0 l 1,13,-1
 352 0 l 1,10,-1
1042 -1 m 1,14,-1
 1042 181 l 1,15,16
 1158 227 1158 227 1236 292 c 0,17,18
 1282 331 1282 331 1305.5 355.5 c 128,-1,19
 1329 380 1329 380 1350 423.5 c 128,-1,20
 1371 467 1371 467 1371 516 c 1,21,22
 1368 562 1368 562 1344 591 c 128,-1,23
 1320 620 1320 620 1289 620 c 0,24,25
 1250 620 1250 620 1228.5 595.5 c 128,-1,26
 1207 571 1207 571 1207 534 c 0,27,28
 1207 492 1207 492 1245 457 c 1,29,-1
 1108 352 l 1,30,31
 1016 434 1016 434 1019 571 c 1,32,33
 1019 654 1019 654 1072.5 717 c 128,-1,34
 1126 780 1126 780 1204 808.5 c 128,-1,35
 1282 837 1282 837 1365 834 c 0,36,37
 1501 829 1501 829 1590 756.5 c 128,-1,38
 1679 684 1679 684 1679 558 c 0,39,40
 1679 465 1679 465 1615 384 c 0,41,42
 1564 318 1564 318 1399 194 c 1,43,-1
 1496 194 l 1,44,45
 1557 196 1557 196 1591.5 214 c 128,-1,46
 1626 232 1626 232 1626 283 c 1,47,-1
 1730 283 l 1,48,-1
 1730 -1 l 1,49,-1
 1042 -1 l 1,14,-1
EndSplineSet
EndChar

StartChar: threequarters
Encoding: 190 190 128
Width: 1827
GlyphClass: 2
Flags: W
LayerCount: 2
Fore
SplineSet
83 1081 m 1,0,1
 189 995 189 995 300 995 c 0,2,3
 351 995 351 995 391 1015.5 c 128,-1,4
 431 1036 431 1036 431 1081 c 0,5,6
 431 1133 431 1133 387 1156 c 128,-1,7
 343 1179 343 1179 285 1179 c 0,8,9
 262 1179 262 1179 238 1173.5 c 128,-1,10
 214 1168 214 1168 210 1168 c 0,11,12
 202 1168 202 1168 199 1170 c 1,13,14
 198 1173 198 1173 198 1173 c 1,15,-1
 198 1266 l 1,16,-1
 398 1436 l 1,17,-1
 398 1442 l 1,18,-1
 270 1442 l 2,19,20
 248 1442 248 1442 234 1437.5 c 128,-1,21
 220 1433 220 1433 211.5 1418.5 c 128,-1,22
 203 1404 203 1404 199.5 1394.5 c 128,-1,23
 196 1385 196 1385 189 1358 c 1,24,-1
 76 1359 l 1,25,-1
 76 1624 l 1,26,-1
 702 1624 l 1,27,-1
 702 1470 l 2,28,29
 702 1468 702 1468 535 1331 c 1,30,31
 620 1323 620 1323 680.5 1257.5 c 128,-1,32
 741 1192 741 1192 741 1110 c 0,33,34
 741 972 741 972 639 897 c 128,-1,35
 537 822 537 822 361 822 c 0,36,37
 268 822 268 822 202 832.5 c 128,-1,38
 136 843 136 843 83 878 c 1,39,-1
 83 1081 l 1,0,1
502 0 m 1,40,-1
 993 1623 l 1,41,-1
 1357 1623 l 1,42,-1
 855 0 l 1,43,-1
 502 0 l 1,40,-1
1642 168 m 1,44,-1
 1714 168 l 1,45,-1
 1714 -1 l 1,46,-1
 1300 -1 l 1,47,-1
 1300 168 l 1,48,-1
 1374 168 l 1,49,-1
 1374 245 l 1,50,-1
 1061 245 l 1,51,-1
 1061 403 l 1,52,-1
 1385 787 l 1,53,-1
 1643 786 l 1,54,-1
 1643 395 l 1,55,-1
 1776 396 l 1,56,-1
 1776 245 l 1,57,-1
 1642 245 l 1,58,-1
 1642 168 l 1,44,-1
1374 396 m 1,59,-1
 1374 534 l 1,60,-1
 1263 397 l 1,61,-1
 1374 396 l 1,59,-1
EndSplineSet
EndChar

StartChar: questiondown
Encoding: 191 191 129
Width: 1312
GlyphClass: 2
Flags: W
LayerCount: 2
Fore
SplineSet
962 1180 m 1,0,-1
 615 1180 l 1,1,-1
 615 993 l 1,2,3
 554 972 554 972 507.5 953.5 c 128,-1,4
 461 935 461 935 399.5 905.5 c 128,-1,5
 338 876 338 876 292.5 846 c 128,-1,6
 247 816 247 816 199.5 773 c 128,-1,7
 152 730 152 730 122 683.5 c 128,-1,8
 92 637 92 637 72.5 576 c 128,-1,9
 53 515 53 515 53 447 c 0,10,11
 53 315 53 315 131 208.5 c 128,-1,12
 209 102 209 102 346.5 42 c 128,-1,13
 484 -18 484 -18 653 -18 c 0,14,15
 910 -18 910 -18 1079.5 128 c 128,-1,16
 1249 274 1249 274 1263 500 c 1,17,-1
 791 500 l 1,18,19
 781 338 781 338 661 338 c 0,20,21
 631 338 631 338 610 353.5 c 128,-1,22
 589 369 589 369 580.5 393 c 128,-1,23
 572 417 572 417 568.5 435.5 c 128,-1,24
 565 454 565 454 565 470 c 0,25,26
 565 649 565 649 961 828 c 1,27,-1
 962 1180 l 1,0,-1
782 1746 m 0,28,29
 901 1746 901 1746 980 1678.5 c 128,-1,30
 1059 1611 1059 1611 1059 1496 c 0,31,32
 1059 1383 1059 1383 981.5 1317 c 128,-1,33
 904 1251 904 1251 782 1251 c 0,34,35
 655 1251 655 1251 575 1317 c 128,-1,36
 495 1383 495 1383 495 1496 c 0,37,38
 495 1611 495 1611 577.5 1678.5 c 128,-1,39
 660 1746 660 1746 782 1746 c 0,28,29
EndSplineSet
EndChar

StartChar: Agrave
Encoding: 192 192 130
Width: 1643
GlyphClass: 2
Flags: W
LayerCount: 2
Fore
SplineSet
1185 1623 m 1,0,-1
 191 1623 l 1,1,-1
 191 1270 l 1,2,-1
 403 1270 l 1,3,-1
 231 591 l 2,4,5
 204 486 204 486 193 462 c 0,6,7
 160 386 160 386 82 367 c 0,8,9
 48 359 48 359 4 359 c 1,10,-1
 4 0 l 1,11,-1
 682 0 l 1,12,-1
 682 359 l 1,13,-1
 598 359 l 2,14,15
 577 359 577 359 566 395 c 128,-1,16
 555 431 555 431 555 459 c 1,17,18
 556 480 556 480 557 491 c 128,-1,19
 558 502 558 502 565 512.5 c 128,-1,20
 572 523 572 523 585 523 c 2,21,-1
 860 523 l 2,22,23
 927 523 927 523 927 359 c 1,24,-1
 807 359 l 1,25,-1
 808 0 l 1,26,-1
 1634 0 l 1,27,-1
 1634 359 l 1,28,-1
 1548 359 l 2,29,30
 1533 359 1533 359 1522 371.5 c 128,-1,31
 1511 384 1511 384 1505.5 400 c 128,-1,32
 1500 416 1500 416 1492 447 c 2,33,-1
 1185 1623 l 1,0,-1
612 773 m 1,34,-1
 724 1281 l 1,35,-1
 841 773 l 1,36,-1
 612 773 l 1,34,-1
648 2270 m 1,37,-1
 1122 1833 l 1,38,-1
 1018 1692 l 1,39,-1
 464 2005 l 1,40,-1
 648 2270 l 1,37,-1
EndSplineSet
EndChar

StartChar: Aacute
Encoding: 193 193 131
Width: 1643
GlyphClass: 2
Flags: W
LayerCount: 2
Fore
SplineSet
1492 447 m 2,0,1
 1500 416 1500 416 1505.5 400 c 128,-1,2
 1511 384 1511 384 1522 371.5 c 128,-1,3
 1533 359 1533 359 1548 359 c 2,4,-1
 1634 359 l 1,5,-1
 1634 0 l 1,6,-1
 808 0 l 1,7,-1
 807 359 l 1,8,-1
 927 359 l 1,9,10
 927 523 927 523 860 523 c 2,11,-1
 585 523 l 2,12,13
 572 523 572 523 565 512.5 c 128,-1,14
 558 502 558 502 557 491 c 128,-1,15
 556 480 556 480 555 459 c 1,16,17
 555 431 555 431 566 395 c 128,-1,18
 577 359 577 359 598 359 c 2,19,-1
 682 359 l 1,20,-1
 682 0 l 1,21,-1
 4 0 l 1,22,-1
 4 359 l 1,23,24
 48 359 48 359 82 367 c 0,25,26
 160 386 160 386 193 462 c 0,27,28
 204 486 204 486 231 591 c 2,29,-1
 403 1270 l 1,30,-1
 191 1270 l 1,31,-1
 191 1623 l 1,32,-1
 1185 1623 l 1,33,-1
 1492 447 l 2,0,1
841 773 m 1,34,-1
 724 1281 l 1,35,-1
 612 773 l 1,36,-1
 841 773 l 1,34,-1
1122 2005 m 1,37,-1
 568 1692 l 1,38,-1
 464 1833 l 1,39,-1
 938 2270 l 1,40,-1
 1122 2005 l 1,37,-1
EndSplineSet
EndChar

StartChar: Acircumflex
Encoding: 194 194 132
Width: 1643
GlyphClass: 2
Flags: W
LayerCount: 2
Fore
SplineSet
1492 447 m 2,0,1
 1500 416 1500 416 1505.5 400 c 128,-1,2
 1511 384 1511 384 1522 371.5 c 128,-1,3
 1533 359 1533 359 1548 359 c 2,4,-1
 1634 359 l 1,5,-1
 1634 0 l 1,6,-1
 808 0 l 1,7,-1
 807 359 l 1,8,-1
 927 359 l 1,9,10
 927 523 927 523 860 523 c 2,11,-1
 585 523 l 2,12,13
 572 523 572 523 565 512.5 c 128,-1,14
 558 502 558 502 557 491 c 128,-1,15
 556 480 556 480 555 459 c 1,16,17
 555 431 555 431 566 395 c 128,-1,18
 577 359 577 359 598 359 c 2,19,-1
 682 359 l 1,20,-1
 682 0 l 1,21,-1
 4 0 l 1,22,-1
 4 359 l 1,23,24
 48 359 48 359 82 367 c 0,25,26
 160 386 160 386 193 462 c 0,27,28
 204 486 204 486 231 591 c 2,29,-1
 403 1270 l 1,30,-1
 191 1270 l 1,31,-1
 191 1623 l 1,32,-1
 1185 1623 l 1,33,-1
 1492 447 l 2,0,1
841 773 m 1,34,-1
 724 1281 l 1,35,-1
 612 773 l 1,36,-1
 841 773 l 1,34,-1
828 2162 m 1,37,-1
 1102 1786 l 1,38,-1
 948 1685 l 1,39,-1
 693 1930 l 1,40,-1
 438 1685 l 1,41,-1
 284 1786 l 1,42,-1
 557 2163 l 1,43,-1
 828 2162 l 1,37,-1
EndSplineSet
EndChar

StartChar: Atilde
Encoding: 195 195 133
Width: 1643
GlyphClass: 2
Flags: W
LayerCount: 2
Fore
SplineSet
1185 1623 m 1,0,-1
 191 1623 l 1,1,-1
 191 1270 l 1,2,-1
 403 1270 l 1,3,-1
 231 591 l 2,4,5
 204 486 204 486 193 462 c 0,6,7
 160 386 160 386 82 367 c 0,8,9
 48 359 48 359 4 359 c 1,10,-1
 4 0 l 1,11,-1
 682 0 l 1,12,-1
 682 359 l 1,13,-1
 598 359 l 2,14,15
 577 359 577 359 566 395 c 128,-1,16
 555 431 555 431 555 459 c 1,17,18
 556 480 556 480 557 491 c 128,-1,19
 558 502 558 502 565 512.5 c 128,-1,20
 572 523 572 523 585 523 c 2,21,-1
 860 523 l 2,22,23
 927 523 927 523 927 359 c 1,24,-1
 807 359 l 1,25,-1
 808 0 l 1,26,-1
 1634 0 l 1,27,-1
 1634 359 l 1,28,-1
 1548 359 l 2,29,30
 1533 359 1533 359 1522 371.5 c 128,-1,31
 1511 384 1511 384 1505.5 400 c 128,-1,32
 1500 416 1500 416 1492 447 c 2,33,-1
 1185 1623 l 1,0,-1
612 773 m 1,34,-1
 724 1281 l 1,35,-1
 841 773 l 1,36,-1
 612 773 l 1,34,-1
967 2085 m 0,37,38
 1011 2085 1011 2085 1047 2066 c 128,-1,39
 1083 2047 1083 2047 1109 2012.5 c 128,-1,40
 1135 1978 1135 1978 1154.5 1944 c 128,-1,41
 1174 1910 1174 1910 1197.5 1865 c 128,-1,42
 1221 1820 1221 1820 1239 1794 c 1,43,-1
 1126 1720 l 1,44,45
 1053 1790 1053 1790 1025.5 1809 c 128,-1,46
 998 1828 998 1828 979 1828 c 0,47,48
 934 1828 934 1828 872 1798 c 128,-1,49
 810 1768 810 1768 743.5 1737.5 c 128,-1,50
 677 1707 677 1707 622 1707 c 0,51,52
 577 1707 577 1707 541 1725.5 c 128,-1,53
 505 1744 505 1744 478.5 1778.5 c 128,-1,54
 452 1813 452 1813 433 1846.5 c 128,-1,55
 414 1880 414 1880 390 1925.5 c 128,-1,56
 366 1971 366 1971 348 1997 c 1,57,-1
 462 2072 l 1,58,59
 538 1999 538 1999 566 1979.5 c 128,-1,60
 594 1960 594 1960 612 1960 c 0,61,62
 648 1960 648 1960 695 1979.5 c 128,-1,63
 742 1999 742 1999 781 2022.5 c 128,-1,64
 820 2046 820 2046 871 2065.5 c 128,-1,65
 922 2085 922 2085 967 2085 c 0,37,38
EndSplineSet
EndChar

StartChar: Adieresis
Encoding: 196 196 134
Width: 1643
GlyphClass: 2
Flags: W
LayerCount: 2
Fore
SplineSet
1185 1623 m 1,0,-1
 191 1623 l 1,1,-1
 191 1270 l 1,2,-1
 403 1270 l 1,3,-1
 231 591 l 2,4,5
 204 486 204 486 193 462 c 0,6,7
 160 386 160 386 82 367 c 0,8,9
 48 359 48 359 4 359 c 1,10,-1
 4 0 l 1,11,-1
 682 0 l 1,12,-1
 682 359 l 1,13,-1
 598 359 l 2,14,15
 577 359 577 359 566 395 c 128,-1,16
 555 431 555 431 555 459 c 1,17,18
 556 480 556 480 557 491 c 128,-1,19
 558 502 558 502 565 512.5 c 128,-1,20
 572 523 572 523 585 523 c 2,21,-1
 860 523 l 2,22,23
 927 523 927 523 927 359 c 1,24,-1
 807 359 l 1,25,-1
 808 0 l 1,26,-1
 1634 0 l 1,27,-1
 1634 359 l 1,28,-1
 1548 359 l 2,29,30
 1533 359 1533 359 1522 371.5 c 128,-1,31
 1511 384 1511 384 1505.5 400 c 128,-1,32
 1500 416 1500 416 1492 447 c 2,33,-1
 1185 1623 l 1,0,-1
612 773 m 1,34,-1
 724 1281 l 1,35,-1
 841 773 l 1,36,-1
 612 773 l 1,34,-1
711 1904 m 0,37,38
 711 1796 711 1796 644.5 1735 c 128,-1,39
 578 1674 578 1674 487 1674 c 0,40,41
 394 1674 394 1674 326.5 1735.5 c 128,-1,42
 259 1797 259 1797 259 1907 c 0,43,44
 259 2014 259 2014 326 2074 c 128,-1,45
 393 2134 393 2134 485 2134 c 128,-1,46
 577 2134 577 2134 644 2073.5 c 128,-1,47
 711 2013 711 2013 711 1904 c 0,37,38
1328 1904 m 0,48,49
 1328 1796 1328 1796 1261.5 1735 c 128,-1,50
 1195 1674 1195 1674 1104 1674 c 0,51,52
 1011 1674 1011 1674 943.5 1735.5 c 128,-1,53
 876 1797 876 1797 876 1907 c 0,54,55
 876 2014 876 2014 943 2074 c 128,-1,56
 1010 2134 1010 2134 1102 2134 c 128,-1,57
 1194 2134 1194 2134 1261 2073.5 c 128,-1,58
 1328 2013 1328 2013 1328 1904 c 0,48,49
EndSplineSet
EndChar

StartChar: Aring
Encoding: 197 197 135
Width: 1643
GlyphClass: 2
Flags: W
LayerCount: 2
Fore
SplineSet
1492 447 m 2,0,1
 1500 416 1500 416 1505.5 400 c 128,-1,2
 1511 384 1511 384 1522 371.5 c 128,-1,3
 1533 359 1533 359 1548 359 c 2,4,-1
 1634 359 l 1,5,-1
 1634 0 l 1,6,-1
 808 0 l 1,7,-1
 807 359 l 1,8,-1
 927 359 l 1,9,10
 927 523 927 523 860 523 c 2,11,-1
 585 523 l 2,12,13
 572 523 572 523 565 512.5 c 128,-1,14
 558 502 558 502 557 491 c 128,-1,15
 556 480 556 480 555 459 c 1,16,17
 555 431 555 431 566 395 c 128,-1,18
 577 359 577 359 598 359 c 2,19,-1
 682 359 l 1,20,-1
 682 0 l 1,21,-1
 4 0 l 1,22,-1
 4 359 l 1,23,24
 48 359 48 359 82 367 c 0,25,26
 160 386 160 386 193 462 c 0,27,28
 204 486 204 486 231 591 c 2,29,-1
 403 1270 l 1,30,-1
 191 1270 l 1,31,-1
 191 1623 l 1,32,-1
 1185 1623 l 1,33,-1
 1492 447 l 2,0,1
841 773 m 1,34,-1
 724 1281 l 1,35,-1
 612 773 l 1,36,-1
 841 773 l 1,34,-1
789 1802 m 0,37,38
 866 1802 866 1802 910 1846 c 128,-1,39
 954 1890 954 1890 954 1950 c 0,40,41
 954 2009 954 2009 910.5 2052 c 128,-1,42
 867 2095 867 2095 789 2095 c 0,43,44
 713 2095 713 2095 670.5 2052 c 128,-1,45
 628 2009 628 2009 628 1950 c 0,46,47
 628 1890 628 1890 671 1846 c 128,-1,48
 714 1802 714 1802 789 1802 c 0,37,38
789 1700 m 0,49,50
 662 1700 662 1700 590 1775 c 128,-1,51
 518 1850 518 1850 518 1951 c 0,52,53
 518 2050 518 2050 589 2122.5 c 128,-1,54
 660 2195 660 2195 789 2195 c 0,55,56
 922 2195 922 2195 995.5 2123 c 128,-1,57
 1069 2051 1069 2051 1069 1951 c 0,58,59
 1069 1850 1069 1850 994.5 1775 c 128,-1,60
 920 1700 920 1700 789 1700 c 0,49,50
EndSplineSet
EndChar

StartChar: AE
Encoding: 198 198 136
Width: 2138
GlyphClass: 2
Flags: W
LayerCount: 2
Fore
SplineSet
1747 969 m 1,0,-1
 1671 1271 l 1,1,-1
 1458 1271 l 1,2,-1
 1458 988 l 1,3,-1
 1663 988 l 1,4,-1
 1663 636 l 1,5,-1
 1458 636 l 1,6,-1
 1458 350 l 1,7,-1
 1677 350 l 1,8,-1
 1690 420 l 1,9,-1
 1753 687 l 1,10,-1
 2026 687 l 1,11,-1
 2026 0 l 1,12,-1
 797 0 l 1,13,-1
 796 376 l 1,14,-1
 916 376 l 1,15,16
 948 540 948 540 880 540 c 2,17,-1
 605 540 l 2,18,19
 592 540 592 540 583 529.5 c 128,-1,20
 574 519 574 519 571 508 c 128,-1,21
 568 497 568 497 563 476 c 1,22,23
 557 459 557 459 561.5 417.5 c 128,-1,24
 566 376 566 376 587 376 c 2,25,-1
 671 376 l 1,26,-1
 671 0 l 1,27,-1
 -10 -1 l 1,28,-1
 -10 354 l 1,29,30
 20 354 20 354 45 358 c 128,-1,31
 70 362 70 362 91 372 c 128,-1,32
 112 382 112 382 128 390.5 c 128,-1,33
 144 399 144 399 160 418 c 128,-1,34
 176 437 176 437 185 448 c 128,-1,35
 194 459 194 459 207.5 485 c 128,-1,36
 221 511 221 511 226.5 522.5 c 128,-1,37
 232 534 232 534 245.5 565.5 c 128,-1,38
 259 597 259 597 264 608 c 2,39,-1
 586 1274 l 1,40,-1
 374 1274 l 1,41,-1
 445 1623 l 1,42,-1
 2015 1623 l 1,43,-1
 2015 970 l 1,44,-1
 1747 969 l 1,0,-1
908 771 m 1,45,-1
 909 1292 l 1,46,-1
 669 771 l 1,47,-1
 908 771 l 1,45,-1
EndSplineSet
EndChar

StartChar: Ccedilla
Encoding: 199 199 137
Width: 1542
GlyphClass: 2
Flags: W
LayerCount: 2
Fore
SplineSet
1458 202 m 1,0,-1
 1429 178 l 2,1,2
 1400 154 1400 154 1342 120 c 128,-1,3
 1284 86 1284 86 1211 52.5 c 128,-1,4
 1138 19 1138 19 1034.5 -5 c 128,-1,5
 931 -29 931 -29 827 -29 c 0,6,7
 579 -29 579 -29 404.5 76 c 128,-1,8
 230 181 230 181 144.5 366.5 c 128,-1,9
 59 552 59 552 59 804 c 0,10,11
 59 931 59 931 83 1050 c 128,-1,12
 107 1169 107 1169 160.5 1279.5 c 128,-1,13
 214 1390 214 1390 292 1472 c 128,-1,14
 370 1554 370 1554 486 1603 c 128,-1,15
 602 1652 602 1652 743 1652 c 0,16,17
 817 1652 817 1652 870 1647 c 128,-1,18
 923 1642 923 1642 990.5 1618.5 c 128,-1,19
 1058 1595 1058 1595 1103 1552 c 1,20,-1
 1137 1623 l 1,21,-1
 1448 1623 l 1,22,-1
 1449 991 l 1,23,-1
 1151 991 l 1,24,25
 1152 1044 1152 1044 1140 1094.5 c 128,-1,26
 1128 1145 1128 1145 1102 1190 c 128,-1,27
 1076 1235 1076 1235 1028 1262.5 c 128,-1,28
 980 1290 980 1290 917 1290 c 0,29,30
 870 1290 870 1290 832.5 1274.5 c 128,-1,31
 795 1259 795 1259 770.5 1235 c 128,-1,32
 746 1211 746 1211 728 1173 c 128,-1,33
 710 1135 710 1135 701 1100.5 c 128,-1,34
 692 1066 692 1066 687 1017 c 128,-1,35
 682 968 682 968 681 935 c 128,-1,36
 680 902 680 902 680 855 c 0,37,38
 680 841 680 841 680 811 c 1,39,40
 677 766 677 766 680 713.5 c 128,-1,41
 683 661 683 661 687 609 c 128,-1,42
 691 557 691 557 708.5 509 c 128,-1,43
 726 461 726 461 751.5 424 c 128,-1,44
 777 387 777 387 823 365 c 128,-1,45
 869 343 869 343 930 343 c 0,46,47
 1011 343 1011 343 1072.5 390.5 c 128,-1,48
 1134 438 1134 438 1149 518 c 0,49,50
 1153 538 1153 538 1157 612 c 1,51,-1
 1458 612 l 1,52,-1
 1458 202 l 1,0,-1
709 0 m 1,53,-1
 889 0 l 1,54,-1
 889 -119 l 1,55,56
 1022 -196 1022 -196 1022 -285 c 0,57,58
 1022 -367 1022 -367 913.5 -426 c 128,-1,59
 805 -485 805 -485 653 -485 c 2,60,-1
 632 -485 l 1,61,-1
 632 -372 l 1,62,63
 729 -371 729 -371 774 -343 c 128,-1,64
 819 -315 819 -315 819 -271 c 0,65,66
 819 -231 819 -231 787 -188 c 128,-1,67
 755 -145 755 -145 709 -119 c 1,68,-1
 709 0 l 1,53,-1
EndSplineSet
EndChar

StartChar: Egrave
Encoding: 200 200 138
Width: 1490
GlyphClass: 2
Flags: W
LayerCount: 2
Fore
SplineSet
1367 969 m 1,0,-1
 1367 1623 l 1,1,-1
 99 1623 l 1,2,-1
 99 1270 l 1,3,-1
 257 1270 l 1,4,-1
 257 359 l 1,5,-1
 99 359 l 1,6,-1
 99 0 l 1,7,-1
 1378 0 l 1,8,-1
 1378 687 l 1,9,-1
 1105 687 l 1,10,-1
 1042 420 l 1,11,-1
 1029 359 l 1,12,-1
 810 359 l 1,13,-1
 810 636 l 1,14,-1
 1015 636 l 1,15,-1
 1015 988 l 1,16,-1
 810 988 l 1,17,-1
 810 1270 l 1,18,-1
 1023 1270 l 1,19,-1
 1099 968 l 1,20,-1
 1367 969 l 1,0,-1
591 2270 m 1,21,-1
 1065 1833 l 1,22,-1
 961 1692 l 1,23,-1
 407 2005 l 1,24,-1
 591 2270 l 1,21,-1
EndSplineSet
EndChar

StartChar: Eacute
Encoding: 201 201 139
Width: 1490
GlyphClass: 2
Flags: W
LayerCount: 2
Fore
SplineSet
1099 968 m 1,0,-1
 1023 1270 l 1,1,-1
 810 1270 l 1,2,-1
 810 988 l 1,3,-1
 1015 988 l 1,4,-1
 1015 636 l 1,5,-1
 810 636 l 1,6,-1
 810 359 l 1,7,-1
 1029 359 l 1,8,-1
 1042 420 l 1,9,-1
 1105 687 l 1,10,-1
 1378 687 l 1,11,-1
 1378 0 l 1,12,-1
 99 0 l 1,13,-1
 99 359 l 1,14,-1
 257 359 l 1,15,-1
 257 1270 l 1,16,-1
 99 1270 l 1,17,-1
 99 1623 l 1,18,-1
 1367 1623 l 1,19,-1
 1367 969 l 1,20,-1
 1099 968 l 1,0,-1
1065 2005 m 1,21,-1
 511 1692 l 1,22,-1
 407 1833 l 1,23,-1
 881 2270 l 1,24,-1
 1065 2005 l 1,21,-1
EndSplineSet
EndChar

StartChar: Ecircumflex
Encoding: 202 202 140
Width: 1490
GlyphClass: 2
Flags: W
LayerCount: 2
Fore
SplineSet
1099 968 m 1,0,-1
 1023 1270 l 1,1,-1
 810 1270 l 1,2,-1
 810 988 l 1,3,-1
 1015 988 l 1,4,-1
 1015 636 l 1,5,-1
 810 636 l 1,6,-1
 810 359 l 1,7,-1
 1029 359 l 1,8,-1
 1042 420 l 1,9,-1
 1105 687 l 1,10,-1
 1378 687 l 1,11,-1
 1378 0 l 1,12,-1
 99 0 l 1,13,-1
 99 359 l 1,14,-1
 257 359 l 1,15,-1
 257 1270 l 1,16,-1
 99 1270 l 1,17,-1
 99 1623 l 1,18,-1
 1367 1623 l 1,19,-1
 1367 969 l 1,20,-1
 1099 968 l 1,0,-1
871 2162 m 1,21,-1
 1145 1786 l 1,22,-1
 991 1685 l 1,23,-1
 736 1930 l 1,24,-1
 481 1685 l 1,25,-1
 327 1786 l 1,26,-1
 600 2163 l 1,27,-1
 871 2162 l 1,21,-1
EndSplineSet
EndChar

StartChar: Edieresis
Encoding: 203 203 141
Width: 1490
GlyphClass: 2
Flags: W
LayerCount: 2
Fore
SplineSet
1367 969 m 1,0,-1
 1367 1623 l 1,1,-1
 99 1623 l 1,2,-1
 99 1270 l 1,3,-1
 257 1270 l 1,4,-1
 257 359 l 1,5,-1
 99 359 l 1,6,-1
 99 0 l 1,7,-1
 1378 0 l 1,8,-1
 1378 687 l 1,9,-1
 1105 687 l 1,10,-1
 1042 420 l 1,11,-1
 1029 359 l 1,12,-1
 810 359 l 1,13,-1
 810 636 l 1,14,-1
 1015 636 l 1,15,-1
 1015 988 l 1,16,-1
 810 988 l 1,17,-1
 810 1270 l 1,18,-1
 1023 1270 l 1,19,-1
 1099 968 l 1,20,-1
 1367 969 l 1,0,-1
654 1904 m 0,21,22
 654 1796 654 1796 587.5 1735 c 128,-1,23
 521 1674 521 1674 430 1674 c 0,24,25
 337 1674 337 1674 269.5 1735.5 c 128,-1,26
 202 1797 202 1797 202 1907 c 0,27,28
 202 2014 202 2014 269 2074 c 128,-1,29
 336 2134 336 2134 428 2134 c 128,-1,30
 520 2134 520 2134 587 2073.5 c 128,-1,31
 654 2013 654 2013 654 1904 c 0,21,22
1271 1904 m 0,32,33
 1271 1796 1271 1796 1204.5 1735 c 128,-1,34
 1138 1674 1138 1674 1047 1674 c 0,35,36
 954 1674 954 1674 886.5 1735.5 c 128,-1,37
 819 1797 819 1797 819 1907 c 0,38,39
 819 2014 819 2014 886 2074 c 128,-1,40
 953 2134 953 2134 1045 2134 c 128,-1,41
 1137 2134 1137 2134 1204 2073.5 c 128,-1,42
 1271 2013 1271 2013 1271 1904 c 0,32,33
EndSplineSet
EndChar

StartChar: Igrave
Encoding: 204 204 142
Width: 1076
GlyphClass: 2
Flags: W
LayerCount: 2
Fore
SplineSet
972 1623 m 1,0,-1
 108 1623 l 1,1,-1
 108 1270 l 1,2,-1
 251 1270 l 1,3,-1
 251 359 l 1,4,-1
 104 359 l 1,5,-1
 104 0 l 1,6,-1
 966 0 l 1,7,-1
 966 359 l 1,8,-1
 825 359 l 1,9,-1
 825 1270 l 1,10,-1
 972 1270 l 1,11,-1
 972 1623 l 1,0,-1
395 2270 m 1,12,-1
 869 1833 l 1,13,-1
 765 1692 l 1,14,-1
 211 2005 l 1,15,-1
 395 2270 l 1,12,-1
EndSplineSet
EndChar

StartChar: Iacute
Encoding: 205 205 143
Width: 1076
GlyphClass: 2
Flags: W
LayerCount: 2
Fore
SplineSet
972 1270 m 1,0,-1
 825 1270 l 1,1,-1
 825 359 l 1,2,-1
 966 359 l 1,3,-1
 966 0 l 1,4,-1
 104 0 l 1,5,-1
 104 359 l 1,6,-1
 251 359 l 1,7,-1
 251 1270 l 1,8,-1
 108 1270 l 1,9,-1
 108 1623 l 1,10,-1
 972 1623 l 1,11,-1
 972 1270 l 1,0,-1
869 2005 m 1,12,-1
 315 1692 l 1,13,-1
 211 1833 l 1,14,-1
 685 2270 l 1,15,-1
 869 2005 l 1,12,-1
EndSplineSet
EndChar

StartChar: Icircumflex
Encoding: 206 206 144
Width: 1076
GlyphClass: 2
Flags: W
LayerCount: 2
Fore
SplineSet
972 1270 m 1,0,-1
 825 1270 l 1,1,-1
 825 359 l 1,2,-1
 966 359 l 1,3,-1
 966 0 l 1,4,-1
 104 0 l 1,5,-1
 104 359 l 1,6,-1
 251 359 l 1,7,-1
 251 1270 l 1,8,-1
 108 1270 l 1,9,-1
 108 1623 l 1,10,-1
 972 1623 l 1,11,-1
 972 1270 l 1,0,-1
675 2162 m 1,12,-1
 949 1786 l 1,13,-1
 795 1685 l 1,14,-1
 540 1930 l 1,15,-1
 285 1685 l 1,16,-1
 131 1786 l 1,17,-1
 404 2163 l 1,18,-1
 675 2162 l 1,12,-1
EndSplineSet
EndChar

StartChar: Idieresis
Encoding: 207 207 145
Width: 1076
GlyphClass: 2
Flags: W
LayerCount: 2
Fore
SplineSet
972 1623 m 1,0,-1
 108 1623 l 1,1,-1
 108 1270 l 1,2,-1
 251 1270 l 1,3,-1
 251 359 l 1,4,-1
 104 359 l 1,5,-1
 104 0 l 1,6,-1
 966 0 l 1,7,-1
 966 359 l 1,8,-1
 825 359 l 1,9,-1
 825 1270 l 1,10,-1
 972 1270 l 1,11,-1
 972 1623 l 1,0,-1
458 1904 m 0,12,13
 458 1796 458 1796 391.5 1735 c 128,-1,14
 325 1674 325 1674 234 1674 c 0,15,16
 141 1674 141 1674 73.5 1735.5 c 128,-1,17
 6 1797 6 1797 6 1907 c 0,18,19
 6 2014 6 2014 73 2074 c 128,-1,20
 140 2134 140 2134 232 2134 c 128,-1,21
 324 2134 324 2134 391 2073.5 c 128,-1,22
 458 2013 458 2013 458 1904 c 0,12,13
1075 1904 m 0,23,24
 1075 1796 1075 1796 1008.5 1735 c 128,-1,25
 942 1674 942 1674 851 1674 c 0,26,27
 758 1674 758 1674 690.5 1735.5 c 128,-1,28
 623 1797 623 1797 623 1907 c 0,29,30
 623 2014 623 2014 690 2074 c 128,-1,31
 757 2134 757 2134 849 2134 c 128,-1,32
 941 2134 941 2134 1008 2073.5 c 128,-1,33
 1075 2013 1075 2013 1075 1904 c 0,23,24
EndSplineSet
EndChar

StartChar: Eth
Encoding: 208 208 146
Width: 1802
GlyphClass: 2
Flags: W
LayerCount: 2
Fore
SplineSet
262 952 m 1,0,-1
 262 1271 l 1,1,-1
 93 1271 l 1,2,-1
 93 1623 l 1,3,-1
 923 1623 l 2,4,5
 1335 1623 1335 1623 1540 1417.5 c 128,-1,6
 1745 1212 1745 1212 1745 816 c 0,7,8
 1745 653 1745 653 1690 507 c 128,-1,9
 1635 361 1635 361 1532 247.5 c 128,-1,10
 1429 134 1429 134 1266 67 c 128,-1,11
 1103 0 1103 0 901 0 c 2,12,-1
 99 0 l 1,13,-1
 99 351 l 1,14,-1
 262 351 l 1,15,-1
 262 653 l 1,16,-1
 132 653 l 1,17,-1
 132 952 l 1,18,-1
 262 952 l 1,0,-1
844 351 m 2,19,20
 917 351 917 351 972.5 380.5 c 128,-1,21
 1028 410 1028 410 1061 455.5 c 128,-1,22
 1094 501 1094 501 1115 565 c 128,-1,23
 1136 629 1136 629 1143.5 689.5 c 128,-1,24
 1151 750 1151 750 1151 817 c 0,25,26
 1151 886 1151 886 1145 943.5 c 128,-1,27
 1139 1001 1139 1001 1120.5 1064 c 128,-1,28
 1102 1127 1102 1127 1071 1170.5 c 128,-1,29
 1040 1214 1040 1214 985 1242.5 c 128,-1,30
 930 1271 930 1271 856 1271 c 2,31,-1
 809 1271 l 1,32,33
 809 1237 809 1237 809 1172 c 128,-1,34
 809 1107 809 1107 809 1053.5 c 128,-1,35
 809 1000 809 1000 809 952 c 1,36,-1
 895 952 l 1,37,-1
 895 653 l 1,38,-1
 810 653 l 1,39,-1
 813 351 l 1,40,-1
 844 351 l 2,19,20
EndSplineSet
EndChar

StartChar: Ntilde
Encoding: 209 209 147
Width: 1873
GlyphClass: 2
Flags: W
LayerCount: 2
Fore
SplineSet
1814 1622 m 1,0,-1
 1177 1623 l 1,1,-1
 1177 1270 l 1,2,3
 1216 1271 1216 1271 1245 1266 c 128,-1,4
 1274 1261 1274 1261 1290.5 1247.5 c 128,-1,5
 1307 1234 1307 1234 1317 1221.5 c 128,-1,6
 1327 1209 1327 1209 1330.5 1186.5 c 128,-1,7
 1334 1164 1334 1164 1334.5 1152 c 128,-1,8
 1335 1140 1335 1140 1335 1116 c 2,9,-1
 1335 647 l 1,10,-1
 839 1623 l 1,11,-1
 104 1623 l 1,12,-1
 104 1272 l 1,13,-1
 261 1272 l 1,14,-1
 261 550 l 2,15,16
 261 512 261 512 259 490 c 128,-1,17
 257 468 257 468 248.5 439.5 c 128,-1,18
 240 411 240 411 223.5 396 c 128,-1,19
 207 381 207 381 175.5 370 c 128,-1,20
 144 359 144 359 98 359 c 1,21,-1
 98 0 l 1,22,-1
 735 0 l 1,23,-1
 735 359 l 1,24,25
 650 359 650 359 613.5 392 c 128,-1,26
 577 425 577 425 577 507 c 2,27,-1
 577 908 l 1,28,-1
 1050 0 l 1,29,-1
 1656 0 l 1,30,-1
 1656 1118 l 2,31,32
 1656 1192 1656 1192 1692.5 1231 c 128,-1,33
 1729 1270 1729 1270 1814 1270 c 1,34,-1
 1814 1622 l 1,0,-1
1082 2085 m 0,35,36
 1126 2085 1126 2085 1162 2066 c 128,-1,37
 1198 2047 1198 2047 1224 2012.5 c 128,-1,38
 1250 1978 1250 1978 1269.5 1944 c 128,-1,39
 1289 1910 1289 1910 1312.5 1865 c 128,-1,40
 1336 1820 1336 1820 1354 1794 c 1,41,-1
 1241 1720 l 1,42,43
 1168 1790 1168 1790 1140.5 1809 c 128,-1,44
 1113 1828 1113 1828 1094 1828 c 0,45,46
 1049 1828 1049 1828 987 1798 c 128,-1,47
 925 1768 925 1768 858.5 1737.5 c 128,-1,48
 792 1707 792 1707 737 1707 c 0,49,50
 692 1707 692 1707 656 1725.5 c 128,-1,51
 620 1744 620 1744 593.5 1778.5 c 128,-1,52
 567 1813 567 1813 548 1846.5 c 128,-1,53
 529 1880 529 1880 505 1925.5 c 128,-1,54
 481 1971 481 1971 463 1997 c 1,55,-1
 577 2072 l 1,56,57
 653 1999 653 1999 681 1979.5 c 128,-1,58
 709 1960 709 1960 727 1960 c 0,59,60
 763 1960 763 1960 810 1979.5 c 128,-1,61
 857 1999 857 1999 896 2022.5 c 128,-1,62
 935 2046 935 2046 986 2065.5 c 128,-1,63
 1037 2085 1037 2085 1082 2085 c 0,35,36
EndSplineSet
EndChar

StartChar: Ograve
Encoding: 210 210 148
Width: 1744
GlyphClass: 2
Flags: W
LayerCount: 2
Fore
SplineSet
1692 808 m 0,0,1
 1692 573 1692 573 1584.5 381 c 128,-1,2
 1477 189 1477 189 1289 80 c 128,-1,3
 1101 -29 1101 -29 872 -29 c 128,-1,4
 643 -29 643 -29 455 80 c 128,-1,5
 267 189 267 189 159.5 381 c 128,-1,6
 52 573 52 573 52 808 c 0,7,8
 52 1066 52 1066 159.5 1259.5 c 128,-1,9
 267 1453 267 1453 451.5 1553 c 128,-1,10
 636 1653 636 1653 872 1653 c 128,-1,11
 1108 1653 1108 1653 1292.5 1553 c 128,-1,12
 1477 1453 1477 1453 1584.5 1259.5 c 128,-1,13
 1692 1066 1692 1066 1692 808 c 0,0,1
872 319 m 0,14,15
 911 319 911 319 942 332 c 128,-1,16
 973 345 973 345 994.5 368 c 128,-1,17
 1016 391 1016 391 1032 422 c 128,-1,18
 1048 453 1048 453 1057 489.5 c 128,-1,19
 1066 526 1066 526 1072 565 c 128,-1,20
 1078 604 1078 604 1079.5 643.5 c 128,-1,21
 1081 683 1081 683 1082 721 c 128,-1,22
 1083 759 1083 759 1082 793 c 0,23,24
 1082 813 1082 813 1082 823 c 0,25,26
 1082 834 1082 834 1082 858 c 0,27,28
 1081 894 1081 894 1082 934 c 128,-1,29
 1083 974 1083 974 1078.5 1016.5 c 128,-1,30
 1074 1059 1074 1059 1067.5 1099 c 128,-1,31
 1061 1139 1061 1139 1045 1175 c 128,-1,32
 1029 1211 1029 1211 1007.5 1238 c 128,-1,33
 986 1265 986 1265 951 1280.5 c 128,-1,34
 916 1296 916 1296 872 1296 c 0,35,36
 833 1296 833 1296 801.5 1284 c 128,-1,37
 770 1272 770 1272 749 1250.5 c 128,-1,38
 728 1229 728 1229 711.5 1200.5 c 128,-1,39
 695 1172 695 1172 686.5 1138.5 c 128,-1,40
 678 1105 678 1105 671.5 1068.5 c 128,-1,41
 665 1032 665 1032 664 995.5 c 128,-1,42
 663 959 663 959 661.5 924 c 128,-1,43
 660 889 660 889 662 858 c 1,44,45
 662 834 662 834 662 823 c 0,46,47
 662 813 662 813 662 793 c 0,48,49
 663 763 663 763 662 730 c 128,-1,50
 661 697 661 697 663.5 661.5 c 128,-1,51
 666 626 666 626 669 591 c 128,-1,52
 672 556 672 556 679.5 522 c 128,-1,53
 687 488 687 488 697 458 c 128,-1,54
 707 428 707 428 723 402.5 c 128,-1,55
 739 377 739 377 759.5 358.5 c 128,-1,56
 780 340 780 340 809 329.5 c 128,-1,57
 838 319 838 319 872 319 c 0,14,15
725 2270 m 1,58,-1
 1199 1833 l 1,59,-1
 1095 1692 l 1,60,-1
 541 2005 l 1,61,-1
 725 2270 l 1,58,-1
EndSplineSet
EndChar

StartChar: Oacute
Encoding: 211 211 149
Width: 1744
GlyphClass: 2
Flags: W
LayerCount: 2
Fore
SplineSet
1692 808 m 0,0,1
 1692 573 1692 573 1584.5 381 c 128,-1,2
 1477 189 1477 189 1289 80 c 128,-1,3
 1101 -29 1101 -29 872 -29 c 128,-1,4
 643 -29 643 -29 455 80 c 128,-1,5
 267 189 267 189 159.5 381 c 128,-1,6
 52 573 52 573 52 808 c 0,7,8
 52 1066 52 1066 159.5 1259.5 c 128,-1,9
 267 1453 267 1453 451.5 1553 c 128,-1,10
 636 1653 636 1653 872 1653 c 128,-1,11
 1108 1653 1108 1653 1292.5 1553 c 128,-1,12
 1477 1453 1477 1453 1584.5 1259.5 c 128,-1,13
 1692 1066 1692 1066 1692 808 c 0,0,1
872 319 m 0,14,15
 911 319 911 319 942 332 c 128,-1,16
 973 345 973 345 994.5 368 c 128,-1,17
 1016 391 1016 391 1032 422 c 128,-1,18
 1048 453 1048 453 1057 489.5 c 128,-1,19
 1066 526 1066 526 1072 565 c 128,-1,20
 1078 604 1078 604 1079.5 643.5 c 128,-1,21
 1081 683 1081 683 1082 721 c 128,-1,22
 1083 759 1083 759 1082 793 c 0,23,24
 1082 813 1082 813 1082 823 c 0,25,26
 1082 834 1082 834 1082 858 c 0,27,28
 1081 894 1081 894 1082 934 c 128,-1,29
 1083 974 1083 974 1078.5 1016.5 c 128,-1,30
 1074 1059 1074 1059 1067.5 1099 c 128,-1,31
 1061 1139 1061 1139 1045 1175 c 128,-1,32
 1029 1211 1029 1211 1007.5 1238 c 128,-1,33
 986 1265 986 1265 951 1280.5 c 128,-1,34
 916 1296 916 1296 872 1296 c 0,35,36
 833 1296 833 1296 801.5 1284 c 128,-1,37
 770 1272 770 1272 749 1250.5 c 128,-1,38
 728 1229 728 1229 711.5 1200.5 c 128,-1,39
 695 1172 695 1172 686.5 1138.5 c 128,-1,40
 678 1105 678 1105 671.5 1068.5 c 128,-1,41
 665 1032 665 1032 664 995.5 c 128,-1,42
 663 959 663 959 661.5 924 c 128,-1,43
 660 889 660 889 662 858 c 1,44,45
 662 834 662 834 662 823 c 0,46,47
 662 813 662 813 662 793 c 0,48,49
 663 763 663 763 662 730 c 128,-1,50
 661 697 661 697 663.5 661.5 c 128,-1,51
 666 626 666 626 669 591 c 128,-1,52
 672 556 672 556 679.5 522 c 128,-1,53
 687 488 687 488 697 458 c 128,-1,54
 707 428 707 428 723 402.5 c 128,-1,55
 739 377 739 377 759.5 358.5 c 128,-1,56
 780 340 780 340 809 329.5 c 128,-1,57
 838 319 838 319 872 319 c 0,14,15
1199 2005 m 1,58,-1
 645 1692 l 1,59,-1
 541 1833 l 1,60,-1
 1015 2270 l 1,61,-1
 1199 2005 l 1,58,-1
EndSplineSet
EndChar

StartChar: Ocircumflex
Encoding: 212 212 150
Width: 1744
GlyphClass: 2
Flags: W
LayerCount: 2
Fore
SplineSet
1692 808 m 0,0,1
 1692 573 1692 573 1584.5 381 c 128,-1,2
 1477 189 1477 189 1289 80 c 128,-1,3
 1101 -29 1101 -29 872 -29 c 128,-1,4
 643 -29 643 -29 455 80 c 128,-1,5
 267 189 267 189 159.5 381 c 128,-1,6
 52 573 52 573 52 808 c 0,7,8
 52 1066 52 1066 159.5 1259.5 c 128,-1,9
 267 1453 267 1453 451.5 1553 c 128,-1,10
 636 1653 636 1653 872 1653 c 128,-1,11
 1108 1653 1108 1653 1292.5 1553 c 128,-1,12
 1477 1453 1477 1453 1584.5 1259.5 c 128,-1,13
 1692 1066 1692 1066 1692 808 c 0,0,1
872 319 m 0,14,15
 911 319 911 319 942 332 c 128,-1,16
 973 345 973 345 994.5 368 c 128,-1,17
 1016 391 1016 391 1032 422 c 128,-1,18
 1048 453 1048 453 1057 489.5 c 128,-1,19
 1066 526 1066 526 1072 565 c 128,-1,20
 1078 604 1078 604 1079.5 643.5 c 128,-1,21
 1081 683 1081 683 1082 721 c 128,-1,22
 1083 759 1083 759 1082 793 c 0,23,24
 1082 813 1082 813 1082 823 c 0,25,26
 1082 834 1082 834 1082 858 c 0,27,28
 1081 894 1081 894 1082 934 c 128,-1,29
 1083 974 1083 974 1078.5 1016.5 c 128,-1,30
 1074 1059 1074 1059 1067.5 1099 c 128,-1,31
 1061 1139 1061 1139 1045 1175 c 128,-1,32
 1029 1211 1029 1211 1007.5 1238 c 128,-1,33
 986 1265 986 1265 951 1280.5 c 128,-1,34
 916 1296 916 1296 872 1296 c 0,35,36
 833 1296 833 1296 801.5 1284 c 128,-1,37
 770 1272 770 1272 749 1250.5 c 128,-1,38
 728 1229 728 1229 711.5 1200.5 c 128,-1,39
 695 1172 695 1172 686.5 1138.5 c 128,-1,40
 678 1105 678 1105 671.5 1068.5 c 128,-1,41
 665 1032 665 1032 664 995.5 c 128,-1,42
 663 959 663 959 661.5 924 c 128,-1,43
 660 889 660 889 662 858 c 1,44,45
 662 834 662 834 662 823 c 0,46,47
 662 813 662 813 662 793 c 0,48,49
 663 763 663 763 662 730 c 128,-1,50
 661 697 661 697 663.5 661.5 c 128,-1,51
 666 626 666 626 669 591 c 128,-1,52
 672 556 672 556 679.5 522 c 128,-1,53
 687 488 687 488 697 458 c 128,-1,54
 707 428 707 428 723 402.5 c 128,-1,55
 739 377 739 377 759.5 358.5 c 128,-1,56
 780 340 780 340 809 329.5 c 128,-1,57
 838 319 838 319 872 319 c 0,14,15
1005 2162 m 1,58,-1
 1279 1786 l 1,59,-1
 1125 1685 l 1,60,-1
 870 1930 l 1,61,-1
 615 1685 l 1,62,-1
 461 1786 l 1,63,-1
 734 2163 l 1,64,-1
 1005 2162 l 1,58,-1
EndSplineSet
EndChar

StartChar: Otilde
Encoding: 213 213 151
Width: 1744
GlyphClass: 2
Flags: W
LayerCount: 2
Fore
SplineSet
1692 808 m 0,0,1
 1692 573 1692 573 1584.5 381 c 128,-1,2
 1477 189 1477 189 1289 80 c 128,-1,3
 1101 -29 1101 -29 872 -29 c 128,-1,4
 643 -29 643 -29 455 80 c 128,-1,5
 267 189 267 189 159.5 381 c 128,-1,6
 52 573 52 573 52 808 c 0,7,8
 52 1066 52 1066 159.5 1259.5 c 128,-1,9
 267 1453 267 1453 451.5 1553 c 128,-1,10
 636 1653 636 1653 872 1653 c 128,-1,11
 1108 1653 1108 1653 1292.5 1553 c 128,-1,12
 1477 1453 1477 1453 1584.5 1259.5 c 128,-1,13
 1692 1066 1692 1066 1692 808 c 0,0,1
872 319 m 0,14,15
 911 319 911 319 942 332 c 128,-1,16
 973 345 973 345 994.5 368 c 128,-1,17
 1016 391 1016 391 1032 422 c 128,-1,18
 1048 453 1048 453 1057 489.5 c 128,-1,19
 1066 526 1066 526 1072 565 c 128,-1,20
 1078 604 1078 604 1079.5 643.5 c 128,-1,21
 1081 683 1081 683 1082 721 c 128,-1,22
 1083 759 1083 759 1082 793 c 0,23,24
 1082 813 1082 813 1082 823 c 0,25,26
 1082 834 1082 834 1082 858 c 0,27,28
 1081 894 1081 894 1082 934 c 128,-1,29
 1083 974 1083 974 1078.5 1016.5 c 128,-1,30
 1074 1059 1074 1059 1067.5 1099 c 128,-1,31
 1061 1139 1061 1139 1045 1175 c 128,-1,32
 1029 1211 1029 1211 1007.5 1238 c 128,-1,33
 986 1265 986 1265 951 1280.5 c 128,-1,34
 916 1296 916 1296 872 1296 c 0,35,36
 833 1296 833 1296 801.5 1284 c 128,-1,37
 770 1272 770 1272 749 1250.5 c 128,-1,38
 728 1229 728 1229 711.5 1200.5 c 128,-1,39
 695 1172 695 1172 686.5 1138.5 c 128,-1,40
 678 1105 678 1105 671.5 1068.5 c 128,-1,41
 665 1032 665 1032 664 995.5 c 128,-1,42
 663 959 663 959 661.5 924 c 128,-1,43
 660 889 660 889 662 858 c 1,44,45
 662 834 662 834 662 823 c 0,46,47
 662 813 662 813 662 793 c 0,48,49
 663 763 663 763 662 730 c 128,-1,50
 661 697 661 697 663.5 661.5 c 128,-1,51
 666 626 666 626 669 591 c 128,-1,52
 672 556 672 556 679.5 522 c 128,-1,53
 687 488 687 488 697 458 c 128,-1,54
 707 428 707 428 723 402.5 c 128,-1,55
 739 377 739 377 759.5 358.5 c 128,-1,56
 780 340 780 340 809 329.5 c 128,-1,57
 838 319 838 319 872 319 c 0,14,15
1044 2085 m 0,58,59
 1088 2085 1088 2085 1124 2066 c 128,-1,60
 1160 2047 1160 2047 1186 2012.5 c 128,-1,61
 1212 1978 1212 1978 1231.5 1944 c 128,-1,62
 1251 1910 1251 1910 1274.5 1865 c 128,-1,63
 1298 1820 1298 1820 1316 1794 c 1,64,-1
 1203 1720 l 1,65,66
 1130 1790 1130 1790 1102.5 1809 c 128,-1,67
 1075 1828 1075 1828 1056 1828 c 0,68,69
 1011 1828 1011 1828 949 1798 c 128,-1,70
 887 1768 887 1768 820.5 1737.5 c 128,-1,71
 754 1707 754 1707 699 1707 c 0,72,73
 654 1707 654 1707 618 1725.5 c 128,-1,74
 582 1744 582 1744 555.5 1778.5 c 128,-1,75
 529 1813 529 1813 510 1846.5 c 128,-1,76
 491 1880 491 1880 467 1925.5 c 128,-1,77
 443 1971 443 1971 425 1997 c 1,78,-1
 539 2072 l 1,79,80
 615 1999 615 1999 643 1979.5 c 128,-1,81
 671 1960 671 1960 689 1960 c 0,82,83
 725 1960 725 1960 772 1979.5 c 128,-1,84
 819 1999 819 1999 858 2022.5 c 128,-1,85
 897 2046 897 2046 948 2065.5 c 128,-1,86
 999 2085 999 2085 1044 2085 c 0,58,59
EndSplineSet
EndChar

StartChar: Odieresis
Encoding: 214 214 152
Width: 1744
GlyphClass: 2
Flags: W
LayerCount: 2
Fore
SplineSet
1692 808 m 0,0,1
 1692 573 1692 573 1584.5 381 c 128,-1,2
 1477 189 1477 189 1289 80 c 128,-1,3
 1101 -29 1101 -29 872 -29 c 128,-1,4
 643 -29 643 -29 455 80 c 128,-1,5
 267 189 267 189 159.5 381 c 128,-1,6
 52 573 52 573 52 808 c 0,7,8
 52 1066 52 1066 159.5 1259.5 c 128,-1,9
 267 1453 267 1453 451.5 1553 c 128,-1,10
 636 1653 636 1653 872 1653 c 128,-1,11
 1108 1653 1108 1653 1292.5 1553 c 128,-1,12
 1477 1453 1477 1453 1584.5 1259.5 c 128,-1,13
 1692 1066 1692 1066 1692 808 c 0,0,1
872 319 m 0,14,15
 911 319 911 319 942 332 c 128,-1,16
 973 345 973 345 994.5 368 c 128,-1,17
 1016 391 1016 391 1032 422 c 128,-1,18
 1048 453 1048 453 1057 489.5 c 128,-1,19
 1066 526 1066 526 1072 565 c 128,-1,20
 1078 604 1078 604 1079.5 643.5 c 128,-1,21
 1081 683 1081 683 1082 721 c 128,-1,22
 1083 759 1083 759 1082 793 c 0,23,24
 1082 813 1082 813 1082 823 c 0,25,26
 1082 834 1082 834 1082 858 c 0,27,28
 1081 894 1081 894 1082 934 c 128,-1,29
 1083 974 1083 974 1078.5 1016.5 c 128,-1,30
 1074 1059 1074 1059 1067.5 1099 c 128,-1,31
 1061 1139 1061 1139 1045 1175 c 128,-1,32
 1029 1211 1029 1211 1007.5 1238 c 128,-1,33
 986 1265 986 1265 951 1280.5 c 128,-1,34
 916 1296 916 1296 872 1296 c 0,35,36
 833 1296 833 1296 801.5 1284 c 128,-1,37
 770 1272 770 1272 749 1250.5 c 128,-1,38
 728 1229 728 1229 711.5 1200.5 c 128,-1,39
 695 1172 695 1172 686.5 1138.5 c 128,-1,40
 678 1105 678 1105 671.5 1068.5 c 128,-1,41
 665 1032 665 1032 664 995.5 c 128,-1,42
 663 959 663 959 661.5 924 c 128,-1,43
 660 889 660 889 662 858 c 1,44,45
 662 834 662 834 662 823 c 0,46,47
 662 813 662 813 662 793 c 0,48,49
 663 763 663 763 662 730 c 128,-1,50
 661 697 661 697 663.5 661.5 c 128,-1,51
 666 626 666 626 669 591 c 128,-1,52
 672 556 672 556 679.5 522 c 128,-1,53
 687 488 687 488 697 458 c 128,-1,54
 707 428 707 428 723 402.5 c 128,-1,55
 739 377 739 377 759.5 358.5 c 128,-1,56
 780 340 780 340 809 329.5 c 128,-1,57
 838 319 838 319 872 319 c 0,14,15
788 1904 m 0,58,59
 788 1796 788 1796 721.5 1735 c 128,-1,60
 655 1674 655 1674 564 1674 c 0,61,62
 471 1674 471 1674 403.5 1735.5 c 128,-1,63
 336 1797 336 1797 336 1907 c 0,64,65
 336 2014 336 2014 403 2074 c 128,-1,66
 470 2134 470 2134 562 2134 c 128,-1,67
 654 2134 654 2134 721 2073.5 c 128,-1,68
 788 2013 788 2013 788 1904 c 0,58,59
1405 1904 m 0,69,70
 1405 1796 1405 1796 1338.5 1735 c 128,-1,71
 1272 1674 1272 1674 1181 1674 c 0,72,73
 1088 1674 1088 1674 1020.5 1735.5 c 128,-1,74
 953 1797 953 1797 953 1907 c 0,75,76
 953 2014 953 2014 1020 2074 c 128,-1,77
 1087 2134 1087 2134 1179 2134 c 128,-1,78
 1271 2134 1271 2134 1338 2073.5 c 128,-1,79
 1405 2013 1405 2013 1405 1904 c 0,69,70
EndSplineSet
EndChar

StartChar: multiply
Encoding: 215 215 153
Width: 902
GlyphClass: 2
Flags: W
LayerCount: 2
Fore
SplineSet
451 467 m 1,0,-1
 259 274 l 1,1,-1
 86 447 l 1,2,-1
 278 640 l 1,3,-1
 74 844 l 1,4,-1
 254 1024 l 1,5,-1
 451 820 l 1,6,-1
 648 1024 l 1,7,-1
 828 844 l 1,8,-1
 624 640 l 1,9,-1
 816 447 l 1,10,-1
 643 274 l 1,11,-1
 451 467 l 1,0,-1
EndSplineSet
EndChar

StartChar: Oslash
Encoding: 216 216 154
Width: 1742
GlyphClass: 2
Flags: W
LayerCount: 2
Fore
SplineSet
567 -155 m 1,0,-1
 605 12 l 1,1,2
 356 94 356 94 203.5 309.5 c 128,-1,3
 51 525 51 525 51 808 c 0,4,5
 51 1066 51 1066 158.5 1259.5 c 128,-1,6
 266 1453 266 1453 450.5 1553 c 128,-1,7
 635 1653 635 1653 871 1653 c 0,8,9
 919 1653 919 1653 982 1646 c 1,10,-1
 1019 1804 l 1,11,-1
 1172 1774 l 1,12,-1
 1136 1616 l 1,13,14
 1390 1541 1390 1541 1540.5 1329.5 c 128,-1,15
 1691 1118 1691 1118 1691 808 c 0,16,17
 1691 573 1691 573 1583.5 381 c 128,-1,18
 1476 189 1476 189 1288 80 c 128,-1,19
 1100 -29 1100 -29 871 -29 c 0,20,21
 818 -29 818 -29 767 -23 c 1,22,-1
 729 -194 l 1,23,-1
 567 -155 l 1,0,-1
871 1296 m 0,24,25
 832 1296 832 1296 800.5 1284 c 128,-1,26
 769 1272 769 1272 748 1250.5 c 128,-1,27
 727 1229 727 1229 710.5 1200.5 c 128,-1,28
 694 1172 694 1172 685.5 1138.5 c 128,-1,29
 677 1105 677 1105 670.5 1068.5 c 128,-1,30
 664 1032 664 1032 663 995.5 c 128,-1,31
 662 959 662 959 660.5 924 c 128,-1,32
 659 889 659 889 661 858 c 1,33,34
 661 834 661 834 661 823 c 0,35,36
 661 822 661 822 661 776 c 128,-1,37
 661 730 661 730 661 718 c 128,-1,38
 661 706 661 706 662 664 c 128,-1,39
 663 622 663 622 666 601 c 128,-1,40
 669 580 669 580 673.5 546.5 c 128,-1,41
 678 513 678 513 685.5 487 c 128,-1,42
 693 461 693 461 703 438 c 1,43,-1
 901 1294 l 1,44,45
 881 1296 881 1296 871 1296 c 0,24,25
871 319 m 0,46,47
 910 319 910 319 941 332 c 128,-1,48
 972 345 972 345 993.5 368 c 128,-1,49
 1015 391 1015 391 1031 422 c 128,-1,50
 1047 453 1047 453 1056 489.5 c 128,-1,51
 1065 526 1065 526 1071 565 c 128,-1,52
 1077 604 1077 604 1078.5 643.5 c 128,-1,53
 1080 683 1080 683 1081 721 c 128,-1,54
 1082 759 1082 759 1081 793 c 0,55,56
 1081 813 1081 813 1081 823 c 0,57,58
 1081 830 1081 830 1081.5 867 c 128,-1,59
 1082 904 1082 904 1081.5 920 c 128,-1,60
 1081 936 1081 936 1080 971.5 c 128,-1,61
 1079 1007 1079 1007 1076 1029.5 c 128,-1,62
 1073 1052 1073 1052 1068.5 1082 c 128,-1,63
 1064 1112 1064 1112 1056.5 1137.5 c 128,-1,64
 1049 1163 1049 1163 1039 1185 c 1,65,-1
 845 320 l 1,66,67
 853 319 853 319 871 319 c 0,46,47
EndSplineSet
EndChar

StartChar: Ugrave
Encoding: 217 217 155
Width: 1683
GlyphClass: 2
Flags: W
LayerCount: 2
Fore
SplineSet
1485 1270 m 1,0,-1
 1639 1270 l 1,1,-1
 1639 1622 l 1,2,-1
 985 1622 l 1,3,-1
 985 1270 l 1,4,-1
 1149 1270 l 1,5,-1
 1149 536 l 2,6,7
 1149 448 1149 448 1097 397 c 128,-1,8
 1045 346 1045 346 953 346 c 0,9,10
 901 346 901 346 862.5 368 c 128,-1,11
 824 390 824 390 803.5 427.5 c 128,-1,12
 783 465 783 465 773.5 508 c 128,-1,13
 764 551 764 551 764 600 c 2,14,-1
 764 1270 l 1,15,-1
 912 1270 l 1,16,-1
 912 1622 l 1,17,-1
 43 1622 l 1,18,-1
 43 1270 l 1,19,-1
 204 1270 l 1,20,-1
 204 704 l 2,21,22
 204 616 204 616 211.5 541 c 128,-1,23
 219 466 219 466 238.5 390 c 128,-1,24
 258 314 258 314 289 253 c 128,-1,25
 320 192 320 192 369 138 c 128,-1,26
 418 84 418 84 482.5 48 c 128,-1,27
 547 12 547 12 636 -8.5 c 128,-1,28
 725 -29 725 -29 834 -29 c 0,29,30
 1005 -29 1005 -29 1153 39 c 128,-1,31
 1301 107 1301 107 1393 234.5 c 128,-1,32
 1485 362 1485 362 1485 520 c 2,33,-1
 1485 1270 l 1,0,-1
696 2270 m 1,34,-1
 1170 1833 l 1,35,-1
 1066 1692 l 1,36,-1
 512 2005 l 1,37,-1
 696 2270 l 1,34,-1
EndSplineSet
EndChar

StartChar: Uacute
Encoding: 218 218 156
Width: 1683
GlyphClass: 2
Flags: W
LayerCount: 2
Fore
SplineSet
1485 520 m 2,0,1
 1485 362 1485 362 1393 234.5 c 128,-1,2
 1301 107 1301 107 1153 39 c 128,-1,3
 1005 -29 1005 -29 834 -29 c 0,4,5
 725 -29 725 -29 636 -8.5 c 128,-1,6
 547 12 547 12 482.5 48 c 128,-1,7
 418 84 418 84 369 138 c 128,-1,8
 320 192 320 192 289 253 c 128,-1,9
 258 314 258 314 238.5 390 c 128,-1,10
 219 466 219 466 211.5 541 c 128,-1,11
 204 616 204 616 204 704 c 2,12,-1
 204 1270 l 1,13,-1
 43 1270 l 1,14,-1
 43 1622 l 1,15,-1
 912 1622 l 1,16,-1
 912 1270 l 1,17,-1
 764 1270 l 1,18,-1
 764 600 l 2,19,20
 764 551 764 551 773.5 508 c 128,-1,21
 783 465 783 465 803.5 427.5 c 128,-1,22
 824 390 824 390 862.5 368 c 128,-1,23
 901 346 901 346 953 346 c 0,24,25
 1045 346 1045 346 1097 397 c 128,-1,26
 1149 448 1149 448 1149 536 c 2,27,-1
 1149 1270 l 1,28,-1
 985 1270 l 1,29,-1
 985 1622 l 1,30,-1
 1639 1622 l 1,31,-1
 1639 1270 l 1,32,-1
 1485 1270 l 1,33,-1
 1485 520 l 2,0,1
1170 2005 m 1,34,-1
 616 1692 l 1,35,-1
 512 1833 l 1,36,-1
 986 2270 l 1,37,-1
 1170 2005 l 1,34,-1
EndSplineSet
EndChar

StartChar: Ucircumflex
Encoding: 219 219 157
Width: 1683
GlyphClass: 2
Flags: W
LayerCount: 2
Fore
SplineSet
1485 520 m 2,0,1
 1485 362 1485 362 1393 234.5 c 128,-1,2
 1301 107 1301 107 1153 39 c 128,-1,3
 1005 -29 1005 -29 834 -29 c 0,4,5
 725 -29 725 -29 636 -8.5 c 128,-1,6
 547 12 547 12 482.5 48 c 128,-1,7
 418 84 418 84 369 138 c 128,-1,8
 320 192 320 192 289 253 c 128,-1,9
 258 314 258 314 238.5 390 c 128,-1,10
 219 466 219 466 211.5 541 c 128,-1,11
 204 616 204 616 204 704 c 2,12,-1
 204 1270 l 1,13,-1
 43 1270 l 1,14,-1
 43 1622 l 1,15,-1
 912 1622 l 1,16,-1
 912 1270 l 1,17,-1
 764 1270 l 1,18,-1
 764 600 l 2,19,20
 764 551 764 551 773.5 508 c 128,-1,21
 783 465 783 465 803.5 427.5 c 128,-1,22
 824 390 824 390 862.5 368 c 128,-1,23
 901 346 901 346 953 346 c 0,24,25
 1045 346 1045 346 1097 397 c 128,-1,26
 1149 448 1149 448 1149 536 c 2,27,-1
 1149 1270 l 1,28,-1
 985 1270 l 1,29,-1
 985 1622 l 1,30,-1
 1639 1622 l 1,31,-1
 1639 1270 l 1,32,-1
 1485 1270 l 1,33,-1
 1485 520 l 2,0,1
976 2162 m 1,34,-1
 1250 1786 l 1,35,-1
 1096 1685 l 1,36,-1
 841 1930 l 1,37,-1
 586 1685 l 1,38,-1
 432 1786 l 1,39,-1
 705 2163 l 1,40,-1
 976 2162 l 1,34,-1
EndSplineSet
EndChar

StartChar: Udieresis
Encoding: 220 220 158
Width: 1683
GlyphClass: 2
Flags: W
LayerCount: 2
Fore
SplineSet
1485 1270 m 1,0,-1
 1639 1270 l 1,1,-1
 1639 1622 l 1,2,-1
 985 1622 l 1,3,-1
 985 1270 l 1,4,-1
 1149 1270 l 1,5,-1
 1149 536 l 2,6,7
 1149 448 1149 448 1097 397 c 128,-1,8
 1045 346 1045 346 953 346 c 0,9,10
 901 346 901 346 862.5 368 c 128,-1,11
 824 390 824 390 803.5 427.5 c 128,-1,12
 783 465 783 465 773.5 508 c 128,-1,13
 764 551 764 551 764 600 c 2,14,-1
 764 1270 l 1,15,-1
 912 1270 l 1,16,-1
 912 1622 l 1,17,-1
 43 1622 l 1,18,-1
 43 1270 l 1,19,-1
 204 1270 l 1,20,-1
 204 704 l 2,21,22
 204 616 204 616 211.5 541 c 128,-1,23
 219 466 219 466 238.5 390 c 128,-1,24
 258 314 258 314 289 253 c 128,-1,25
 320 192 320 192 369 138 c 128,-1,26
 418 84 418 84 482.5 48 c 128,-1,27
 547 12 547 12 636 -8.5 c 128,-1,28
 725 -29 725 -29 834 -29 c 0,29,30
 1005 -29 1005 -29 1153 39 c 128,-1,31
 1301 107 1301 107 1393 234.5 c 128,-1,32
 1485 362 1485 362 1485 520 c 2,33,-1
 1485 1270 l 1,0,-1
758 1904 m 0,34,35
 758 1796 758 1796 691.5 1735 c 128,-1,36
 625 1674 625 1674 534 1674 c 0,37,38
 441 1674 441 1674 373.5 1735.5 c 128,-1,39
 306 1797 306 1797 306 1907 c 0,40,41
 306 2014 306 2014 373 2074 c 128,-1,42
 440 2134 440 2134 532 2134 c 128,-1,43
 624 2134 624 2134 691 2073.5 c 128,-1,44
 758 2013 758 2013 758 1904 c 0,34,35
1375 1904 m 0,45,46
 1375 1796 1375 1796 1308.5 1735 c 128,-1,47
 1242 1674 1242 1674 1151 1674 c 0,48,49
 1058 1674 1058 1674 990.5 1735.5 c 128,-1,50
 923 1797 923 1797 923 1907 c 0,51,52
 923 2014 923 2014 990 2074 c 128,-1,53
 1057 2134 1057 2134 1149 2134 c 128,-1,54
 1241 2134 1241 2134 1308 2073.5 c 128,-1,55
 1375 2013 1375 2013 1375 1904 c 0,45,46
EndSplineSet
EndChar

StartChar: Yacute
Encoding: 221 221 159
Width: 1559
GlyphClass: 2
Flags: W
LayerCount: 2
Fore
SplineSet
1564 1270 m 1,0,-1
 1490 1270 l 2,1,2
 1455 1270 1455 1270 1428.5 1262 c 128,-1,3
 1402 1254 1402 1254 1384 1243.5 c 128,-1,4
 1366 1233 1366 1233 1346 1206 c 128,-1,5
 1326 1179 1326 1179 1314.5 1159.5 c 128,-1,6
 1303 1140 1303 1140 1279 1095 c 2,7,-1
 1075 724 l 1,8,-1
 1075 359 l 1,9,-1
 1232 359 l 1,10,-1
 1232 0 l 1,11,-1
 363 0 l 1,12,-1
 363 359 l 1,13,-1
 518 359 l 1,14,-1
 518 672 l 1,15,-1
 97 1270 l 1,16,-1
 -15 1270 l 1,17,-1
 -15 1622 l 1,18,-1
 837 1622 l 1,19,-1
 837 1270 l 1,20,-1
 746 1270 l 1,21,22
 768 1240 768 1240 838.5 1131.5 c 128,-1,23
 909 1023 909 1023 930 993 c 1,24,25
 1044 1166 1044 1166 1044 1221 c 0,26,27
 1044 1230 1044 1230 1042.5 1237.5 c 128,-1,28
 1041 1245 1041 1245 1037 1250 c 128,-1,29
 1033 1255 1033 1255 1029.5 1259 c 128,-1,30
 1026 1263 1026 1263 1018.5 1265 c 128,-1,31
 1011 1267 1011 1267 1005.5 1268.5 c 128,-1,32
 1000 1270 1000 1270 989 1270 c 128,-1,33
 978 1270 978 1270 971 1270 c 128,-1,34
 964 1270 964 1270 949.5 1270 c 128,-1,35
 935 1270 935 1270 927 1270 c 1,36,-1
 927 1622 l 1,37,-1
 1564 1622 l 1,38,-1
 1564 1270 l 1,0,-1
1106 2005 m 1,39,-1
 552 1692 l 1,40,-1
 448 1833 l 1,41,-1
 922 2270 l 1,42,-1
 1106 2005 l 1,39,-1
EndSplineSet
EndChar

StartChar: Thorn
Encoding: 222 222 160
Width: 1638
GlyphClass: 2
Flags: W
LayerCount: 2
Fore
SplineSet
90 363 m 1,0,-1
 246 363 l 1,1,-1
 246 1488 l 1,2,-1
 95 1488 l 1,3,-1
 95 1843 l 1,4,-1
 805 1843 l 1,5,-1
 804 1543 l 1,6,7
 878 1543 878 1543 936 1542 c 128,-1,8
 994 1541 994 1541 1065 1535.5 c 128,-1,9
 1136 1530 1136 1530 1190.5 1520 c 128,-1,10
 1245 1510 1245 1510 1304.5 1492 c 128,-1,11
 1364 1474 1364 1474 1407.5 1449.5 c 128,-1,12
 1451 1425 1451 1425 1492 1388.5 c 128,-1,13
 1533 1352 1533 1352 1558.5 1306.5 c 128,-1,14
 1584 1261 1584 1261 1599.5 1200 c 128,-1,15
 1615 1139 1615 1139 1615 1066 c 0,16,17
 1615 932 1615 932 1568 833.5 c 128,-1,18
 1521 735 1521 735 1432.5 675.5 c 128,-1,19
 1344 616 1344 616 1225.5 587.5 c 128,-1,20
 1107 559 1107 559 955 559 c 0,21,22
 884 559 884 559 805 569 c 1,23,-1
 805 363 l 1,24,-1
 951 363 l 1,25,-1
 951 0 l 1,26,-1
 90 0 l 1,27,-1
 90 363 l 1,0,-1
805 895 m 1,28,-1
 866 895 l 2,29,30
 976 895 976 895 1034.5 932.5 c 128,-1,31
 1093 970 1093 970 1093 1056 c 0,32,33
 1093 1132 1093 1132 1039.5 1170 c 128,-1,34
 986 1208 986 1208 909 1208 c 2,35,-1
 805 1208 l 1,36,-1
 805 895 l 1,28,-1
EndSplineSet
EndChar

StartChar: germandbls
Encoding: 223 223 161
Width: 1633
GlyphClass: 2
Flags: W
LayerCount: 2
Fore
SplineSet
803 1623 m 0,0,1
 932 1623 932 1623 1038.5 1601.5 c 128,-1,2
 1145 1580 1145 1580 1217.5 1543.5 c 128,-1,3
 1290 1507 1290 1507 1339 1457 c 128,-1,4
 1388 1407 1388 1407 1410.5 1351.5 c 128,-1,5
 1433 1296 1433 1296 1433 1236 c 0,6,7
 1433 1140 1433 1140 1373 1049 c 128,-1,8
 1313 958 1313 958 1207 898 c 1,9,10
 1398 837 1398 837 1503.5 707 c 128,-1,11
 1609 577 1609 577 1609 429 c 0,12,13
 1609 340 1609 340 1569.5 260.5 c 128,-1,14
 1530 181 1530 181 1454.5 118.5 c 128,-1,15
 1379 56 1379 56 1257 19 c 128,-1,16
 1135 -18 1135 -18 981 -18 c 1,17,-1
 980 349 l 1,18,19
 1125 431 1125 431 1125 533 c 0,20,21
 1125 625 1125 625 1034 687.5 c 128,-1,22
 943 750 943 750 768 750 c 1,23,-1
 765 901 l 1,24,25
 853 901 853 901 916.5 973 c 128,-1,26
 980 1045 980 1045 980 1124 c 0,27,28
 980 1192 980 1192 944 1233.5 c 128,-1,29
 908 1275 908 1275 834 1275 c 0,30,31
 773 1275 773 1275 733 1240.5 c 128,-1,32
 693 1206 693 1206 693 1131 c 2,33,-1
 694 349 l 1,34,35
 820 349 820 349 845 350 c 1,36,-1
 845 0 l 1,37,-1
 -6 0 l 1,38,-1
 -6 369 l 1,39,-1
 166 369 l 1,40,-1
 166 1092 l 2,41,42
 166 1212 166 1212 195.5 1303 c 128,-1,43
 225 1394 225 1394 278.5 1454.5 c 128,-1,44
 332 1515 332 1515 413 1553 c 128,-1,45
 494 1591 494 1591 588.5 1607 c 128,-1,46
 683 1623 683 1623 803 1623 c 0,0,1
EndSplineSet
EndChar

StartChar: agrave
Encoding: 224 224 162
Width: 1294
GlyphClass: 2
Flags: W
LayerCount: 2
Fore
SplineSet
30 308 m 0,0,1
 30 159 30 159 143.5 70.5 c 128,-1,2
 257 -18 257 -18 419 -18 c 0,3,4
 501 -18 501 -18 588 18 c 128,-1,5
 675 54 675 54 725 119 c 1,6,-1
 775 0 l 1,7,-1
 1247 0 l 1,8,-1
 1247 305 l 1,9,-1
 1171 305 l 1,10,-1
 1171 750 l 2,11,12
 1171 819 1171 819 1145.5 874.5 c 128,-1,13
 1120 930 1120 930 1082.5 965 c 128,-1,14
 1045 1000 1045 1000 988.5 1025.5 c 128,-1,15
 932 1051 932 1051 883.5 1063.5 c 128,-1,16
 835 1076 835 1076 772.5 1083 c 128,-1,17
 710 1090 710 1090 677 1091 c 128,-1,18
 644 1092 644 1092 603 1092 c 0,19,20
 496 1092 496 1092 375 1074.5 c 128,-1,21
 254 1057 254 1057 187 1040 c 2,22,-1
 120 1022 l 1,23,-1
 120 708 l 1,24,-1
 295 708 l 1,25,26
 367 803 367 803 510 803 c 0,27,28
 721 803 721 803 721 637 c 2,29,-1
 721 592 l 1,30,31
 611 630 611 630 465 630 c 0,32,33
 382 630 382 630 305.5 609.5 c 128,-1,34
 229 589 229 589 167 550 c 128,-1,35
 105 511 105 511 67.5 448 c 128,-1,36
 30 385 30 385 30 308 c 0,0,1
520 326 m 0,37,38
 520 369 520 369 551 403.5 c 128,-1,39
 582 438 582 438 625 438 c 0,40,41
 647 438 647 438 671.5 433 c 128,-1,42
 696 428 696 428 710 422 c 2,43,-1
 724 417 l 1,44,-1
 724 270 l 1,45,46
 720 265 720 265 712 257.5 c 128,-1,47
 704 250 704 250 676 237 c 128,-1,48
 648 224 648 224 616 224 c 0,49,50
 572 224 572 224 546 252.5 c 128,-1,51
 520 281 520 281 520 326 c 0,37,38
496 1708 m 1,52,-1
 970 1271 l 1,53,-1
 866 1130 l 1,54,-1
 312 1443 l 1,55,-1
 496 1708 l 1,52,-1
EndSplineSet
EndChar

StartChar: aacute
Encoding: 225 225 163
Width: 1294
GlyphClass: 2
Flags: W
LayerCount: 2
Fore
SplineSet
30 308 m 0,0,1
 30 385 30 385 67.5 448 c 128,-1,2
 105 511 105 511 167 550 c 128,-1,3
 229 589 229 589 305.5 609.5 c 128,-1,4
 382 630 382 630 465 630 c 0,5,6
 611 630 611 630 721 592 c 1,7,-1
 721 637 l 2,8,9
 721 803 721 803 510 803 c 0,10,11
 367 803 367 803 295 708 c 1,12,-1
 120 708 l 1,13,-1
 120 1022 l 1,14,-1
 187 1040 l 2,15,16
 254 1057 254 1057 375 1074.5 c 128,-1,17
 496 1092 496 1092 603 1092 c 0,18,19
 644 1092 644 1092 677 1091 c 128,-1,20
 710 1090 710 1090 772.5 1083 c 128,-1,21
 835 1076 835 1076 883.5 1063.5 c 128,-1,22
 932 1051 932 1051 988.5 1025.5 c 128,-1,23
 1045 1000 1045 1000 1082.5 965 c 128,-1,24
 1120 930 1120 930 1145.5 874.5 c 128,-1,25
 1171 819 1171 819 1171 750 c 2,26,-1
 1171 305 l 1,27,-1
 1247 305 l 1,28,-1
 1247 0 l 1,29,-1
 775 0 l 1,30,-1
 725 119 l 1,31,32
 675 54 675 54 588 18 c 128,-1,33
 501 -18 501 -18 419 -18 c 0,34,35
 257 -18 257 -18 143.5 70.5 c 128,-1,36
 30 159 30 159 30 308 c 0,0,1
520 326 m 0,37,38
 520 281 520 281 546 252.5 c 128,-1,39
 572 224 572 224 616 224 c 0,40,41
 648 224 648 224 676 237 c 128,-1,42
 704 250 704 250 712 257.5 c 128,-1,43
 720 265 720 265 724 270 c 1,44,-1
 724 417 l 1,45,-1
 710 422 l 2,46,47
 696 428 696 428 671.5 433 c 128,-1,48
 647 438 647 438 625 438 c 0,49,50
 582 438 582 438 551 403.5 c 128,-1,51
 520 369 520 369 520 326 c 0,37,38
1092 1443 m 1,52,-1
 538 1130 l 1,53,-1
 434 1271 l 1,54,-1
 908 1708 l 1,55,-1
 1092 1443 l 1,52,-1
EndSplineSet
EndChar

StartChar: acircumflex
Encoding: 226 226 164
Width: 1294
GlyphClass: 2
Flags: W
LayerCount: 2
Fore
SplineSet
30 308 m 0,0,1
 30 385 30 385 67.5 448 c 128,-1,2
 105 511 105 511 167 550 c 128,-1,3
 229 589 229 589 305.5 609.5 c 128,-1,4
 382 630 382 630 465 630 c 0,5,6
 611 630 611 630 721 592 c 1,7,-1
 721 637 l 2,8,9
 721 803 721 803 510 803 c 0,10,11
 367 803 367 803 295 708 c 1,12,-1
 120 708 l 1,13,-1
 120 1022 l 1,14,-1
 187 1040 l 2,15,16
 254 1057 254 1057 375 1074.5 c 128,-1,17
 496 1092 496 1092 603 1092 c 0,18,19
 644 1092 644 1092 677 1091 c 128,-1,20
 710 1090 710 1090 772.5 1083 c 128,-1,21
 835 1076 835 1076 883.5 1063.5 c 128,-1,22
 932 1051 932 1051 988.5 1025.5 c 128,-1,23
 1045 1000 1045 1000 1082.5 965 c 128,-1,24
 1120 930 1120 930 1145.5 874.5 c 128,-1,25
 1171 819 1171 819 1171 750 c 2,26,-1
 1171 305 l 1,27,-1
 1247 305 l 1,28,-1
 1247 0 l 1,29,-1
 775 0 l 1,30,-1
 725 119 l 1,31,32
 675 54 675 54 588 18 c 128,-1,33
 501 -18 501 -18 419 -18 c 0,34,35
 257 -18 257 -18 143.5 70.5 c 128,-1,36
 30 159 30 159 30 308 c 0,0,1
520 326 m 0,37,38
 520 281 520 281 546 252.5 c 128,-1,39
 572 224 572 224 616 224 c 0,40,41
 648 224 648 224 676 237 c 128,-1,42
 704 250 704 250 712 257.5 c 128,-1,43
 720 265 720 265 724 270 c 1,44,-1
 724 417 l 1,45,-1
 710 422 l 2,46,47
 696 428 696 428 671.5 433 c 128,-1,48
 647 438 647 438 625 438 c 0,49,50
 582 438 582 438 551 403.5 c 128,-1,51
 520 369 520 369 520 326 c 0,37,38
776 1600 m 1,52,-1
 1050 1224 l 1,53,-1
 896 1123 l 1,54,-1
 641 1368 l 1,55,-1
 386 1123 l 1,56,-1
 232 1224 l 1,57,-1
 505 1601 l 1,58,-1
 776 1600 l 1,52,-1
EndSplineSet
EndChar

StartChar: atilde
Encoding: 227 227 165
Width: 1294
GlyphClass: 2
Flags: W
LayerCount: 2
Fore
SplineSet
30 308 m 0,0,1
 30 159 30 159 143.5 70.5 c 128,-1,2
 257 -18 257 -18 419 -18 c 0,3,4
 501 -18 501 -18 588 18 c 128,-1,5
 675 54 675 54 725 119 c 1,6,-1
 775 0 l 1,7,-1
 1247 0 l 1,8,-1
 1247 305 l 1,9,-1
 1171 305 l 1,10,-1
 1171 750 l 2,11,12
 1171 819 1171 819 1145.5 874.5 c 128,-1,13
 1120 930 1120 930 1082.5 965 c 128,-1,14
 1045 1000 1045 1000 988.5 1025.5 c 128,-1,15
 932 1051 932 1051 883.5 1063.5 c 128,-1,16
 835 1076 835 1076 772.5 1083 c 128,-1,17
 710 1090 710 1090 677 1091 c 128,-1,18
 644 1092 644 1092 603 1092 c 0,19,20
 496 1092 496 1092 375 1074.5 c 128,-1,21
 254 1057 254 1057 187 1040 c 2,22,-1
 120 1022 l 1,23,-1
 120 708 l 1,24,-1
 295 708 l 1,25,26
 367 803 367 803 510 803 c 0,27,28
 721 803 721 803 721 637 c 2,29,-1
 721 592 l 1,30,31
 611 630 611 630 465 630 c 0,32,33
 382 630 382 630 305.5 609.5 c 128,-1,34
 229 589 229 589 167 550 c 128,-1,35
 105 511 105 511 67.5 448 c 128,-1,36
 30 385 30 385 30 308 c 0,0,1
520 326 m 0,37,38
 520 369 520 369 551 403.5 c 128,-1,39
 582 438 582 438 625 438 c 0,40,41
 647 438 647 438 671.5 433 c 128,-1,42
 696 428 696 428 710 422 c 2,43,-1
 724 417 l 1,44,-1
 724 270 l 1,45,46
 720 265 720 265 712 257.5 c 128,-1,47
 704 250 704 250 676 237 c 128,-1,48
 648 224 648 224 616 224 c 0,49,50
 572 224 572 224 546 252.5 c 128,-1,51
 520 281 520 281 520 326 c 0,37,38
789 1523 m 0,52,53
 833 1523 833 1523 869 1504 c 128,-1,54
 905 1485 905 1485 931 1450.5 c 128,-1,55
 957 1416 957 1416 976.5 1382 c 128,-1,56
 996 1348 996 1348 1019.5 1303 c 128,-1,57
 1043 1258 1043 1258 1061 1232 c 1,58,-1
 948 1158 l 1,59,60
 875 1228 875 1228 847.5 1247 c 128,-1,61
 820 1266 820 1266 801 1266 c 0,62,63
 756 1266 756 1266 694 1236 c 128,-1,64
 632 1206 632 1206 565.5 1175.5 c 128,-1,65
 499 1145 499 1145 444 1145 c 0,66,67
 399 1145 399 1145 363 1163.5 c 128,-1,68
 327 1182 327 1182 300.5 1216.5 c 128,-1,69
 274 1251 274 1251 255 1284.5 c 128,-1,70
 236 1318 236 1318 212 1363.5 c 128,-1,71
 188 1409 188 1409 170 1435 c 1,72,-1
 284 1510 l 1,73,74
 360 1437 360 1437 388 1417.5 c 128,-1,75
 416 1398 416 1398 434 1398 c 0,76,77
 470 1398 470 1398 517 1417.5 c 128,-1,78
 564 1437 564 1437 603 1460.5 c 128,-1,79
 642 1484 642 1484 693 1503.5 c 128,-1,80
 744 1523 744 1523 789 1523 c 0,52,53
EndSplineSet
EndChar

StartChar: adieresis
Encoding: 228 228 166
Width: 1294
GlyphClass: 2
Flags: W
LayerCount: 2
Fore
SplineSet
30 308 m 0,0,1
 30 159 30 159 143.5 70.5 c 128,-1,2
 257 -18 257 -18 419 -18 c 0,3,4
 501 -18 501 -18 588 18 c 128,-1,5
 675 54 675 54 725 119 c 1,6,-1
 775 0 l 1,7,-1
 1247 0 l 1,8,-1
 1247 305 l 1,9,-1
 1171 305 l 1,10,-1
 1171 750 l 2,11,12
 1171 819 1171 819 1145.5 874.5 c 128,-1,13
 1120 930 1120 930 1082.5 965 c 128,-1,14
 1045 1000 1045 1000 988.5 1025.5 c 128,-1,15
 932 1051 932 1051 883.5 1063.5 c 128,-1,16
 835 1076 835 1076 772.5 1083 c 128,-1,17
 710 1090 710 1090 677 1091 c 128,-1,18
 644 1092 644 1092 603 1092 c 0,19,20
 496 1092 496 1092 375 1074.5 c 128,-1,21
 254 1057 254 1057 187 1040 c 2,22,-1
 120 1022 l 1,23,-1
 120 708 l 1,24,-1
 295 708 l 1,25,26
 367 803 367 803 510 803 c 0,27,28
 721 803 721 803 721 637 c 2,29,-1
 721 592 l 1,30,31
 611 630 611 630 465 630 c 0,32,33
 382 630 382 630 305.5 609.5 c 128,-1,34
 229 589 229 589 167 550 c 128,-1,35
 105 511 105 511 67.5 448 c 128,-1,36
 30 385 30 385 30 308 c 0,0,1
520 326 m 0,37,38
 520 369 520 369 551 403.5 c 128,-1,39
 582 438 582 438 625 438 c 0,40,41
 647 438 647 438 671.5 433 c 128,-1,42
 696 428 696 428 710 422 c 2,43,-1
 724 417 l 1,44,-1
 724 270 l 1,45,46
 720 265 720 265 712 257.5 c 128,-1,47
 704 250 704 250 676 237 c 128,-1,48
 648 224 648 224 616 224 c 0,49,50
 572 224 572 224 546 252.5 c 128,-1,51
 520 281 520 281 520 326 c 0,37,38
559 1342 m 0,52,53
 559 1234 559 1234 492.5 1173 c 128,-1,54
 426 1112 426 1112 335 1112 c 0,55,56
 242 1112 242 1112 174.5 1173.5 c 128,-1,57
 107 1235 107 1235 107 1345 c 0,58,59
 107 1452 107 1452 174 1512 c 128,-1,60
 241 1572 241 1572 333 1572 c 128,-1,61
 425 1572 425 1572 492 1511.5 c 128,-1,62
 559 1451 559 1451 559 1342 c 0,52,53
1176 1342 m 0,63,64
 1176 1234 1176 1234 1109.5 1173 c 128,-1,65
 1043 1112 1043 1112 952 1112 c 0,66,67
 859 1112 859 1112 791.5 1173.5 c 128,-1,68
 724 1235 724 1235 724 1345 c 0,69,70
 724 1452 724 1452 791 1512 c 128,-1,71
 858 1572 858 1572 950 1572 c 128,-1,72
 1042 1572 1042 1572 1109 1511.5 c 128,-1,73
 1176 1451 1176 1451 1176 1342 c 0,63,64
EndSplineSet
EndChar

StartChar: aring
Encoding: 229 229 167
Width: 1294
GlyphClass: 2
Flags: W
LayerCount: 2
Fore
SplineSet
30 308 m 0,0,1
 30 385 30 385 67.5 448 c 128,-1,2
 105 511 105 511 167 550 c 128,-1,3
 229 589 229 589 305.5 609.5 c 128,-1,4
 382 630 382 630 465 630 c 0,5,6
 611 630 611 630 721 592 c 1,7,-1
 721 637 l 2,8,9
 721 803 721 803 510 803 c 0,10,11
 367 803 367 803 295 708 c 1,12,-1
 120 708 l 1,13,-1
 120 1022 l 1,14,-1
 187 1040 l 2,15,16
 254 1057 254 1057 375 1074.5 c 128,-1,17
 496 1092 496 1092 603 1092 c 0,18,19
 644 1092 644 1092 677 1091 c 128,-1,20
 710 1090 710 1090 772.5 1083 c 128,-1,21
 835 1076 835 1076 883.5 1063.5 c 128,-1,22
 932 1051 932 1051 988.5 1025.5 c 128,-1,23
 1045 1000 1045 1000 1082.5 965 c 128,-1,24
 1120 930 1120 930 1145.5 874.5 c 128,-1,25
 1171 819 1171 819 1171 750 c 2,26,-1
 1171 305 l 1,27,-1
 1247 305 l 1,28,-1
 1247 0 l 1,29,-1
 775 0 l 1,30,-1
 725 119 l 1,31,32
 675 54 675 54 588 18 c 128,-1,33
 501 -18 501 -18 419 -18 c 0,34,35
 257 -18 257 -18 143.5 70.5 c 128,-1,36
 30 159 30 159 30 308 c 0,0,1
520 326 m 0,37,38
 520 281 520 281 546 252.5 c 128,-1,39
 572 224 572 224 616 224 c 0,40,41
 648 224 648 224 676 237 c 128,-1,42
 704 250 704 250 712 257.5 c 128,-1,43
 720 265 720 265 724 270 c 1,44,-1
 724 417 l 1,45,-1
 710 422 l 2,46,47
 696 428 696 428 671.5 433 c 128,-1,48
 647 438 647 438 625 438 c 0,49,50
 582 438 582 438 551 403.5 c 128,-1,51
 520 369 520 369 520 326 c 0,37,38
637 1240 m 0,52,53
 714 1240 714 1240 758 1284 c 128,-1,54
 802 1328 802 1328 802 1388 c 0,55,56
 802 1447 802 1447 758.5 1490 c 128,-1,57
 715 1533 715 1533 637 1533 c 0,58,59
 561 1533 561 1533 518.5 1490 c 128,-1,60
 476 1447 476 1447 476 1388 c 0,61,62
 476 1328 476 1328 519 1284 c 128,-1,63
 562 1240 562 1240 637 1240 c 0,52,53
637 1138 m 0,64,65
 510 1138 510 1138 438 1213 c 128,-1,66
 366 1288 366 1288 366 1389 c 0,67,68
 366 1488 366 1488 437 1560.5 c 128,-1,69
 508 1633 508 1633 637 1633 c 0,70,71
 770 1633 770 1633 843.5 1561 c 128,-1,72
 917 1489 917 1489 917 1389 c 0,73,74
 917 1288 917 1288 842.5 1213 c 128,-1,75
 768 1138 768 1138 637 1138 c 0,64,65
EndSplineSet
EndChar

StartChar: ae
Encoding: 230 230 168
Width: 1911
GlyphClass: 2
Flags: W
LayerCount: 2
Fore
SplineSet
30 299 m 0,0,1
 30 376 30 376 67.5 439 c 128,-1,2
 105 502 105 502 167 541 c 128,-1,3
 229 580 229 580 305.5 600.5 c 128,-1,4
 382 621 382 621 465 621 c 0,5,6
 611 621 611 621 721 583 c 1,7,-1
 721 628 l 2,8,9
 721 794 721 794 510 794 c 0,10,11
 367 794 367 794 295 699 c 1,12,-1
 120 699 l 1,13,-1
 120 1013 l 1,14,-1
 187 1030 l 2,15,16
 254 1048 254 1048 375 1065.5 c 128,-1,17
 496 1083 496 1083 603 1083 c 0,18,19
 671 1083 671 1083 735 1070 c 128,-1,20
 799 1057 799 1057 838 1040.5 c 128,-1,21
 877 1024 877 1024 911.5 1003 c 128,-1,22
 946 982 946 982 956 974 c 128,-1,23
 966 966 966 966 971 961 c 1,24,-1
 985 974 l 2,25,26
 998 987 998 987 1028 1005 c 128,-1,27
 1058 1023 1058 1023 1096.5 1041 c 128,-1,28
 1135 1059 1135 1059 1193.5 1072 c 128,-1,29
 1252 1085 1252 1085 1315 1085 c 0,30,31
 1487 1085 1487 1085 1614 1011.5 c 128,-1,32
 1741 938 1741 938 1803.5 818 c 128,-1,33
 1866 698 1866 698 1866 548 c 0,34,35
 1866 514 1866 514 1861 469 c 1,36,37
 1852 448 1852 448 1847.5 444.5 c 128,-1,38
 1843 441 1843 441 1824 441 c 2,39,-1
 1222 441 l 1,40,41
 1222 348 1222 348 1269.5 281.5 c 128,-1,42
 1317 215 1317 215 1399 215 c 0,43,44
 1471 215 1471 215 1504 250 c 128,-1,45
 1537 285 1537 285 1539 358 c 1,46,-1
 1846 358 l 1,47,-1
 1846 120 l 1,48,49
 1714 41 1714 41 1586.5 8 c 128,-1,50
 1459 -25 1459 -25 1299 -25 c 0,51,52
 1110 -25 1110 -25 967 105 c 1,53,54
 864 29 864 29 739.5 0 c 128,-1,55
 615 -29 615 -29 419 -27 c 0,56,57
 314 -26 314 -26 227 11.5 c 128,-1,58
 140 49 140 49 85 124 c 128,-1,59
 30 199 30 199 30 299 c 0,0,1
520 317 m 0,60,61
 520 272 520 272 546 243.5 c 128,-1,62
 572 215 572 215 616 215 c 0,63,64
 648 215 648 215 676 228 c 128,-1,65
 704 241 704 241 712 248.5 c 128,-1,66
 720 256 720 256 724 261 c 1,67,-1
 724 408 l 1,68,-1
 710 413 l 2,69,70
 696 418 696 418 671.5 423.5 c 128,-1,71
 647 429 647 429 625 429 c 0,72,73
 582 429 582 429 551 394.5 c 128,-1,74
 520 360 520 360 520 317 c 0,60,61
1224 620 m 1,75,-1
 1439 620 l 1,76,77
 1440 655 1440 655 1437.5 681 c 128,-1,78
 1435 707 1435 707 1426 739.5 c 128,-1,79
 1417 772 1417 772 1393 789.5 c 128,-1,80
 1369 807 1369 807 1332 807 c 0,81,82
 1278 807 1278 807 1251 758.5 c 128,-1,83
 1224 710 1224 710 1224 649 c 2,84,-1
 1224 620 l 1,75,-1
EndSplineSet
EndChar

StartChar: ccedilla
Encoding: 231 231 169
Width: 1112
GlyphClass: 2
Flags: W
LayerCount: 2
Fore
SplineSet
44 546 m 0,0,1
 44 655 44 655 80.5 754 c 128,-1,2
 117 853 117 853 182.5 928 c 128,-1,3
 248 1003 248 1003 347 1047.5 c 128,-1,4
 446 1092 446 1092 563 1092 c 0,5,6
 700 1092 700 1092 821 995 c 1,7,-1
 862 1072 l 1,8,-1
 1037 1072 l 1,9,-1
 1037 628 l 1,10,-1
 795 628 l 1,11,12
 795 694 795 694 759 736 c 128,-1,13
 723 778 723 778 672 778 c 0,14,15
 609 778 609 778 563 713 c 128,-1,16
 517 648 517 648 517 513 c 0,17,18
 517 473 517 473 524.5 437 c 128,-1,19
 532 401 532 401 549 368 c 128,-1,20
 566 335 566 335 597.5 315 c 128,-1,21
 629 295 629 295 672 295 c 0,22,23
 704 295 704 295 728.5 309 c 128,-1,24
 753 323 753 323 765.5 340 c 128,-1,25
 778 357 778 357 786.5 379.5 c 128,-1,26
 795 402 795 402 796.5 411 c 128,-1,27
 798 420 798 420 799 425 c 1,28,-1
 1039 425 l 1,29,-1
 1039 124 l 1,30,31
 970 55 970 55 846 18.5 c 128,-1,32
 722 -18 722 -18 596 -18 c 0,33,34
 438 -18 438 -18 314.5 45.5 c 128,-1,35
 191 109 191 109 117.5 238.5 c 128,-1,36
 44 368 44 368 44 546 c 0,0,1
475 0 m 1,37,-1
 655 0 l 1,38,-1
 655 -119 l 1,39,40
 788 -196 788 -196 788 -285 c 0,41,42
 788 -367 788 -367 679.5 -426 c 128,-1,43
 571 -485 571 -485 419 -485 c 2,44,-1
 398 -485 l 1,45,-1
 398 -372 l 1,46,47
 495 -371 495 -371 540 -343 c 128,-1,48
 585 -315 585 -315 585 -271 c 0,49,50
 585 -231 585 -231 553 -188 c 128,-1,51
 521 -145 521 -145 475 -119 c 1,52,-1
 475 0 l 1,37,-1
EndSplineSet
EndChar

StartChar: egrave
Encoding: 232 232 170
Width: 1224
GlyphClass: 2
Flags: W
LayerCount: 2
Fore
SplineSet
611 -18 m 0,0,1
 771 -18 771 -18 898.5 15 c 128,-1,2
 1026 48 1026 48 1158 127 c 1,3,-1
 1158 365 l 1,4,-1
 851 365 l 1,5,6
 849 292 849 292 816 257 c 128,-1,7
 783 222 783 222 711 222 c 0,8,9
 629 222 629 222 581.5 288.5 c 128,-1,10
 534 355 534 355 534 448 c 1,11,-1
 1136 448 l 2,12,13
 1155 448 1155 448 1159.5 451.5 c 128,-1,14
 1164 455 1164 455 1173 476 c 1,15,16
 1178 521 1178 521 1178 555 c 0,17,18
 1178 705 1178 705 1115.5 825 c 128,-1,19
 1053 945 1053 945 926 1018.5 c 128,-1,20
 799 1092 799 1092 627 1092 c 0,21,22
 447 1092 447 1092 312.5 1017.5 c 128,-1,23
 178 943 178 943 109 814.5 c 128,-1,24
 40 686 40 686 40 521 c 0,25,26
 40 374 40 374 113 251 c 128,-1,27
 186 128 186 128 317.5 55 c 128,-1,28
 449 -18 449 -18 611 -18 c 0,0,1
536 656 m 2,29,30
 536 717 536 717 563 765.5 c 128,-1,31
 590 814 590 814 644 814 c 0,32,33
 681 814 681 814 705 796.5 c 128,-1,34
 729 779 729 779 738 746.5 c 128,-1,35
 747 714 747 714 749.5 688 c 128,-1,36
 752 662 752 662 751 627 c 1,37,-1
 536 627 l 1,38,-1
 536 656 l 2,29,30
460 1708 m 1,39,-1
 934 1271 l 1,40,-1
 830 1130 l 1,41,-1
 276 1443 l 1,42,-1
 460 1708 l 1,39,-1
EndSplineSet
EndChar

StartChar: eacute
Encoding: 233 233 171
Width: 1224
GlyphClass: 2
Flags: W
LayerCount: 2
Fore
SplineSet
611 -18 m 0,0,1
 449 -18 449 -18 317.5 55 c 128,-1,2
 186 128 186 128 113 251 c 128,-1,3
 40 374 40 374 40 521 c 0,4,5
 40 686 40 686 109 814.5 c 128,-1,6
 178 943 178 943 312.5 1017.5 c 128,-1,7
 447 1092 447 1092 627 1092 c 0,8,9
 799 1092 799 1092 926 1018.5 c 128,-1,10
 1053 945 1053 945 1115.5 825 c 128,-1,11
 1178 705 1178 705 1178 555 c 0,12,13
 1178 521 1178 521 1173 476 c 1,14,15
 1164 455 1164 455 1159.5 451.5 c 128,-1,16
 1155 448 1155 448 1136 448 c 2,17,-1
 534 448 l 1,18,19
 534 355 534 355 581.5 288.5 c 128,-1,20
 629 222 629 222 711 222 c 0,21,22
 783 222 783 222 816 257 c 128,-1,23
 849 292 849 292 851 365 c 1,24,-1
 1158 365 l 1,25,-1
 1158 127 l 1,26,27
 1026 48 1026 48 898.5 15 c 128,-1,28
 771 -18 771 -18 611 -18 c 0,0,1
536 627 m 1,29,-1
 751 627 l 1,30,31
 752 662 752 662 749.5 688 c 128,-1,32
 747 714 747 714 738 746.5 c 128,-1,33
 729 779 729 779 705 796.5 c 128,-1,34
 681 814 681 814 644 814 c 0,35,36
 590 814 590 814 563 765.5 c 128,-1,37
 536 717 536 717 536 656 c 2,38,-1
 536 627 l 1,29,-1
934 1443 m 1,39,-1
 380 1130 l 1,40,-1
 276 1271 l 1,41,-1
 750 1708 l 1,42,-1
 934 1443 l 1,39,-1
EndSplineSet
EndChar

StartChar: ecircumflex
Encoding: 234 234 172
Width: 1224
GlyphClass: 2
Flags: W
LayerCount: 2
Fore
SplineSet
611 -18 m 0,0,1
 449 -18 449 -18 317.5 55 c 128,-1,2
 186 128 186 128 113 251 c 128,-1,3
 40 374 40 374 40 521 c 0,4,5
 40 686 40 686 109 814.5 c 128,-1,6
 178 943 178 943 312.5 1017.5 c 128,-1,7
 447 1092 447 1092 627 1092 c 0,8,9
 799 1092 799 1092 926 1018.5 c 128,-1,10
 1053 945 1053 945 1115.5 825 c 128,-1,11
 1178 705 1178 705 1178 555 c 0,12,13
 1178 521 1178 521 1173 476 c 1,14,15
 1164 455 1164 455 1159.5 451.5 c 128,-1,16
 1155 448 1155 448 1136 448 c 2,17,-1
 534 448 l 1,18,19
 534 355 534 355 581.5 288.5 c 128,-1,20
 629 222 629 222 711 222 c 0,21,22
 783 222 783 222 816 257 c 128,-1,23
 849 292 849 292 851 365 c 1,24,-1
 1158 365 l 1,25,-1
 1158 127 l 1,26,27
 1026 48 1026 48 898.5 15 c 128,-1,28
 771 -18 771 -18 611 -18 c 0,0,1
536 627 m 1,29,-1
 751 627 l 1,30,31
 752 662 752 662 749.5 688 c 128,-1,32
 747 714 747 714 738 746.5 c 128,-1,33
 729 779 729 779 705 796.5 c 128,-1,34
 681 814 681 814 644 814 c 0,35,36
 590 814 590 814 563 765.5 c 128,-1,37
 536 717 536 717 536 656 c 2,38,-1
 536 627 l 1,29,-1
740 1600 m 1,39,-1
 1014 1224 l 1,40,-1
 860 1123 l 1,41,-1
 605 1368 l 1,42,-1
 350 1123 l 1,43,-1
 196 1224 l 1,44,-1
 469 1601 l 1,45,-1
 740 1600 l 1,39,-1
EndSplineSet
EndChar

StartChar: edieresis
Encoding: 235 235 173
Width: 1224
GlyphClass: 2
Flags: W
LayerCount: 2
Fore
SplineSet
611 -18 m 0,0,1
 771 -18 771 -18 898.5 15 c 128,-1,2
 1026 48 1026 48 1158 127 c 1,3,-1
 1158 365 l 1,4,-1
 851 365 l 1,5,6
 849 292 849 292 816 257 c 128,-1,7
 783 222 783 222 711 222 c 0,8,9
 629 222 629 222 581.5 288.5 c 128,-1,10
 534 355 534 355 534 448 c 1,11,-1
 1136 448 l 2,12,13
 1155 448 1155 448 1159.5 451.5 c 128,-1,14
 1164 455 1164 455 1173 476 c 1,15,16
 1178 521 1178 521 1178 555 c 0,17,18
 1178 705 1178 705 1115.5 825 c 128,-1,19
 1053 945 1053 945 926 1018.5 c 128,-1,20
 799 1092 799 1092 627 1092 c 0,21,22
 447 1092 447 1092 312.5 1017.5 c 128,-1,23
 178 943 178 943 109 814.5 c 128,-1,24
 40 686 40 686 40 521 c 0,25,26
 40 374 40 374 113 251 c 128,-1,27
 186 128 186 128 317.5 55 c 128,-1,28
 449 -18 449 -18 611 -18 c 0,0,1
536 656 m 2,29,30
 536 717 536 717 563 765.5 c 128,-1,31
 590 814 590 814 644 814 c 0,32,33
 681 814 681 814 705 796.5 c 128,-1,34
 729 779 729 779 738 746.5 c 128,-1,35
 747 714 747 714 749.5 688 c 128,-1,36
 752 662 752 662 751 627 c 1,37,-1
 536 627 l 1,38,-1
 536 656 l 2,29,30
523 1342 m 0,39,40
 523 1234 523 1234 456.5 1173 c 128,-1,41
 390 1112 390 1112 299 1112 c 0,42,43
 206 1112 206 1112 138.5 1173.5 c 128,-1,44
 71 1235 71 1235 71 1345 c 0,45,46
 71 1452 71 1452 138 1512 c 128,-1,47
 205 1572 205 1572 297 1572 c 128,-1,48
 389 1572 389 1572 456 1511.5 c 128,-1,49
 523 1451 523 1451 523 1342 c 0,39,40
1140 1342 m 0,50,51
 1140 1234 1140 1234 1073.5 1173 c 128,-1,52
 1007 1112 1007 1112 916 1112 c 0,53,54
 823 1112 823 1112 755.5 1173.5 c 128,-1,55
 688 1235 688 1235 688 1345 c 0,56,57
 688 1452 688 1452 755 1512 c 128,-1,58
 822 1572 822 1572 914 1572 c 128,-1,59
 1006 1572 1006 1572 1073 1511.5 c 128,-1,60
 1140 1451 1140 1451 1140 1342 c 0,50,51
EndSplineSet
EndChar

StartChar: igrave
Encoding: 236 236 174
Width: 814
GlyphClass: 2
Flags: W
LayerCount: 2
Fore
SplineSet
270 1708 m 1,0,-1
 744 1271 l 1,1,-1
 640 1130 l 1,2,-1
 86 1443 l 1,3,-1
 270 1708 l 1,0,-1
661 1072 m 1,4,-1
 91 1072 l 1,5,-1
 91 747 l 1,6,-1
 180 747 l 1,7,-1
 180 299 l 1,8,-1
 98 299 l 1,9,-1
 98 0 l 1,10,-1
 745 0 l 1,11,-1
 745 299 l 1,12,-1
 661 299 l 1,13,-1
 661 1072 l 1,4,-1
EndSplineSet
EndChar

StartChar: iacute
Encoding: 237 237 175
Width: 814
GlyphClass: 2
Flags: W
LayerCount: 2
Fore
SplineSet
744 1443 m 1,0,-1
 190 1130 l 1,1,-1
 86 1271 l 1,2,-1
 560 1708 l 1,3,-1
 744 1443 l 1,0,-1
661 299 m 1,4,-1
 745 299 l 1,5,-1
 745 0 l 1,6,-1
 98 0 l 1,7,-1
 98 299 l 1,8,-1
 180 299 l 1,9,-1
 180 747 l 1,10,-1
 91 747 l 1,11,-1
 91 1072 l 1,12,-1
 661 1072 l 1,13,-1
 661 299 l 1,4,-1
EndSplineSet
EndChar

StartChar: icircumflex
Encoding: 238 238 176
Width: 813
GlyphClass: 2
Flags: W
LayerCount: 2
Fore
SplineSet
550 1600 m 1,0,-1
 824 1224 l 1,1,-1
 670 1123 l 1,2,-1
 415 1368 l 1,3,-1
 160 1123 l 1,4,-1
 6 1224 l 1,5,-1
 279 1601 l 1,6,-1
 550 1600 l 1,0,-1
661 299 m 1,7,-1
 745 299 l 1,8,-1
 745 0 l 1,9,-1
 98 0 l 1,10,-1
 98 299 l 1,11,-1
 180 299 l 1,12,-1
 180 747 l 1,13,-1
 91 747 l 1,14,-1
 91 1072 l 1,15,-1
 661 1072 l 1,16,-1
 661 299 l 1,7,-1
EndSplineSet
EndChar

StartChar: idieresis
Encoding: 239 239 177
Width: 815
GlyphClass: 2
Flags: W
LayerCount: 2
Fore
SplineSet
334 1342 m 0,0,1
 334 1234 334 1234 267.5 1173 c 128,-1,2
 201 1112 201 1112 110 1112 c 0,3,4
 17 1112 17 1112 -50.5 1173.5 c 128,-1,5
 -118 1235 -118 1235 -118 1345 c 0,6,7
 -118 1452 -118 1452 -51 1512 c 128,-1,8
 16 1572 16 1572 108 1572 c 128,-1,9
 200 1572 200 1572 267 1511.5 c 128,-1,10
 334 1451 334 1451 334 1342 c 0,0,1
951 1342 m 0,11,12
 951 1234 951 1234 884.5 1173 c 128,-1,13
 818 1112 818 1112 727 1112 c 0,14,15
 634 1112 634 1112 566.5 1173.5 c 128,-1,16
 499 1235 499 1235 499 1345 c 0,17,18
 499 1452 499 1452 566 1512 c 128,-1,19
 633 1572 633 1572 725 1572 c 128,-1,20
 817 1572 817 1572 884 1511.5 c 128,-1,21
 951 1451 951 1451 951 1342 c 0,11,12
662 1072 m 1,22,-1
 92 1072 l 1,23,-1
 92 747 l 1,24,-1
 181 747 l 1,25,-1
 181 299 l 1,26,-1
 99 299 l 1,27,-1
 99 0 l 1,28,-1
 746 0 l 1,29,-1
 746 299 l 1,30,-1
 662 299 l 1,31,-1
 662 1072 l 1,22,-1
EndSplineSet
EndChar

StartChar: eth
Encoding: 240 240 178
Width: 1337
GlyphClass: 2
Flags: W
LayerCount: 2
Fore
SplineSet
1206 1585 m 1,0,-1
 1269 1428 l 1,1,-1
 1112 1365 l 1,2,3
 1264 1142 1264 1142 1283 751 c 0,4,5
 1284 731 1284 731 1284 691 c 0,6,7
 1284 574 1284 574 1261.5 470.5 c 128,-1,8
 1239 367 1239 367 1189.5 277 c 128,-1,9
 1140 187 1140 187 1067 122 c 128,-1,10
 994 57 994 57 886.5 19.5 c 128,-1,11
 779 -18 779 -18 646 -18 c 0,12,13
 504 -18 504 -18 386 30.5 c 128,-1,14
 268 79 268 79 193.5 159 c 128,-1,15
 119 239 119 239 78.5 337.5 c 128,-1,16
 38 436 38 436 38 540 c 0,17,18
 38 616 38 616 60.5 687 c 128,-1,19
 83 758 83 758 131 820.5 c 128,-1,20
 179 883 179 883 248.5 929 c 128,-1,21
 318 975 318 975 418 1002 c 128,-1,22
 518 1029 518 1029 637 1029 c 2,23,-1
 670 1029 l 1,24,25
 646 1121 646 1121 622 1169 c 1,26,-1
 371 1068 l 1,27,-1
 308 1225 l 1,28,-1
 488 1297 l 1,29,30
 426 1321 426 1321 342 1321 c 0,31,32
 264 1321 264 1321 217 1310 c 1,33,-1
 217 1621 l 1,34,35
 372 1654 372 1654 511 1654 c 0,36,37
 807 1654 807 1654 992 1499 c 1,38,-1
 1206 1585 l 1,0,-1
557 568 m 0,39,40
 557 338 557 338 668 338 c 0,41,42
 698 338 698 338 719 364 c 128,-1,43
 740 390 740 390 748.5 430.5 c 128,-1,44
 757 471 757 471 760.5 502 c 128,-1,45
 764 533 764 533 764 560 c 0,46,47
 764 777 764 777 666 777 c 0,48,49
 557 777 557 777 557 568 c 0,39,40
EndSplineSet
EndChar

StartChar: ntilde
Encoding: 241 241 179
Width: 1482
GlyphClass: 2
Flags: W
LayerCount: 2
Fore
SplineSet
661 1072 m 1,0,-1
 98 1072 l 1,1,-1
 98 761 l 1,2,-1
 174 761 l 1,3,-1
 174 305 l 1,4,-1
 91 305 l 1,5,-1
 91 0 l 1,6,-1
 749 0 l 1,7,-1
 749 305 l 1,8,-1
 661 305 l 1,9,-1
 661 624 l 2,10,11
 661 671 661 671 689.5 704 c 128,-1,12
 718 737 718 737 765 737 c 0,13,14
 801 737 801 737 828 706 c 128,-1,15
 855 675 855 675 855 627 c 2,16,-1
 855 0 l 1,17,-1
 1429 0 l 1,18,-1
 1429 305 l 1,19,-1
 1349 305 l 1,20,-1
 1349 680 l 2,21,22
 1349 1092 1349 1092 1019 1092 c 0,23,24
 901 1092 901 1092 808.5 1046.5 c 128,-1,25
 716 1001 716 1001 661 916 c 1,26,-1
 661 1072 l 1,0,-1
889 1523 m 0,27,28
 933 1523 933 1523 969 1504 c 128,-1,29
 1005 1485 1005 1485 1031 1450.5 c 128,-1,30
 1057 1416 1057 1416 1076.5 1382 c 128,-1,31
 1096 1348 1096 1348 1119.5 1303 c 128,-1,32
 1143 1258 1143 1258 1161 1232 c 1,33,-1
 1048 1158 l 1,34,35
 975 1228 975 1228 947.5 1247 c 128,-1,36
 920 1266 920 1266 901 1266 c 0,37,38
 856 1266 856 1266 794 1236 c 128,-1,39
 732 1206 732 1206 665.5 1175.5 c 128,-1,40
 599 1145 599 1145 544 1145 c 0,41,42
 499 1145 499 1145 463 1163.5 c 128,-1,43
 427 1182 427 1182 400.5 1216.5 c 128,-1,44
 374 1251 374 1251 355 1284.5 c 128,-1,45
 336 1318 336 1318 312 1363.5 c 128,-1,46
 288 1409 288 1409 270 1435 c 1,47,-1
 384 1510 l 1,48,49
 460 1437 460 1437 488 1417.5 c 128,-1,50
 516 1398 516 1398 534 1398 c 0,51,52
 570 1398 570 1398 617 1417.5 c 128,-1,53
 664 1437 664 1437 703 1460.5 c 128,-1,54
 742 1484 742 1484 793 1503.5 c 128,-1,55
 844 1523 844 1523 889 1523 c 0,27,28
EndSplineSet
EndChar

StartChar: ograve
Encoding: 242 242 180
Width: 1290
GlyphClass: 2
Flags: W
LayerCount: 2
Fore
SplineSet
43 547 m 0,0,1
 43 807 43 807 204 949 c 128,-1,2
 365 1091 365 1091 645 1091 c 128,-1,3
 925 1091 925 1091 1086 949 c 128,-1,4
 1247 807 1247 807 1247 547 c 0,5,6
 1247 372 1247 372 1170.5 243 c 128,-1,7
 1094 114 1094 114 958.5 48 c 128,-1,8
 823 -18 823 -18 645 -18 c 128,-1,9
 467 -18 467 -18 331.5 48 c 128,-1,10
 196 114 196 114 119.5 243 c 128,-1,11
 43 372 43 372 43 547 c 0,0,1
508 545 m 0,12,13
 508 294 508 294 645 294 c 128,-1,14
 782 294 782 294 782 545 c 0,15,16
 782 596 782 596 777.5 631.5 c 128,-1,17
 773 667 773 667 760 704 c 128,-1,18
 747 741 747 741 718 760 c 128,-1,19
 689 779 689 779 645 779 c 128,-1,20
 601 779 601 779 572 760 c 128,-1,21
 543 741 543 741 530 704 c 128,-1,22
 517 667 517 667 512.5 631.5 c 128,-1,23
 508 596 508 596 508 545 c 0,12,13
495 1708 m 1,24,-1
 969 1271 l 1,25,-1
 865 1130 l 1,26,-1
 311 1443 l 1,27,-1
 495 1708 l 1,24,-1
EndSplineSet
EndChar

StartChar: oacute
Encoding: 243 243 181
Width: 1290
GlyphClass: 2
Flags: W
LayerCount: 2
Fore
SplineSet
43 547 m 0,0,1
 43 807 43 807 204 949 c 128,-1,2
 365 1091 365 1091 645 1091 c 128,-1,3
 925 1091 925 1091 1086 949 c 128,-1,4
 1247 807 1247 807 1247 547 c 0,5,6
 1247 372 1247 372 1170.5 243 c 128,-1,7
 1094 114 1094 114 958.5 48 c 128,-1,8
 823 -18 823 -18 645 -18 c 128,-1,9
 467 -18 467 -18 331.5 48 c 128,-1,10
 196 114 196 114 119.5 243 c 128,-1,11
 43 372 43 372 43 547 c 0,0,1
508 545 m 0,12,13
 508 294 508 294 645 294 c 128,-1,14
 782 294 782 294 782 545 c 0,15,16
 782 596 782 596 777.5 631.5 c 128,-1,17
 773 667 773 667 760 704 c 128,-1,18
 747 741 747 741 718 760 c 128,-1,19
 689 779 689 779 645 779 c 128,-1,20
 601 779 601 779 572 760 c 128,-1,21
 543 741 543 741 530 704 c 128,-1,22
 517 667 517 667 512.5 631.5 c 128,-1,23
 508 596 508 596 508 545 c 0,12,13
969 1443 m 1,24,-1
 415 1130 l 1,25,-1
 311 1271 l 1,26,-1
 785 1708 l 1,27,-1
 969 1443 l 1,24,-1
EndSplineSet
EndChar

StartChar: ocircumflex
Encoding: 244 244 182
Width: 1290
GlyphClass: 2
Flags: W
LayerCount: 2
Fore
SplineSet
43 547 m 0,0,1
 43 807 43 807 204 949 c 128,-1,2
 365 1091 365 1091 645 1091 c 128,-1,3
 925 1091 925 1091 1086 949 c 128,-1,4
 1247 807 1247 807 1247 547 c 0,5,6
 1247 372 1247 372 1170.5 243 c 128,-1,7
 1094 114 1094 114 958.5 48 c 128,-1,8
 823 -18 823 -18 645 -18 c 128,-1,9
 467 -18 467 -18 331.5 48 c 128,-1,10
 196 114 196 114 119.5 243 c 128,-1,11
 43 372 43 372 43 547 c 0,0,1
508 545 m 0,12,13
 508 294 508 294 645 294 c 128,-1,14
 782 294 782 294 782 545 c 0,15,16
 782 596 782 596 777.5 631.5 c 128,-1,17
 773 667 773 667 760 704 c 128,-1,18
 747 741 747 741 718 760 c 128,-1,19
 689 779 689 779 645 779 c 128,-1,20
 601 779 601 779 572 760 c 128,-1,21
 543 741 543 741 530 704 c 128,-1,22
 517 667 517 667 512.5 631.5 c 128,-1,23
 508 596 508 596 508 545 c 0,12,13
775 1600 m 1,24,-1
 1049 1224 l 1,25,-1
 895 1123 l 1,26,-1
 640 1368 l 1,27,-1
 385 1123 l 1,28,-1
 231 1224 l 1,29,-1
 504 1601 l 1,30,-1
 775 1600 l 1,24,-1
EndSplineSet
EndChar

StartChar: otilde
Encoding: 245 245 183
Width: 1290
GlyphClass: 2
Flags: W
LayerCount: 2
Fore
SplineSet
43 547 m 0,0,1
 43 807 43 807 204 949 c 128,-1,2
 365 1091 365 1091 645 1091 c 128,-1,3
 925 1091 925 1091 1086 949 c 128,-1,4
 1247 807 1247 807 1247 547 c 0,5,6
 1247 372 1247 372 1170.5 243 c 128,-1,7
 1094 114 1094 114 958.5 48 c 128,-1,8
 823 -18 823 -18 645 -18 c 128,-1,9
 467 -18 467 -18 331.5 48 c 128,-1,10
 196 114 196 114 119.5 243 c 128,-1,11
 43 372 43 372 43 547 c 0,0,1
508 545 m 0,12,13
 508 294 508 294 645 294 c 128,-1,14
 782 294 782 294 782 545 c 0,15,16
 782 596 782 596 777.5 631.5 c 128,-1,17
 773 667 773 667 760 704 c 128,-1,18
 747 741 747 741 718 760 c 128,-1,19
 689 779 689 779 645 779 c 128,-1,20
 601 779 601 779 572 760 c 128,-1,21
 543 741 543 741 530 704 c 128,-1,22
 517 667 517 667 512.5 631.5 c 128,-1,23
 508 596 508 596 508 545 c 0,12,13
813 1523 m 0,24,25
 857 1523 857 1523 893 1504 c 128,-1,26
 929 1485 929 1485 955 1450.5 c 128,-1,27
 981 1416 981 1416 1000.5 1382 c 128,-1,28
 1020 1348 1020 1348 1043.5 1303 c 128,-1,29
 1067 1258 1067 1258 1085 1232 c 1,30,-1
 972 1158 l 1,31,32
 899 1228 899 1228 871.5 1247 c 128,-1,33
 844 1266 844 1266 825 1266 c 0,34,35
 780 1266 780 1266 718 1236 c 128,-1,36
 656 1206 656 1206 589.5 1175.5 c 128,-1,37
 523 1145 523 1145 468 1145 c 0,38,39
 423 1145 423 1145 387 1163.5 c 128,-1,40
 351 1182 351 1182 324.5 1216.5 c 128,-1,41
 298 1251 298 1251 279 1284.5 c 128,-1,42
 260 1318 260 1318 236 1363.5 c 128,-1,43
 212 1409 212 1409 194 1435 c 1,44,-1
 308 1510 l 1,45,46
 384 1437 384 1437 412 1417.5 c 128,-1,47
 440 1398 440 1398 458 1398 c 0,48,49
 494 1398 494 1398 541 1417.5 c 128,-1,50
 588 1437 588 1437 627 1460.5 c 128,-1,51
 666 1484 666 1484 717 1503.5 c 128,-1,52
 768 1523 768 1523 813 1523 c 0,24,25
EndSplineSet
EndChar

StartChar: odieresis
Encoding: 246 246 184
Width: 1290
GlyphClass: 2
Flags: W
LayerCount: 2
Fore
SplineSet
43 547 m 0,0,1
 43 807 43 807 204 949 c 128,-1,2
 365 1091 365 1091 645 1091 c 128,-1,3
 925 1091 925 1091 1086 949 c 128,-1,4
 1247 807 1247 807 1247 547 c 0,5,6
 1247 372 1247 372 1170.5 243 c 128,-1,7
 1094 114 1094 114 958.5 48 c 128,-1,8
 823 -18 823 -18 645 -18 c 128,-1,9
 467 -18 467 -18 331.5 48 c 128,-1,10
 196 114 196 114 119.5 243 c 128,-1,11
 43 372 43 372 43 547 c 0,0,1
508 545 m 0,12,13
 508 294 508 294 645 294 c 128,-1,14
 782 294 782 294 782 545 c 0,15,16
 782 596 782 596 777.5 631.5 c 128,-1,17
 773 667 773 667 760 704 c 128,-1,18
 747 741 747 741 718 760 c 128,-1,19
 689 779 689 779 645 779 c 128,-1,20
 601 779 601 779 572 760 c 128,-1,21
 543 741 543 741 530 704 c 128,-1,22
 517 667 517 667 512.5 631.5 c 128,-1,23
 508 596 508 596 508 545 c 0,12,13
558 1342 m 0,24,25
 558 1234 558 1234 491.5 1173 c 128,-1,26
 425 1112 425 1112 334 1112 c 0,27,28
 241 1112 241 1112 173.5 1173.5 c 128,-1,29
 106 1235 106 1235 106 1345 c 0,30,31
 106 1452 106 1452 173 1512 c 128,-1,32
 240 1572 240 1572 332 1572 c 128,-1,33
 424 1572 424 1572 491 1511.5 c 128,-1,34
 558 1451 558 1451 558 1342 c 0,24,25
1175 1342 m 0,35,36
 1175 1234 1175 1234 1108.5 1173 c 128,-1,37
 1042 1112 1042 1112 951 1112 c 0,38,39
 858 1112 858 1112 790.5 1173.5 c 128,-1,40
 723 1235 723 1235 723 1345 c 0,41,42
 723 1452 723 1452 790 1512 c 128,-1,43
 857 1572 857 1572 949 1572 c 128,-1,44
 1041 1572 1041 1572 1108 1511.5 c 128,-1,45
 1175 1451 1175 1451 1175 1342 c 0,35,36
EndSplineSet
EndChar

StartChar: divide
Encoding: 247 247 185
Width: 920
GlyphClass: 2
Flags: W
LayerCount: 2
Fore
SplineSet
68 761 m 1,0,-1
 68 538 l 1,1,-1
 842 538 l 1,2,-1
 842 761 l 1,3,-1
 68 761 l 1,0,-1
471 -18 m 0,4,5
 373 -18 373 -18 308 37.5 c 128,-1,6
 243 93 243 93 243 188 c 0,7,8
 243 280 243 280 306.5 334.5 c 128,-1,9
 370 389 370 389 471 389 c 0,10,11
 575 389 575 389 641 334.5 c 128,-1,12
 707 280 707 280 707 188 c 0,13,14
 707 93 707 93 639 37.5 c 128,-1,15
 571 -18 571 -18 471 -18 c 0,4,5
471 886 m 0,16,17
 373 886 373 886 308 941.5 c 128,-1,18
 243 997 243 997 243 1092 c 0,19,20
 243 1184 243 1184 306.5 1238.5 c 128,-1,21
 370 1293 370 1293 471 1293 c 0,22,23
 575 1293 575 1293 641 1238.5 c 128,-1,24
 707 1184 707 1184 707 1092 c 0,25,26
 707 997 707 997 639 941.5 c 128,-1,27
 571 886 571 886 471 886 c 0,16,17
EndSplineSet
EndChar

StartChar: oslash
Encoding: 248 248 186
Width: 1288
GlyphClass: 2
Flags: W
LayerCount: 2
Fore
SplineSet
43 547 m 0,0,1
 43 807 43 807 204 949 c 128,-1,2
 365 1091 365 1091 645 1091 c 128,-1,3
 925 1091 925 1091 1086 949 c 128,-1,4
 1247 807 1247 807 1247 547 c 0,5,6
 1247 372 1247 372 1170.5 243 c 128,-1,7
 1094 114 1094 114 958.5 48 c 128,-1,8
 823 -18 823 -18 645 -18 c 128,-1,9
 467 -18 467 -18 331.5 48 c 128,-1,10
 196 114 196 114 119.5 243 c 128,-1,11
 43 372 43 372 43 547 c 0,0,1
508 545 m 0,12,13
 508 294 508 294 645 294 c 128,-1,14
 782 294 782 294 782 545 c 0,15,16
 782 596 782 596 777.5 631.5 c 128,-1,17
 773 667 773 667 760 704 c 128,-1,18
 747 741 747 741 718 760 c 128,-1,19
 689 779 689 779 645 779 c 128,-1,20
 601 779 601 779 572 760 c 128,-1,21
 543 741 543 741 530 704 c 128,-1,22
 517 667 517 667 512.5 631.5 c 128,-1,23
 508 596 508 596 508 545 c 0,12,13
246 -54 m 1,24,-1
 947 1192 l 1,25,-1
 1034 1142 l 1,26,-1
 333 -104 l 1,27,-1
 246 -54 l 1,24,-1
EndSplineSet
EndChar

